# This file uses centimeters as units for non-parametric coordinates.

mtllib karpet.mtl
g default
v -10.556988 -0.000000 8.653316
v -3.731491 -0.000000 8.653316
v 3.094006 -0.000000 8.653316
v -10.556988 0.000000 5.087683
v -3.731491 0.000000 5.087683
v 3.094006 0.000000 5.087683
v -10.556988 0.000000 1.522051
v -3.731491 0.000000 1.522051
v 3.094006 0.000000 1.522051
vt 0.000000 0.238800
vt 0.500000 0.238800
vt 0.500000 0.500000
vt 0.000000 0.500000
vt 1.000000 0.238800
vt 1.000000 0.500000
vt 0.500000 0.761199
vt 0.000000 0.761199
vt 1.000000 0.761199
vn 0.000000 1.000000 0.000000
vn 0.000000 1.000000 0.000000
vn 0.000000 1.000000 0.000000
vn 0.000000 1.000000 0.000000
vn 0.000000 1.000000 0.000000
vn 0.000000 1.000000 0.000000
vn 0.000000 1.000000 0.000000
vn 0.000000 1.000000 0.000000
vn 0.000000 1.000000 0.000000
s 1
g pPlane7
usemtl lambert25SG
f 1/1/1 2/2/2 5/3/3 4/4/4
f 2/2/2 3/5/5 6/6/6 5/3/3
f 4/4/4 5/3/3 8/7/7 7/8/8
f 5/3/3 6/6/6 9/9/9 8/7/7
