# This file uses centimeters as units for non-parametric coordinates.

mtllib BOX POHON FANCY.mtl
g default
v 9.046114 0.051895 9.623376
v 9.079141 0.038573 9.623668
v 9.079015 0.052186 9.656738
v 9.078851 0.085043 9.670428
v 9.045974 0.084775 9.656485
v 9.032384 0.084750 9.623276
v 10.430512 0.068783 9.635289
v 10.443843 0.101736 9.635069
v 10.430189 0.101870 9.667685
v 10.397217 0.101690 9.681014
v 10.397595 0.068635 9.667767
v 10.397826 0.054820 9.635171
v 9.097402 1.175379 9.610068
v 9.080579 1.175379 9.581684
v 9.046411 1.162041 9.611878
v 9.032384 1.129845 9.624501
v 9.045444 1.130322 9.656695
v 9.076977 1.130788 9.670035
v 9.095427 1.162385 9.656604
v 9.138026 1.175379 9.621833
v 10.371656 1.175379 9.610323
v 10.331142 1.175379 9.622107
v 10.372970 1.162187 9.656951
v 10.391344 1.129957 9.670518
v 10.423462 1.130394 9.657474
v 10.436764 1.130835 9.625960
v 10.422646 1.162368 9.612765
v 10.388437 1.175379 9.581857
v 9.097403 1.175379 5.023314
v 9.138026 1.175379 5.011554
v 9.096122 1.162111 4.976765
v 9.077914 1.129850 4.963350
v 9.045717 1.130311 4.976413
v 9.032384 1.130777 5.007952
v 9.046367 1.162315 5.020892
v 9.080579 1.175379 5.051702
v 10.371430 1.175379 5.023314
v 10.388259 1.175379 5.051702
v 10.422422 1.162042 5.021513
v 10.436453 1.129845 5.008886
v 10.423392 1.130323 4.976686
v 10.391861 1.130788 4.963350
v 10.373411 1.162384 4.976778
v 10.330811 1.175379 5.011554
v 9.045994 0.051599 5.009835
v 9.032384 0.084458 5.009818
v 9.045994 0.084457 4.976960
v 9.078851 0.084458 4.963350
v 9.078858 0.051599 4.976962
v 9.078851 0.037991 5.009818
v 10.422920 0.051776 5.009826
v 10.390063 0.038164 5.009818
v 10.389944 0.051689 4.976972
v 10.389899 0.084545 4.963350
v 10.422843 0.084553 4.976956
v 10.436529 0.084632 5.009818
v 9.184228 1.129842 9.533753
v 9.170853 1.129983 9.501717
v 9.157146 1.162094 9.514426
v 9.123588 1.175379 9.544380
v 9.136582 1.175379 9.579579
v 9.167967 1.175379 9.594184
v 9.202520 1.161992 9.561052
v 9.216548 1.129685 9.547113
v 10.286888 1.129146 9.537665
v 10.253829 1.128833 9.551134
v 10.267699 1.161441 9.562800
v 10.303223 1.175379 9.595529
v 10.334296 1.175379 9.580923
v 10.347162 1.175379 9.545606
v 10.313390 1.161619 9.515663
v 10.300585 1.129475 9.504929
v 10.284588 1.129835 5.099567
v 10.297981 1.129983 5.131668
v 10.311679 1.162088 5.118994
v 10.345250 1.175379 5.089005
v 10.332245 1.175379 5.053780
v 10.300870 1.175379 5.039201
v 10.266352 1.162004 5.072286
v 10.252289 1.129685 5.086272
v 9.184239 1.129834 5.099569
v 9.216548 1.129685 5.086272
v 9.202395 1.161998 5.072554
v 9.167998 1.175379 5.039720
v 9.136332 1.175379 5.054168
v 9.123217 1.175379 5.089026
v 9.156982 1.162087 5.119070
v 9.170853 1.129983 5.131668
v 9.170853 0.317644 9.498456
v 9.183952 0.317089 9.533889
v 9.215930 0.318299 9.549778
v 10.292979 0.319597 9.609504
v 10.326509 0.321154 9.597879
v 10.340468 0.320554 9.566680
v 10.298448 0.316534 5.132742
v 10.284390 0.316049 5.099858
v 10.250976 0.315994 5.086272
v 9.217323 0.315453 5.086272
v 9.184462 0.315443 5.099882
v 9.170853 0.315453 5.132739
v 9.052108 0.057973 9.650446
v 10.424390 0.074923 9.661888
v 9.060457 1.162219 9.642964
v 10.408403 1.162283 9.643459
v 9.060653 1.162217 4.990205
v 10.408381 1.162220 4.990418
v 9.052038 0.057636 4.983006
v 10.416815 0.057740 4.983006
v 9.170737 1.162091 9.547717
v 10.299709 1.161542 9.549414
v 10.298089 1.162090 5.085611
v 9.170561 1.162075 5.085849
vt 0.025646 0.801519
vt 0.025525 0.797156
vt 0.262100 0.015966
vt 0.627238 0.791082
vt 0.985392 0.038476
vt 0.261893 0.021450
vt 0.041803 0.543597
vt 0.043167 0.540926
vt 0.022083 0.970913
vt 0.173172 0.544447
vt 0.026395 0.971750
vt 0.990939 0.038850
vt 0.007073 0.651073
vt 0.979760 0.196742
vt 0.010929 0.652222
vt 0.178408 0.537480
vt 0.177834 0.530998
vt 0.629603 0.969196
vt 0.983017 0.534632
vt 0.629638 0.964276
vt 0.175717 0.541132
vt 0.165347 0.697630
vt 0.158526 0.693786
vt 0.172485 0.700966
vt 0.972746 0.207359
vt 0.977388 0.210370
vt 0.016072 0.667732
vt 0.966737 0.213678
vt 0.015564 0.661481
vt 0.017928 0.665107
vt 0.977613 0.201952
vt 0.269148 0.193438
vt 0.267278 0.188260
vt 0.273745 0.198951
vt 0.011991 0.656380
vt 0.153712 0.696165
vt 0.146336 0.697884
vt 0.146980 0.700708
vt 0.182453 0.725866
vt 0.141471 0.699163
vt 0.180258 0.713973
vt 0.186617 0.721502
vt 0.174808 0.707252
vt 0.986297 0.730249
vt 0.980709 0.736552
vt 0.988735 0.724112
vt 0.252701 0.205608
vt 0.261383 0.206236
vt 0.274880 0.207775
vt 0.249022 0.211507
vt 0.279299 0.205350
vt 0.259153 0.191067
vt 0.257806 0.197674
vt 0.052115 0.244644
vt 0.047646 0.239284
vt 0.060656 0.249559
vt 0.263295 0.189636
vt 0.254577 0.020495
vt 0.247267 0.019931
vt 0.986273 0.740941
vt 0.063144 0.258953
vt 0.973811 0.743887
vt 0.066727 0.253164
vt 0.041641 0.240655
vt 0.990868 0.535193
vt 0.013895 0.051041
vt 0.632221 0.790017
vt 0.012629 0.044146
vt 0.239908 0.498268
vt 0.963323 0.224081
vt 0.236322 0.298608
vt 0.239671 0.298738
vt 0.020191 0.672988
vt 0.229890 0.298916
vt 0.961906 0.218968
vt 0.283734 0.210774
vt 0.499296 0.497708
vt 0.020306 0.669475
vt 0.135475 0.701001
vt 0.023768 0.498407
vt 0.132203 0.701067
vt 0.991146 0.297897
vt 0.015559 0.299626
vt 0.193561 0.734198
vt 0.987816 0.297617
vt 0.191815 0.728086
vt 0.968290 0.750043
vt 0.724880 0.497172
vt 0.969133 0.754779
vt 0.721090 0.297259
vt 0.724501 0.297370
vt 0.077442 0.263006
vt 0.714393 0.297261
vt 0.073800 0.257804
vt 0.244844 0.218683
vt 0.509047 0.497612
vt 0.247669 0.224499
vt 0.502138 0.297631
vt 0.508726 0.297618
vt 0.498800 0.297641
vt 0.022068 0.798040
vt 0.174321 0.536256
vt 0.982950 0.203737
vt 0.155110 0.700487
vt 0.264654 0.196608
vt 0.994106 0.733433
vt 0.256453 0.014853
vt 0.633656 0.969439
vt 0.966395 0.220966
vt 0.134154 0.701002
vt 0.971254 0.750771
vt 0.250597 0.221136
vt 0.255943 0.214172
vt 0.279354 0.212075
vt 0.502570 0.497664
vt 0.280120 0.215296
vt 0.978693 0.746808
vt 0.070957 0.262260
vt 0.721604 0.497143
vt 0.073500 0.264073
vt 0.140429 0.700903
vt 0.189232 0.732342
vt 0.017142 0.498514
vt 0.987807 0.496520
vt 0.192366 0.736312
vt 0.972039 0.216256
vt 0.020160 0.671970
vt 0.236637 0.498239
vt 0.022019 0.673489
vt 0.634609 0.963465
vt 0.987699 0.527553
vt 0.982445 0.528046
vt 0.631226 0.784997
vt 0.252554 0.012923
vt 0.246099 0.012966
vt 0.627077 0.786661
vt 0.045394 0.247830
vt 0.054069 0.254817
vt 0.264922 0.195519
vt 0.269956 0.202144
vt 0.168816 0.709542
vt 0.175953 0.718460
vt 0.985160 0.197280
vt 0.008193 0.657288
vt 0.011971 0.663108
vt 0.022619 0.974066
vt 0.176188 0.542354
vt 0.174498 0.541857
vt 0.026341 0.976595
vt 0.021296 0.800786
vt 0.990579 0.034477
vt 0.040138 0.539805
vt 0.037836 0.542287
vt 0.985629 0.033024
vt 0.285476 0.215980
vt 0.243889 0.224921
vt 0.715130 0.497122
vt 0.965891 0.756104
vt 0.984459 0.496471
vt 0.008854 0.300036
vt 0.132187 0.703552
vt 0.230157 0.498212
vt 0.959752 0.224108
vt 0.007285 0.046716
vt 0.996566 0.725128
vt 0.007647 0.052489
vn -0.003812 -0.999982 0.004709
vn -0.378157 -0.925740 0.001856
vn -0.378191 -0.925726 -0.001652
vn -0.003904 -0.999992 -0.001070
vn -0.923345 -0.383968 0.001462
vn -0.999916 -0.012639 0.002829
vn -0.999916 -0.012640 -0.002863
vn -0.923348 -0.383961 -0.001393
vn -0.014342 -0.007788 0.999867
vn -0.008610 -0.377807 0.925844
vn 0.002741 -0.377559 0.925981
vn 0.005438 -0.007147 0.999960
vn 0.000518 -0.923132 0.384484
vn 0.016443 -0.999853 0.004816
vn 0.015698 -0.922903 0.384713
vn -0.926425 -0.009760 0.376352
vn -0.926073 -0.000494 0.377345
vn -0.999921 0.012255 0.002923
vn -0.389093 -0.008223 0.921162
vn -0.014318 0.014423 0.999793
vn -0.390024 -0.000368 0.920805
vn 0.999958 -0.008966 0.001991
vn 0.925523 -0.378690 0.001322
vn 0.925508 -0.378725 -0.001552
vn 0.999948 -0.009497 -0.003700
vn 0.387610 -0.921813 0.004512
vn 0.016142 -0.999869 -0.000982
vn 0.387573 -0.921839 0.000972
vn 0.374587 0.003888 0.927184
vn 0.374959 0.026087 0.926674
vn 0.005844 0.014734 0.999874
vn 0.922295 0.000641 0.386485
vn 0.999874 0.015771 0.002009
vn 0.921811 0.009824 0.387515
vn -0.198897 0.980020 0.000863
vn -0.069774 0.988755 0.132269
vn 0.106563 0.992404 -0.061469
vn 0.140868 0.990028 -0.000326
vn -0.000593 0.947070 0.321027
vn 0.004345 0.997058 -0.076531
vn -0.915013 0.403414 0.002961
vn -0.914988 0.403471 -0.002904
vn -0.999921 0.012259 -0.002835
vn -0.359488 0.933149 0.000848
vn -0.199265 0.979945 -0.000849
vn -0.359445 0.933166 -0.000810
vn -0.018469 0.942138 0.334716
vn 0.017512 0.941705 0.335984
vn 0.000568 0.947131 0.320847
vn -0.005517 0.392021 0.919940
vn 0.005206 0.392011 0.919946
vn 0.069103 0.988139 0.137134
vn -0.113985 0.991355 -0.064988
vn -0.004269 0.997021 -0.077007
vn 0.200439 0.979706 0.000836
vn -0.144671 0.989480 -0.000254
vn 0.358843 0.933397 0.000786
vn 0.358893 0.933379 -0.000868
vn 0.199933 0.979809 -0.000880
vn 0.914227 0.405193 0.002838
vn 0.999869 0.015723 -0.003757
vn 0.914269 0.405097 -0.003011
vn -0.000672 0.947070 -0.321028
vn -0.068101 0.988368 -0.135982
vn 0.106118 0.992440 0.061665
vn 0.004113 0.997277 0.073632
vn 0.140728 0.990048 0.000307
vn -0.010175 0.009374 -0.999904
vn -0.005544 0.389900 -0.920840
vn 0.005208 0.389994 -0.920803
vn 0.010096 0.009320 -0.999906
vn -0.017612 0.941241 -0.337276
vn 0.000488 0.946897 -0.321535
vn 0.018378 0.941818 -0.335621
vn -0.922517 -0.000568 -0.385956
vn -0.922939 -0.009792 -0.384821
vn -0.379358 -0.000462 -0.925250
vn -0.009824 -0.012532 -0.999873
vn -0.378567 -0.008101 -0.925539
vn 0.069752 0.988759 -0.132249
vn -0.106698 0.992389 0.061477
vn -0.144851 0.989453 0.000399
vn -0.004086 0.997297 0.073368
vn 0.385543 -0.000582 -0.922690
vn 0.384591 -0.008271 -0.923050
vn 0.009915 -0.012539 -0.999872
vn 0.924894 -0.000428 -0.380225
vn 0.925235 -0.009653 -0.379272
vn -0.007540 -0.924601 -0.380862
vn 0.007669 -0.924609 -0.380841
vn -0.005643 -0.382203 -0.924061
vn 0.005707 -0.382198 -0.924063
vn 0.999845 0.017334 -0.003000
vn 0.930552 0.018123 -0.365711
vn 0.930898 0.000544 -0.365280
vn 0.999995 0.000005 -0.003074
vn 0.412724 0.023597 -0.910551
vn 0.041276 -0.016032 -0.999019
vn 0.043031 -0.035822 -0.998431
vn 0.414076 -0.001798 -0.910240
vn 0.366144 0.930557 -0.001335
vn 0.366131 0.930562 0.001297
vn 0.918473 0.395476 -0.002594
vn 0.999845 0.017323 0.003060
vn 0.918467 0.395490 0.002548
vn 0.019920 0.374565 -0.926987
vn -0.014720 0.371833 -0.928183
vn 0.017250 -0.019165 -0.999668
vn 0.001807 0.924054 -0.382259
vn -0.000319 0.924018 -0.382348
vn -0.349246 -0.085433 -0.933128
vn -0.349246 -0.085433 -0.933128
vn 0.017661 -0.038595 -0.999099
vn -0.915354 -0.074850 -0.395632
vn -0.999968 -0.007836 0.001787
vn -0.999684 -0.025063 0.002037
vn -0.915354 -0.074850 -0.395632
vn -0.924140 0.382048 -0.002116
vn -0.924023 0.382325 0.003086
vn -0.999944 -0.006925 0.007951
vn -0.371734 0.928339 -0.001148
vn -0.371634 0.928378 0.001509
vn -0.921159 0.018216 0.388759
vn -0.921185 0.000174 0.389126
vn -0.999667 -0.024479 0.008213
vn -0.378815 0.025635 0.925117
vn -0.012434 0.019962 0.999723
vn -0.012545 0.000017 0.999921
vn -0.378626 0.000518 0.925549
vn -0.016993 0.400209 0.916266
vn 0.017234 0.400011 0.916348
vn 0.012458 0.019972 0.999723
vn -0.000914 0.926952 0.375180
vn 0.001171 0.926943 0.375200
vn 0.381657 0.025507 0.923952
vn 0.381645 0.000412 0.924309
vn 0.012606 0.000014 0.999921
vn 0.923308 0.018531 0.383613
vn 0.999995 0.000004 0.003076
vn 0.923421 0.000453 0.383788
vn -0.888263 -0.327804 0.321765
vn -0.319507 -0.890880 0.322876
vn -0.329899 -0.327622 0.885342
vn 0.332629 -0.882267 0.333112
vn 0.889713 -0.314930 0.330499
vn 0.321123 -0.312737 0.893910
vn -0.213719 0.964337 0.156137
vn -0.797950 0.499961 0.336622
vn -0.797950 0.499961 0.336622
vn -0.327064 0.512128 0.794200
vn -0.327064 0.512128 0.794200
vn 0.206914 0.965369 0.158898
vn 0.311483 0.507889 0.803136
vn 0.784087 0.511516 0.351510
vn 0.784087 0.511516 0.351510
vn -0.207419 0.965035 -0.160263
vn -0.311587 0.502806 -0.806287
vn -0.311587 0.502806 -0.806288
vn -0.786004 0.507211 -0.353460
vn -0.786004 0.507211 -0.353460
vn 0.213724 0.964339 -0.156119
vn 0.797984 0.499986 -0.336504
vn 0.797984 0.499986 -0.336504
vn 0.327023 0.512098 -0.794236
vn 0.327023 0.512098 -0.794236
vn -0.325331 -0.887906 -0.325243
vn -0.887856 -0.325437 -0.325273
vn -0.325324 -0.325427 -0.887841
vn 0.887524 -0.325239 -0.326376
vn 0.325246 -0.888356 -0.324097
vn 0.324573 -0.325354 -0.888142
vn 0.336602 0.490830 -0.803608
vn 0.810806 0.480913 -0.333640
vn 0.164823 0.960916 -0.222426
vn -0.828240 0.446718 -0.338321
vn -0.828240 0.446718 -0.338321
vn -0.344939 0.440239 -0.828979
vn -0.344939 0.440239 -0.828979
vn -0.171576 0.957993 -0.229809
vn -0.335924 0.491147 0.803698
vn -0.811152 0.480658 0.333167
vn -0.164928 0.960887 0.222474
vn 0.809795 0.482969 0.333125
vn 0.335880 0.487388 0.806001
vn 0.164057 0.960558 0.224532
s 1
g pCube30
usemtl lambert54SG
f 2/1/1 1/2/2 45/136/3 50/4/4
s 2
f 1/154/5 6/5/6 46/6/7 45/3/8
s 3
f 4/7/9 3/8/10 11/148/11 10/10/12
s 1
f 3/150/13 2/1/1 12/11/14 11/9/15
s 2
f 6/5/6 5/12/16 17/143/17 16/14/18
s 3
f 5/153/19 4/7/9 18/15/20 17/13/21
s 4
f 8/16/22 7/17/23 51/132/24 56/19/25
s 1
f 7/149/26 12/11/14 52/20/27 51/18/28
s 3
f 10/10/12 9/21/29 25/22/30 24/23/31
s 4
f 9/21/32 8/16/22 26/24/33 25/22/34
s 5
f 14/25/35 13/26/36 61/126/37 60/28/38
f 13/145/36 20/29/39 62/30/40 61/27/37
s 2
f 16/14/18 15/31/41 35/32/42 34/33/43
s 5
f 15/31/44 14/25/35 36/34/45 35/32/46
f 20/29/39 19/35/47 23/36/48 22/37/49
s 3
f 19/35/50 18/15/20 24/23/31 23/36/51
s 5
f 22/37/49 21/38/52 69/121/53 68/40/54
f 21/142/52 28/41/55 70/42/56 69/39/53
f 28/41/55 27/43/57 39/44/58 38/45/59
s 4
f 27/43/60 26/24/33 40/46/61 39/44/62
s 5
f 30/47/63 29/48/64 85/113/65 84/50/66
f 29/140/64 36/34/45 86/51/67 85/49/65
s 10
f 32/52/68 31/53/69 43/54/70 42/55/71
s 5
f 31/53/72 30/47/63 44/56/73 43/54/74
s 2
f 34/33/43 33/57/75 47/58/76 46/6/7
s 10
f 33/57/77 32/52/68 48/59/78 47/58/79
s 5
f 38/45/59 37/60/80 77/117/81 76/62/82
f 37/138/80 44/56/73 78/63/83 77/61/81
s 10
f 42/55/71 41/64/84 55/166/85 54/66/86
s 4
f 41/165/87 40/46/61 56/19/25 55/65/88
s 1
f 50/4/4 49/67/89 53/130/90 52/20/27
s 10
f 49/135/91 48/59/78 54/66/86 53/68/92
s 12
f 58/69/93 57/128/94 90/71/95 89/72/96
s 13
f 57/128/97 64/162/98 91/74/99 90/71/100
s 5
f 60/28/38 59/75/101 87/76/102 86/51/67
s 12
f 59/75/103 58/163/93 88/155/104 87/76/105
s 13
f 64/73/98 63/78/106 67/79/107 66/161/108
s 5
f 63/78/109 62/30/40 68/40/54 67/79/110
s 13
f 66/80/108 65/123/111 93/160/112 92/83/113
s 14
f 65/124/114 72/159/115 94/85/116 93/82/117
f 72/84/115 71/86/118 75/87/119 74/158/120
s 5
f 71/86/121 70/42/56 76/62/82 75/87/122
s 14
f 74/88/120 73/119/123 96/90/124 95/91/125
s 16
f 73/119/126 80/157/127 97/93/128 96/90/129
f 80/92/127 79/94/130 83/95/131 82/156/132
s 5
f 79/94/133 78/63/83 84/50/66 83/95/134
s 16
f 82/96/132 81/115/135 99/98/136 98/99/137
s 12
f 81/115/138 88/77/104 100/100/139 99/98/140
s 3
f 4/7/9 10/10/12 24/23/31 18/15/20
s 10
f 32/52/68 42/55/71 54/66/86 48/59/78
s 1
f 50/4/4 52/20/27 12/11/14 2/1/1
s 4
f 8/16/22 56/19/25 40/46/61 26/24/33
s 2
f 46/6/7 6/5/6 16/14/18 34/33/43
s 5
f 20/29/39 22/37/49 68/40/54 62/30/40
f 28/41/55 38/45/59 76/62/82 70/42/56
f 44/56/73 30/47/63 84/50/66 78/63/83
f 36/34/45 14/25/35 60/28/38 86/51/67
s 13
f 64/162/98 66/80/108 92/83/113 91/74/99
s 14
f 72/159/115 74/88/120 95/91/125 94/85/116
s 16
f 80/157/127 82/96/132 98/99/137 97/93/128
s 12
f 88/77/104 58/69/93 89/72/96 100/100/139
s 2
f 5/12/16 6/5/6 1/154/5 101/151/141
s 1
f 1/2/2 2/1/1 3/150/13 101/101/142
s 3
f 3/8/10 4/7/9 5/153/19 101/152/143
s 1
f 11/9/15 12/11/14 7/149/26 102/146/144
s 4
f 7/17/23 8/16/22 9/21/32 102/102/145
s 3
f 9/21/29 10/10/12 11/148/11 102/147/146
s 5
f 19/35/47 20/29/39 13/145/36 103/144/147
f 13/26/36 14/25/35 15/31/44 103/103/147
s 2
f 15/31/41 16/14/18 17/143/148 103/103/149
s 3
f 17/13/150 18/15/20 19/35/50 103/144/151
s 5
f 27/43/57 28/41/55 21/142/52 104/141/152
f 21/38/52 22/37/49 23/36/48 104/104/152
s 3
f 23/36/51 24/23/31 25/22/30 104/104/153
s 4
f 25/22/154 26/24/33 27/43/60 104/141/155
s 5
f 35/32/46 36/34/45 29/140/64 105/139/156
f 29/48/64 30/47/63 31/53/72 105/105/156
s 10
f 31/53/69 32/52/68 33/57/157 105/105/158
s 2
f 33/57/159 34/33/43 35/32/42 105/139/160
s 5
f 43/54/74 44/56/73 37/138/80 106/137/161
f 37/60/80 38/45/59 39/44/58 106/106/161
s 4
f 39/44/62 40/46/61 41/165/162 106/106/163
s 10
f 41/64/164 42/55/71 43/54/70 106/137/165
s 1
f 49/67/89 50/4/4 45/136/3 107/133/166
s 2
f 45/3/8 46/6/7 47/58/76 107/107/167
s 10
f 47/58/79 48/59/78 49/135/91 107/134/168
s 4
f 55/65/88 56/19/25 51/132/24 108/131/169
s 1
f 51/18/28 52/20/27 53/130/90 108/108/170
s 10
f 53/68/92 54/66/86 55/166/85 108/164/171
s 13
f 63/78/106 64/73/98 57/129/97 109/127/172
s 12
f 57/70/94 58/163/93 59/75/103 109/109/173
s 5
f 59/75/101 60/28/38 61/126/37 109/109/174
f 61/27/37 62/30/40 63/78/109 109/127/174
s 14
f 71/86/118 72/84/115 65/125/175 110/122/176
s 13
f 65/81/177 66/161/108 67/79/107 110/110/178
s 5
f 67/79/110 68/40/54 69/121/53 110/110/179
f 69/39/53 70/42/56 71/86/121 110/122/179
s 16
f 79/94/130 80/92/127 73/120/126 111/118/180
s 14
f 73/89/123 74/158/120 75/87/119 111/111/181
s 5
f 75/87/122 76/62/82 77/117/81 111/111/182
f 77/61/81 78/63/83 79/94/133 111/118/182
s 12
f 87/76/105 88/155/104 81/116/138 112/114/183
s 16
f 81/97/135 82/156/132 83/95/131 112/112/184
s 5
f 83/95/134 84/50/66 85/113/65 112/112/185
f 85/49/65 86/51/67 87/76/102 112/114/185
