# This file uses centimeters as units for non-parametric coordinates.

mtllib Pot + tanah.mtl
g default
v 2.581623 0.847063 8.932800
v 2.305143 0.847063 8.818278
v 2.028663 0.847063 8.932800
v 1.914141 0.847063 9.209280
v 2.028663 0.847063 9.485759
v 2.305143 0.847063 9.600281
v 2.581623 0.847063 9.485759
v 2.696145 0.847063 9.209280
v 2.443383 0.847063 9.071039
v 2.305143 0.847063 9.013779
v 2.166903 0.847063 9.071039
v 2.109642 0.847063 9.209280
v 2.166903 0.847063 9.347520
v 2.305143 0.847063 9.404781
v 2.443383 0.847063 9.347520
v 2.500644 0.847063 9.209280
v 2.305143 0.847063 9.209280
vt 0.468984 0.961254
vt 0.368516 0.961254
vt 0.393633 0.900616
vt 0.443867 0.900616
vt 0.297474 0.890212
vt 0.358112 0.865095
vt 0.297474 0.789744
vt 0.358112 0.814861
vt 0.368516 0.718702
vt 0.393633 0.779340
vt 0.468984 0.718702
vt 0.443867 0.779340
vt 0.540026 0.789744
vt 0.479388 0.814861
vt 0.540026 0.890212
vt 0.479388 0.865095
vt 0.418750 0.839978
vn 0.000000 1.000000 0.000000
vn 0.000000 1.000000 0.000000
vn 0.000000 1.000000 0.000000
vn 0.000000 1.000000 0.000000
vn 0.000000 1.000000 0.000000
vn 0.000000 1.000000 0.000000
vn 0.000000 1.000000 0.000000
vn 0.000000 1.000000 0.000000
vn 0.000000 1.000000 0.000000
vn 0.000000 1.000000 0.000000
vn 0.000000 1.000000 0.000000
vn 0.000000 1.000000 0.000000
vn 0.000000 1.000000 0.000000
vn 0.000000 1.000000 0.000000
vn 0.000000 1.000000 0.000000
vn 0.000000 1.000000 0.000000
vn 0.000000 1.000000 0.000000
s 1
g pCylinder8
usemtl lambert45SG
f 1/1/1 2/2/2 10/3/3 9/4/4
f 2/2/2 3/5/5 11/6/6 10/3/3
f 3/5/5 4/7/7 12/8/8 11/6/6
f 4/7/7 5/9/9 13/10/10 12/8/8
f 5/9/9 6/11/11 14/12/12 13/10/10
f 6/11/11 7/13/13 15/14/14 14/12/12
f 7/13/13 8/15/15 16/16/16 15/14/14
f 8/15/15 1/1/1 9/4/4 16/16/16
f 9/4/4 10/3/3 17/17/17
f 10/3/3 11/6/6 17/17/17
f 11/6/6 12/8/8 17/17/17
f 12/8/8 13/10/10 17/17/17
f 13/10/10 14/12/12 17/17/17
f 14/12/12 15/14/14 17/17/17
f 15/14/14 16/16/16 17/17/17
f 16/16/16 9/4/4 17/17/17
g default
v 2.307729 -0.013832 9.211712
v 2.536861 0.316111 8.982580
v 2.307729 0.316111 8.887671
v 2.078598 0.316111 8.982580
v 1.983688 0.316111 9.211712
v 2.078598 0.316111 9.440844
v 2.307729 0.316111 9.535753
v 2.536861 0.316111 9.440844
v 2.631770 0.316111 9.211712
v 2.565518 0.002430 8.953925
v 2.560993 -0.009176 8.958449
v 2.551683 -0.013832 8.967758
v 2.307729 0.002430 8.847145
v 2.307729 -0.009176 8.853544
v 2.307729 -0.013832 8.866710
v 2.049941 0.002430 8.953925
v 2.054466 -0.009176 8.958449
v 2.063776 -0.013832 8.967758
v 1.943161 0.002430 9.211712
v 1.949560 -0.009176 9.211712
v 1.962727 -0.013832 9.211712
v 2.049941 0.002430 9.469500
v 2.054466 -0.009176 9.464977
v 2.063776 -0.013832 9.455666
v 2.307729 0.002430 9.576280
v 2.307729 -0.009176 9.569880
v 2.307729 -0.013832 9.556714
v 2.565518 0.002430 9.469500
v 2.560993 -0.009176 9.464977
v 2.551683 -0.013832 9.455666
v 2.672297 0.002430 9.211712
v 2.665898 -0.009176 9.211712
v 2.652731 -0.013832 9.211712
v 2.639792 0.918224 8.879649
v 2.636641 0.930873 8.882801
v 2.627345 0.936300 8.892097
v 2.307729 0.918224 8.742105
v 2.307729 0.930873 8.746562
v 2.307729 0.936300 8.759708
v 1.975668 0.918224 8.879649
v 1.978818 0.930873 8.882801
v 1.988114 0.936300 8.892097
v 1.838122 0.918224 9.211712
v 1.842578 0.930873 9.211712
v 1.855724 0.936300 9.211712
v 1.975668 0.918224 9.543777
v 1.978818 0.930873 9.540624
v 1.988114 0.936300 9.531329
v 2.307729 0.918223 9.681319
v 2.307729 0.930873 9.676865
v 2.307729 0.936300 9.663716
v 2.639792 0.918223 9.543777
v 2.636641 0.930873 9.540624
v 2.627345 0.936300 9.531329
v 2.777336 0.918224 9.211712
v 2.772880 0.930873 9.211712
v 2.759734 0.936300 9.211712
v 2.598135 0.936300 8.921307
v 2.588825 0.931633 8.930615
v 2.584321 0.920009 8.935120
v 2.307729 0.936300 8.801018
v 2.307729 0.931633 8.814181
v 2.307729 0.920009 8.820553
v 2.017323 0.936300 8.921307
v 2.026634 0.931633 8.930615
v 2.031138 0.920009 8.935120
v 1.897033 0.936300 9.211712
v 1.910200 0.931633 9.211712
v 1.916570 0.920009 9.211712
v 2.017323 0.936300 9.502120
v 2.026633 0.931633 9.492808
v 2.031138 0.920009 9.488304
v 2.307729 0.936300 9.622409
v 2.307729 0.931633 9.609240
v 2.307729 0.920009 9.602873
v 2.598135 0.936300 9.502120
v 2.588825 0.931633 9.492808
v 2.584321 0.920009 9.488304
v 2.718426 0.936300 9.211712
v 2.705259 0.931633 9.211712
v 2.698889 0.920009 9.211712
vt 0.514287 0.507372
vt 0.424744 0.513604
vt 0.335060 0.509941
vt 0.246324 0.496426
vt 0.159615 0.473226
vt 0.771267 0.430656
vt 0.688608 0.465645
vt 0.602599 0.491321
vt 0.404073 0.232198
vt 0.492532 0.226758
vt 0.542588 0.471818
vt 0.397384 0.483125
vt 0.577317 0.200227
vt 0.680916 0.427040
vt 0.654404 0.153692
vt 0.803861 0.351994
vt 0.720239 0.087985
vt 0.904490 0.253482
vt 0.161881 0.115245
vt 0.981112 0.144448
vt 0.233613 0.177527
vt 0.121940 0.407603
vt 0.316276 0.215943
vt 0.254267 0.460724
vt 0.182959 0.715438
vt 0.254645 0.778636
vt 0.142515 0.833568
vt 0.087583 0.721439
vt 0.024385 0.793124
vt 0.030386 0.888501
vt 0.102072 0.951699
vt 0.197448 0.945698
vt 0.260646 0.874012
vt 0.401212 0.491400
vt 0.548265 0.478975
vt 0.534912 0.494824
vt 0.384571 0.503761
vt 0.688074 0.432702
vt 0.678917 0.451144
vt 0.811991 0.356007
vt 0.807682 0.375794
vt 0.912938 0.256271
vt 0.913770 0.275635
vt 0.004918 0.339760
vt 0.994624 0.164182
vt 0.121515 0.416609
vt 0.102050 0.421293
vt 0.256010 0.469633
vt 0.237242 0.478028
vt 0.535250 0.674689
vt 0.427161 0.682212
vt 0.318900 0.677789
vt 0.211785 0.661476
vt 0.107116 0.633470
vt 0.845458 0.582083
vt 0.745678 0.624319
vt 0.641854 0.655313
vt 0.404379 0.228297
vt 0.491890 0.222898
vt 0.575767 0.196636
vt 0.652004 0.150615
vt 0.717045 0.085775
vt 0.165404 0.113085
vt 0.235945 0.174413
vt 0.317562 0.212253
vt 0.398586 0.486891
vt 0.252110 0.463977
vt 0.544647 0.475202
vt 0.683696 0.429860
vt 0.807157 0.354158
vt 0.908011 0.255138
vt 0.005852 0.334761
vt 0.121272 0.411465
vt 0.411655 0.509216
vt 0.233660 0.481568
vt 0.562626 0.493858
vt 0.705448 0.443875
vt 0.831205 0.363200
vt 0.932619 0.260519
vt 0.001380 0.359677
vt 0.122576 0.437019
vt 0.000000 0.363422
vt 1.000000 0.171319
vt 0.006166 0.594111
vt 0.075988 0.440620
vt 0.114938 0.413161
vt 0.122407 0.431970
vt 0.986616 0.151394
vt 0.002333 0.354757
vt 0.908466 0.261422
vt 0.927752 0.259406
vt 0.805854 0.360673
vt 0.826489 0.361345
vt 0.680767 0.435972
vt 0.701214 0.441040
vt 0.770082 0.001149
vt 0.007374 0.331178
vt 0.097863 0.424056
vt 0.262314 0.493336
vt 0.122042 0.440988
vt 0.094926 0.426764
vt 0.997336 0.168359
vt 0.915631 0.280274
vt 0.936323 0.262001
vt 0.917709 0.283671
vt 0.808420 0.380751
vt 0.834652 0.365259
vt 0.809671 0.384534
vt 0.678450 0.456147
vt 0.708373 0.446637
vt 0.678771 0.460123
vt 0.564829 0.497226
vt 0.412999 0.513005
vt 0.119206 0.410383
vt 0.983869 0.147172
vt 0.906641 0.256698
vt 0.805199 0.355627
vt 0.681344 0.430896
vt 0.238738 0.170678
vt 0.319085 0.207845
vt 0.760879 0.000000
vt 0.170139 0.111052
vt 0.766028 0.000305
vt 0.713211 0.083152
vt 0.649123 0.146959
vt 0.573902 0.192364
vt 0.491109 0.218300
vt 0.404730 0.223646
vt 0.248411 0.467528
vt 0.260546 0.484450
vt 0.409167 0.504771
vt 0.393161 0.491047
vt 0.540318 0.480485
vt 0.559158 0.490120
vt 0.231326 0.484815
vt 0.533271 0.499582
vt 0.532638 0.503525
vt 0.381865 0.508013
vt 0.380325 0.511701
vt 0.261906 0.489342
vt 0.542087 0.475676
vt 0.395998 0.486769
vt 0.254537 0.464654
vn 0.380405 -0.108942 -0.918381
vn 0.380405 -0.108942 -0.918381
vn 0.380790 -0.099343 -0.919309
vn 0.380790 -0.099343 -0.919310
vn -0.380406 -0.108942 -0.918381
vn -0.380406 -0.108942 -0.918381
vn -0.380790 -0.099343 -0.919309
vn -0.380790 -0.099343 -0.919309
vn -0.918380 -0.108941 -0.380407
vn -0.918380 -0.108941 -0.380407
vn -0.919309 -0.099343 -0.380792
vn -0.919309 -0.099343 -0.380792
vn -0.918381 -0.108941 0.380405
vn -0.918381 -0.108942 0.380405
vn -0.919310 -0.099344 0.380790
vn -0.919310 -0.099343 0.380790
vn -0.380403 -0.108942 0.918382
vn -0.380403 -0.108942 0.918382
vn -0.380788 -0.099344 0.919310
vn -0.380788 -0.099344 0.919310
vn 0.380403 -0.108943 0.918382
vn 0.380403 -0.108942 0.918382
vn 0.380787 -0.099344 0.919311
vn 0.380787 -0.099344 0.919311
vn 0.918381 -0.108942 0.380404
vn 0.918381 -0.108941 0.380404
vn 0.919310 -0.099343 0.380789
vn 0.919310 -0.099344 0.380789
vn 0.918381 -0.108941 -0.380406
vn 0.918381 -0.108941 -0.380406
vn 0.919309 -0.099344 -0.380791
vn 0.919309 -0.099343 -0.380791
vn 0.000000 -0.999188 -0.040287
vn 0.028487 -0.999188 -0.028488
vn 0.000000 -1.000000 -0.000000
vn -0.028487 -0.999188 -0.028488
vn -0.040287 -0.999188 -0.000000
vn -0.028487 -0.999188 0.028487
vn -0.000000 -0.999188 0.040287
vn 0.028487 -0.999188 0.028487
vn 0.040287 -0.999188 0.000000
vn 0.103466 0.989237 -0.103464
vn -0.000000 0.989237 -0.146321
vn 0.000000 0.998523 0.054335
vn -0.038421 0.998523 0.038419
vn -0.103466 0.989237 -0.103465
vn 0.038422 0.998523 0.038420
vn -0.146325 0.989237 -0.000000
vn 0.054334 0.998523 -0.000000
vn -0.103466 0.989237 0.103469
vn 0.038419 0.998523 -0.038421
vn -0.000000 0.989237 0.146323
vn -0.000000 0.998523 -0.054334
vn 0.103465 0.989237 0.103468
vn -0.038419 0.998523 -0.038420
vn 0.146323 0.989237 -0.000000
vn -0.054334 0.998523 -0.000000
vn -0.380281 0.111878 0.918079
vn -0.380281 0.111879 0.918079
vn -0.380681 0.102144 0.919047
vn -0.380682 0.102144 0.919047
vn 0.380281 0.111878 0.918079
vn 0.380281 0.111878 0.918079
vn 0.380682 0.102144 0.919047
vn 0.380682 0.102144 0.919047
vn 0.918080 0.111878 0.380280
vn 0.918080 0.111877 0.380280
vn 0.919048 0.102144 0.380681
vn 0.919048 0.102144 0.380681
vn 0.918080 0.111877 -0.380280
vn 0.918080 0.111877 -0.380279
vn 0.919048 0.102145 -0.380680
vn 0.919048 0.102145 -0.380680
vn 0.380282 0.111875 -0.918079
vn 0.380282 0.111875 -0.918079
vn 0.380683 0.102146 -0.919047
vn 0.380683 0.102146 -0.919047
vn -0.380282 0.111875 -0.918079
vn -0.380282 0.111875 -0.918079
vn -0.380683 0.102146 -0.919047
vn -0.380683 0.102146 -0.919047
vn -0.918080 0.111877 -0.380280
vn -0.918080 0.111877 -0.380280
vn -0.919047 0.102144 -0.380681
vn -0.919047 0.102144 -0.380681
vn -0.918079 0.111878 0.380281
vn -0.918079 0.111878 0.380281
vn -0.919047 0.102144 0.380682
vn -0.919047 0.102144 0.380682
vn 0.340996 -0.453874 -0.823237
vn 0.340996 -0.453874 -0.823237
vn 0.235750 -0.942788 -0.235740
vn 0.000000 -0.942784 -0.333405
vn -0.340997 -0.453877 -0.823236
vn -0.340997 -0.453877 -0.823236
vn -0.235750 -0.942788 -0.235740
vn -0.823235 -0.453879 -0.340996
vn -0.823235 -0.453879 -0.340996
vn -0.333376 -0.942794 0.000000
vn -0.823246 -0.453856 0.340998
vn -0.823246 -0.453857 0.340998
vn -0.235720 -0.942797 0.235733
vn -0.341006 -0.453819 0.823264
vn -0.341006 -0.453819 0.823264
vn 0.000000 -0.942797 0.333367
vn 0.341005 -0.453816 0.823266
vn 0.341005 -0.453816 0.823266
vn 0.235720 -0.942797 0.235733
vn 0.823247 -0.453853 0.341000
vn 0.823247 -0.453853 0.341000
vn 0.333377 -0.942794 0.000000
vn 0.823236 -0.453876 -0.340998
vn 0.823236 -0.453876 -0.340998
vn 0.878525 0.309472 -0.363896
vn 0.878525 0.309473 -0.363897
vn 0.269804 0.924342 -0.269811
vn 0.381574 0.924338 0.000000
vn 0.000000 0.924343 -0.381562
vn 0.363889 0.309520 -0.878511
vn 0.363889 0.309520 -0.878511
vn -0.269805 0.924341 -0.269814
vn -0.363889 0.309522 -0.878510
vn -0.363889 0.309522 -0.878510
vn -0.381578 0.924337 0.000000
vn -0.878520 0.309487 -0.363896
vn -0.878520 0.309487 -0.363896
vn -0.269819 0.924339 0.269808
vn -0.878513 0.309514 0.363891
vn -0.878513 0.309514 0.363891
vn 0.000000 0.924343 0.381562
vn -0.363889 0.309522 0.878511
vn -0.363889 0.309522 0.878511
vn 0.269817 0.924340 0.269804
vn 0.363889 0.309520 0.878511
vn 0.363889 0.309520 0.878511
vn 0.878518 0.309496 0.363892
vn 0.878518 0.309496 0.363892
vn -0.236262 0.942527 0.236269
vn -0.334104 0.942536 -0.000000
vn -0.824245 0.451726 0.341413
vn -0.824245 0.451726 0.341413
vn -0.341408 0.451759 0.824230
vn -0.341408 0.451759 0.824230
vn 0.000000 0.942520 0.334150
vn 0.341408 0.451759 0.824230
vn 0.341408 0.451759 0.824230
vn 0.236261 0.942528 0.236268
vn 0.824246 0.451726 0.341412
vn 0.824246 0.451726 0.341412
vn 0.334100 0.942538 -0.000000
vn 0.824250 0.451718 -0.341413
vn 0.824250 0.451718 -0.341413
vn 0.236233 0.942545 -0.236225
vn 0.341433 0.451622 -0.824294
vn 0.341433 0.451622 -0.824294
vn -0.000000 0.942550 -0.334064
vn -0.341433 0.451622 -0.824294
vn -0.341433 0.451622 -0.824294
vn -0.236234 0.942545 -0.236227
vn -0.824250 0.451716 -0.341415
vn -0.824250 0.451716 -0.341415
s 1
g pCylinder1
usemtl lambert44SG
f 27/26/18 30/27/19 54/28/20 51/29/21
s 2
f 30/27/22 33/30/23 57/31/24 54/28/25
s 3
f 33/30/26 36/32/27 60/33/28 57/31/29
s 4
f 36/32/30 39/34/31 63/35/32 60/33/33
s 5
f 39/34/34 42/113/35 66/37/36 63/35/37
s 6
f 42/36/38 45/38/39 69/39/40 66/114/41
s 7
f 45/38/42 48/40/43 72/41/44 69/39/45
s 8
f 48/40/46 27/26/47 51/29/48 72/41/49
s 9
f 32/42/50 29/43/51 18/44/52
f 35/45/53 32/42/50 18/44/52
f 38/46/54 35/45/53 18/44/52
f 41/47/55 38/46/54 18/44/52
f 44/48/56 41/47/55 18/44/52
f 47/49/57 44/48/56 18/44/52
f 50/50/58 47/49/57 18/44/52
f 29/43/51 50/50/58 18/44/52
s 10
f 53/51/59 56/150/60 78/53/61 75/148/62
f 56/52/60 59/111/63 81/56/64 78/151/61
f 59/55/63 62/109/65 84/58/66 81/112/64
f 62/57/65 65/107/67 87/60/68 84/110/66
f 65/59/67 68/105/69 90/62/70 87/108/68
f 68/61/69 71/103/71 93/64/72 90/106/70
f 71/63/71 74/146/73 96/66/74 93/104/72
f 74/65/73 53/149/59 75/54/62 96/147/74
s 11
f 77/67/75 80/68/76 20/19/77 19/18/78
s 12
f 80/68/79 83/69/80 21/20/81 20/19/82
s 13
f 83/69/83 86/70/84 22/21/85 21/20/86
s 14
f 86/70/87 89/71/88 23/22/89 22/21/90
s 15
f 89/71/91 92/101/92 24/102/93 23/22/94
s 16
f 92/72/95 95/73/96 25/24/97 24/23/98
s 17
f 95/73/99 98/74/100 26/25/101 25/24/102
s 18
f 98/74/103 77/67/104 19/18/105 26/25/106
s 1
f 27/26/18 28/75/107 31/76/108 30/27/19
s 9
f 28/75/109 29/145/51 32/144/50 31/76/110
s 2
f 30/27/22 31/76/111 34/77/112 33/30/23
s 9
f 31/76/110 32/144/50 35/143/53 34/77/113
s 3
f 33/30/26 34/77/114 37/78/115 36/32/27
s 9
f 34/77/113 35/143/53 38/142/54 37/78/116
s 4
f 36/32/30 37/78/117 40/79/118 39/34/31
s 9
f 37/78/116 38/142/54 41/141/55 40/79/119
s 5
f 39/34/34 40/79/120 43/140/121 42/113/35
s 9
f 40/79/119 41/141/55 44/138/56 43/140/122
s 6
f 42/36/38 43/80/123 46/81/124 45/38/39
s 9
f 43/80/122 44/139/56 47/136/57 46/81/125
s 7
f 45/38/42 46/81/126 49/82/127 48/40/43
s 9
f 46/81/125 47/136/57 50/137/58 49/82/128
f 29/145/51 28/75/109 49/82/128 50/137/58
s 8
f 28/75/129 27/26/47 48/40/46 49/82/130
f 51/29/48 52/159/131 73/160/132 72/41/49
s 10
f 52/159/133 53/149/59 74/65/73 73/160/134
f 53/51/59 52/83/133 55/158/135 56/150/60
s 1
f 52/83/136 51/29/21 54/28/20 55/158/137
s 10
f 56/52/60 55/85/135 58/135/138 59/111/63
s 2
f 55/85/139 54/28/25 57/31/24 58/135/140
s 10
f 59/55/63 58/86/138 61/134/141 62/109/65
s 3
f 58/86/142 57/31/29 60/33/28 61/134/143
s 10
f 62/57/65 61/87/141 64/133/144 65/107/67
s 4
f 61/87/145 60/33/33 63/35/32 64/133/146
s 10
f 65/59/67 64/88/144 67/132/147 68/105/69
s 5
f 64/88/148 63/35/37 66/37/36 67/132/149
s 10
f 68/61/69 67/89/147 70/131/150 71/103/71
s 6
f 67/89/151 66/114/41 69/39/40 70/131/152
s 10
f 71/63/71 70/90/150 73/84/134 74/146/73
s 7
f 70/90/153 69/39/45 72/41/44 73/84/154
s 10
f 75/54/62 76/155/155 97/157/156 96/147/74
s 18
f 76/155/157 77/156/104 98/116/103 97/157/158
s 11
f 77/130/75 76/91/159 79/153/160 80/154/76
s 10
f 76/91/155 75/148/62 78/53/61 79/153/161
s 12
f 80/129/79 79/93/162 82/126/163 83/128/80
s 10
f 79/93/161 78/151/61 81/56/64 82/126/164
s 13
f 83/127/83 82/94/165 85/123/166 86/125/84
s 10
f 82/94/164 81/112/64 84/58/66 85/123/167
s 14
f 86/124/87 85/95/168 88/120/169 89/122/88
s 10
f 85/95/167 84/110/66 87/60/68 88/120/170
s 15
f 89/121/91 88/96/171 91/119/172 92/100/92
s 10
f 88/96/170 87/108/68 90/62/70 91/119/173
s 16
f 92/99/95 91/97/174 94/115/175 95/118/96
s 10
f 91/97/173 90/106/70 93/64/72 94/115/176
s 17
f 95/117/99 94/98/177 97/92/178 98/152/100
s 10
f 94/98/176 93/104/72 96/66/74 97/92/156
