# This file uses centimeters as units for non-parametric coordinates.

mtllib Tembok Keyroom_Update.mtl
g default
v -28.165622 -11.182991 20.711244
v 25.401272 -11.182991 20.711244
v -28.165622 13.865541 20.711244
v 25.401272 13.865541 20.711244
v -28.165622 13.865541 -10.545892
v 25.401272 13.865541 -10.545892
v -28.165622 -11.182991 -10.545892
v 25.401272 -11.182991 -10.545892
v -28.165622 12.022419 20.711244
v -28.165622 12.022410 -10.545892
v 25.401272 12.022410 -10.545892
v 25.401272 12.022419 20.711244
v -28.165622 8.529426 20.711244
v -28.165622 8.529417 -10.545892
v 25.401272 8.529417 -10.545892
v 25.401272 8.529426 20.711244
v 13.356752 -11.182991 20.711244
v 13.356752 -11.182991 -10.545892
v 13.356752 8.529417 -10.545892
v 13.356752 12.022409 -10.545892
v 13.356752 13.865541 -10.545892
v -9.708109 -11.182991 20.711244
v -9.708109 -11.182991 -10.545892
v -9.708109 8.529417 -10.545892
v -9.708109 12.022409 -10.545892
v -9.708109 13.865541 -10.545892
v -28.165625 13.865541 8.459104
v -28.165625 12.022415 8.459104
v -28.165625 8.529423 8.459104
v -28.165622 -11.182991 8.459104
v -9.708109 -11.182991 8.459104
v 13.356752 -11.182991 8.459104
v 25.401272 -11.182991 8.459104
v 25.401272 8.529423 8.459104
v 25.401272 12.022415 8.459104
v 25.401272 13.865541 8.459104
v 25.401272 13.865541 -0.062261
v 25.401272 12.022413 -0.062261
v 25.401272 8.529420 -0.062261
v 25.401272 -11.182991 -0.062261
v 13.356752 -11.182991 -0.062261
v -9.708109 -11.182991 -0.062261
v -28.165622 -11.182991 -0.062261
v -28.165625 8.529420 -0.062261
v -28.165625 12.022413 -0.062261
v -28.165625 13.865541 -0.062261
v -28.165622 5.114525 20.711244
v -28.165625 5.114523 8.459104
v -28.165625 5.114520 -0.062261
v -28.165622 5.114518 -10.545892
v -9.708109 5.114518 -10.545892
v 13.356752 5.114518 -10.545892
v 25.401272 5.114518 -10.545892
v 25.401272 5.114521 -0.062261
v 25.401272 5.114523 8.459104
v 25.401272 5.114525 20.711244
vt 0.375000 0.250000
vt 0.375000 0.500000
vt 0.452226 0.500000
vt 0.375000 0.518396
vt 0.452226 0.518396
vt 0.375000 0.750000
vt 0.375000 1.000000
vt 0.452226 1.000000
vt 0.452226 0.750000
vt 0.875000 0.231604
vt 0.625000 0.231605
vt 0.625000 0.250000
vt 0.875000 0.250000
vt 0.375000 0.231605
vt 0.125000 0.231604
vt 0.125000 0.250000
vt 0.375000 0.196742
vt 0.125000 0.196742
vt 0.452226 0.553258
vt 0.375000 0.553258
vt 0.875000 0.196742
vt 0.625000 0.196742
vt 0.125000 0.000000
vt 0.375000 0.000000
vt 0.625000 0.000000
vt 0.875000 0.000000
vt 0.565729 0.750000
vt 0.565729 1.000000
vt 0.625000 1.000000
vt 0.625000 0.750000
vt 0.625000 0.553258
vt 0.565729 0.553258
vt 0.625000 0.518396
vt 0.565729 0.518396
vt 0.565729 0.500000
vt 0.625000 0.500000
vt 0.277005 0.250000
vt 0.277005 0.231604
vt 0.277005 0.196742
vt 0.375000 0.902005
vt 0.277005 0.000000
vt 0.452226 0.902005
vt 0.565729 0.902005
vt 0.722995 0.000000
vt 0.625000 0.902005
vt 0.722995 0.196742
vt 0.722995 0.231604
vt 0.722995 0.250000
vt 0.791150 0.250000
vt 0.791150 0.231604
vt 0.791150 0.196742
vt 0.791150 0.000000
vt 0.625000 0.833850
vt 0.565729 0.833850
vt 0.452226 0.833850
vt 0.375000 0.833850
vt 0.208850 0.000000
vt 0.208850 0.196742
vt 0.208850 0.231604
vt 0.208850 0.250000
vt 0.375000 0.162659
vt 0.277005 0.162659
vt 0.208850 0.162659
vt 0.375000 0.587341
vt 0.125000 0.162659
vt 0.452226 0.587341
vt 0.565729 0.587341
vt 0.875000 0.162659
vt 0.625000 0.587341
vt 0.791150 0.162659
vt 0.722995 0.162659
vt 0.625000 0.162659
vn 0.000000 0.000000 1.000000
vn 0.000000 0.000000 1.000000
vn 0.000000 0.000000 1.000000
vn 0.000000 0.000000 1.000000
vn 0.000000 1.000000 0.000000
vn 0.000000 1.000000 0.000000
vn 0.000000 1.000000 0.000000
vn 0.000000 1.000000 0.000000
vn -1.000000 0.000000 0.000000
vn -1.000000 0.000000 0.000000
vn -1.000000 0.000000 0.000000
vn -1.000000 0.000001 0.000000
vn 1.000000 0.000000 -0.000000
vn 1.000000 0.000000 -0.000000
vn 1.000000 0.000000 0.000000
vn 1.000000 0.000000 0.000000
vn 1.000000 0.000000 -0.000000
vn 1.000000 0.000000 0.000000
vn 0.000000 0.000000 1.000000
vn 0.000000 0.000000 1.000000
vn -1.000000 0.000000 0.000000
vn -1.000000 0.000000 0.000000
vn 1.000000 0.000000 -0.000000
vn 1.000000 0.000000 0.000000
vn 0.000000 0.000000 1.000000
vn 0.000000 0.000000 1.000000
vn -1.000000 0.000000 0.000000
vn -1.000000 0.000000 0.000000
vn 0.000000 1.000000 0.000000
vn 0.000000 1.000000 0.000000
vn 0.000000 1.000000 0.000000
vn 0.000000 1.000000 0.000000
vn 0.000000 0.000000 1.000000
vn 0.000000 0.000000 1.000000
vn 0.000000 0.000000 1.000000
vn 0.000000 0.000000 1.000000
vn 0.000000 0.000000 1.000000
vn 0.000000 0.000000 1.000000
vn 0.000000 0.000000 1.000000
vn 0.000000 0.000000 1.000000
vn 1.000000 0.000000 -0.000000
vn 1.000000 0.000000 -0.000000
vn 1.000000 0.000000 -0.000000
vn 1.000000 0.000000 -0.000000
vn 0.000000 1.000000 0.000000
vn 0.000000 1.000000 0.000000
vn 0.000000 1.000000 0.000000
vn 0.000000 1.000000 0.000000
vn -1.000000 0.000000 0.000000
vn -1.000000 0.000000 0.000000
vn -1.000000 0.000000 0.000000
vn -1.000000 0.000001 0.000000
vn -1.000000 0.000000 0.000000
vn -1.000000 0.000000 0.000000
vn -1.000000 0.000000 0.000000
vn -1.000000 0.000000 0.000000
vn 0.000000 1.000000 0.000000
vn 0.000000 1.000000 0.000000
vn 0.000000 1.000000 0.000000
vn 0.000000 1.000000 0.000000
vn 1.000000 0.000000 0.000000
vn 1.000000 0.000000 0.000000
vn 1.000000 0.000000 0.000000
vn 1.000000 0.000000 0.000000
vn 1.000000 0.000000 -0.000000
vn 1.000000 0.000000 -0.000000
vn 1.000000 0.000000 0.000000
vn 1.000000 0.000000 0.000000
vn 0.000000 0.000000 1.000000
vn 0.000000 0.000000 1.000000
vn 0.000000 0.000000 1.000000
vn 0.000000 0.000000 1.000000
vn -1.000000 0.000000 0.000000
vn -1.000000 0.000000 0.000000
vn -1.000000 0.000000 0.000000
vn -1.000000 0.000000 0.000000
s 1
g polySurface1 pCube9
usemtl aiToon2SG
f 5/2/1 10/4/2 25/5/3 26/3/4
s 2
f 42/55/5 43/56/6 30/40/7 31/42/8
s 3
f 37/49/9 38/50/10 35/47/11 36/48/12
s 4
f 27/37/13 28/38/14 45/59/15 46/60/16
f 28/38/14 29/39/17 44/58/18 45/59/15
s 1
f 24/19/19 25/5/3 10/4/2 14/20/20
s 3
f 38/50/10 39/51/21 34/46/22 35/47/11
s 4
f 48/62/23 49/63/24 44/58/18 29/39/17
s 1
f 50/64/25 51/66/26 24/19/19 14/20/20
s 3
f 54/70/27 55/71/28 34/46/22 39/51/21
s 2
f 40/53/29 41/54/30 32/43/31 33/45/32
s 1
f 15/31/33 19/32/34 52/67/35 53/69/36
f 11/33/37 20/34/38 19/32/34 15/31/33
f 21/35/39 20/34/38 11/33/37 6/36/40
s 2
f 41/54/30 42/55/5 31/42/8 32/43/31
s 1
f 51/66/26 52/67/35 19/32/34 24/19/19
f 26/3/4 25/5/3 20/34/38 21/35/39
s 4
f 9/14/41 28/38/14 27/37/13 3/1/42
f 13/17/43 29/39/17 28/38/14 9/14/41
f 47/61/44 48/62/23 29/39/17 13/17/43
s 2
f 31/42/8 30/40/7 1/7/45 22/8/46
f 32/43/31 31/42/8 22/8/46 17/28/47
f 33/45/32 32/43/31 17/28/47 2/29/48
s 3
f 55/71/28 56/72/49 16/22/50 34/46/22
f 35/47/11 34/46/22 16/22/50 12/11/51
f 36/48/12 35/47/11 12/11/51 4/12/52
f 11/10/53 38/50/10 37/49/9 6/13/54
f 15/21/55 39/51/21 38/50/10 11/10/53
f 53/68/56 54/70/27 39/51/21 15/21/55
s 2
f 18/27/57 41/54/30 40/53/29 8/30/58
f 23/9/59 42/55/5 41/54/30 18/27/57
f 7/6/60 43/56/6 42/55/5 23/9/59
s 4
f 49/63/24 50/65/61 14/18/62 44/58/18
f 45/59/15 44/58/18 14/18/62 10/15/63
f 46/60/16 45/59/15 10/15/63 5/16/64
f 30/41/65 48/62/23 47/61/44 1/24/66
f 7/23/67 50/65/61 49/63/24 43/57/68
s 1
f 23/9/69 51/66/26 50/64/25 7/6/70
f 18/27/71 52/67/35 51/66/26 23/9/69
f 53/69/36 52/67/35 18/27/71 8/30/72
s 3
f 40/52/73 54/70/27 53/68/56 8/26/74
f 33/44/75 55/71/28 54/70/27 40/52/73
f 2/25/76 56/72/49 55/71/28 33/44/75
