# This file uses centimeters as units for non-parametric coordinates.

mtllib CHALKBOARD.mtl
g default
v -11.218841 2.296739 4.604790
v -11.218837 2.292907 4.614044
v -11.228089 2.297034 4.616843
v -11.231924 2.306786 4.623957
v -11.231924 2.312942 4.617695
v -11.231924 2.327804 4.615099
v -11.228122 2.312558 4.604848
v -11.218843 2.305988 4.600956
v -11.218841 2.296739 7.426095
v -11.218843 2.305988 7.429928
v -11.228113 2.312340 7.426080
v -11.231924 2.327190 7.416034
v -11.231924 2.312946 7.413243
v -11.231924 2.307045 7.406500
v -11.228087 2.297085 7.413881
v -11.218837 2.292907 7.416841
v -11.218841 4.066774 7.426095
v -11.218837 4.070605 7.416841
v -11.228089 4.066479 7.414041
v -11.231924 4.056727 7.406929
v -11.231924 4.050571 7.413190
v -11.231924 4.035709 7.415785
v -11.228118 4.050972 7.426036
v -11.218843 4.057525 7.429928
v -11.218841 4.066775 4.604790
v -11.218843 4.057525 4.600956
v -11.228113 4.051173 4.604804
v -11.231924 4.036324 4.614850
v -11.231924 4.050568 4.617641
v -11.231924 4.056468 4.624385
v -11.228087 4.066428 4.617003
v -11.218837 4.070606 4.614044
v -11.218545 3.974371 4.675570
v -11.218644 3.978319 4.684960
v -11.228039 3.982347 4.681478
v -11.231924 3.992314 4.673422
v -11.231924 3.988785 4.662514
v -11.231924 3.980268 4.657995
v -11.227987 3.969208 4.667490
v -11.218445 3.964839 4.671680
v -11.218545 2.389144 4.675570
v -11.218445 2.398676 4.671680
v -11.227984 2.394287 4.667565
v -11.231924 2.383271 4.658167
v -11.231924 2.374686 4.662638
v -11.231924 2.371130 4.673431
v -11.228038 2.381136 4.681495
v -11.218644 2.385196 4.684960
v -11.218545 3.974371 7.355316
v -11.218445 3.964839 7.359205
v -11.227984 3.969228 7.363320
v -11.231924 3.980244 7.372719
v -11.231924 3.988829 7.368248
v -11.231924 3.992384 7.357454
v -11.228037 3.982378 7.349380
v -11.218644 3.978319 7.345926
v -11.218545 2.389144 7.355316
v -11.218644 2.385196 7.345927
v -11.228039 2.381168 7.349408
v -11.231924 2.371202 7.357462
v -11.231924 2.374730 7.368372
v -11.231924 2.383247 7.372890
v -11.227987 2.394306 7.363396
v -11.218445 2.398676 7.359205
v -11.150228 4.066451 4.617037
v -11.146319 4.056727 4.623957
v -11.146319 4.050571 4.617695
v -11.146319 4.035709 4.615099
v -11.150204 4.050753 4.604863
v -11.159677 4.057250 4.600956
v -11.159678 4.066693 4.604869
v -11.159679 4.070605 4.614316
v -11.150228 2.297062 4.617036
v -11.159679 2.292907 4.614316
v -11.159538 2.296738 4.604868
v -11.159403 2.305988 4.600956
v -11.150128 2.312357 4.604804
v -11.146319 2.327190 4.614850
v -11.146319 2.312762 4.617516
v -11.146319 2.306786 4.623956
v -11.150260 3.982332 4.681611
v -11.159776 3.978319 4.685137
v -11.159790 3.974371 4.675621
v -11.159802 3.964839 4.671679
v -11.150260 3.969223 4.667565
v -11.146319 3.980243 4.658166
v -11.146319 3.988779 4.662636
v -11.146319 3.992314 4.673422
v -11.150260 2.381183 4.681611
v -11.146319 2.371202 4.673422
v -11.146319 2.374730 4.662514
v -11.146319 2.383247 4.657994
v -11.150278 2.394361 4.667497
v -11.159876 2.398752 4.671679
v -11.159828 2.389166 4.675621
v -11.159776 2.385196 4.685137
v -11.150208 4.050951 7.426068
v -11.146319 4.036323 7.416034
v -11.146319 4.050568 7.413242
v -11.146319 4.056468 7.406500
v -11.150229 4.066400 7.413688
v -11.159679 4.070605 7.416568
v -11.159678 4.066693 7.426016
v -11.159677 4.057249 7.429929
v -11.150281 3.969163 7.363320
v -11.159876 3.964763 7.359205
v -11.159739 3.974349 7.355316
v -11.159602 3.978319 7.345926
v -11.150207 3.982345 7.349397
v -11.146319 3.992314 7.357462
v -11.146319 3.988778 7.368251
v -11.146319 3.980244 7.372719
v -11.150228 2.297063 7.413848
v -11.146319 2.306786 7.406929
v -11.146319 2.312942 7.413190
v -11.146319 2.327805 7.415785
v -11.150204 2.312761 7.426021
v -11.159677 2.306264 7.429928
v -11.159678 2.296819 7.426015
v -11.159679 2.292907 7.416568
v -11.150260 2.381183 7.349274
v -11.159776 2.385196 7.345749
v -11.159789 2.389144 7.355264
v -11.159802 2.398676 7.359205
v -11.150260 2.394292 7.363319
v -11.146319 2.383271 7.372719
v -11.146319 2.374737 7.368250
v -11.146319 2.371202 7.357462
v -11.228102 2.301489 4.608521
v -11.228098 2.301474 7.422366
v -11.228100 4.062029 7.422364
v -11.228098 4.062039 4.608520
v -11.228023 3.978435 4.671526
v -11.228020 2.385051 4.671583
v -11.228019 3.978463 7.359300
v -11.228023 2.385080 7.359360
v -11.150222 4.061953 4.608587
v -11.150185 2.301447 4.608536
v -11.150248 3.978433 4.671616
v -11.150259 2.385105 4.671566
v -11.150224 4.061960 7.422301
v -11.150237 3.978425 7.359303
v -11.150222 2.301560 7.422297
v -11.150248 2.385082 7.359270
vt 0.642967 0.014819
vt 0.634875 0.444304
vt 0.014256 0.149760
vt 0.638248 0.155911
vt 0.013633 0.425457
vt 0.015902 0.150080
vt 0.631354 0.413059
vt 0.632676 0.422344
vt 0.331161 0.416826
vt 0.332722 0.407599
vt 0.337699 0.008634
vt 0.017879 0.394329
vt 0.015319 0.394110
vt 0.628854 0.401813
vt 0.027227 0.389737
vt 0.627550 0.402040
vt 0.015110 0.403414
vt 0.314765 0.405673
vt 0.319082 0.011243
vt 0.312179 0.396526
vt 0.660731 0.551363
vt 0.661667 0.968061
vt 0.334149 0.148986
vt 0.660141 0.692182
vt 0.335374 0.148956
vt 0.656122 0.936900
vt 0.658763 0.946031
vt 0.359071 0.945514
vt 0.361789 0.936403
vt 0.358556 0.550860
vt 0.331756 0.406972
vt 0.648252 0.931834
vt 0.336897 0.396634
vt 0.646731 0.932227
vt 0.022676 0.978636
vt 0.014246 0.549028
vt 0.356786 0.691463
vt 0.021822 0.837396
vt 0.358466 0.691454
vt 0.018972 0.580113
vt 0.017292 0.570886
vt 0.318689 0.564826
vt 0.317485 0.574106
vt 0.328082 0.972795
vt 0.359228 0.936199
vt 0.021903 0.591254
vt 0.371110 0.931757
vt 0.023198 0.590976
vt 0.317538 0.427720
vt 0.325974 0.832492
vt 0.317613 0.151786
vt 0.324751 0.832569
vt 0.318475 0.574695
vt 0.304340 0.391415
vt 0.313738 0.585223
vt 0.302817 0.391798
vt 0.312777 0.617026
vt 0.314003 0.617257
vt 0.302345 0.220195
vt 0.315444 0.757283
vt 0.299716 0.359635
vt 0.300651 0.220192
vt 0.312957 0.594649
vt 0.024380 0.600356
vt 0.025482 0.622689
vt 0.300592 0.382360
vt 0.029575 0.380350
vt 0.030784 0.357690
vt 0.029089 0.357898
vt 0.630047 0.230621
vt 0.031891 0.218400
vt 0.626487 0.370260
vt 0.628815 0.230456
vt 0.626731 0.392624
vt 0.338040 0.387246
vt 0.339079 0.364894
vt 0.374476 0.899688
vt 0.372782 0.899906
vt 0.027136 0.762616
vt 0.374788 0.760366
vt 0.028366 0.762936
vt 0.373402 0.922356
vt 0.644450 0.922802
vt 0.643438 0.900084
vt 0.337863 0.364616
vt 0.645249 0.760656
vt 0.341803 0.224596
vt 0.643555 0.760666
vt 0.321778 0.800554
vt 0.323353 0.809991
vt 0.022487 0.815014
vt 0.023695 0.805597
vt 0.313488 0.183569
vt 0.316044 0.183790
vt 0.318939 0.789267
vt 0.304174 0.188148
vt 0.317638 0.789529
vt 0.316213 0.174294
vt 0.016919 0.172159
vt 0.019464 0.181304
vt 0.636744 0.178241
vt 0.335904 0.171585
vt 0.635163 0.187584
vt 0.337120 0.181083
vt 0.636103 0.188230
vt 0.027304 0.186427
vt 0.630989 0.198428
vt 0.028828 0.186045
vt 0.316492 0.779988
vt 0.028218 0.785236
vt 0.027433 0.794631
vt 0.301834 0.197534
vt 0.031046 0.195537
vt 0.629835 0.207907
vt 0.341620 0.201854
vt 0.340838 0.192270
vt 0.362175 0.723314
vt 0.359601 0.713996
vt 0.658866 0.714692
vt 0.656192 0.723981
vt 0.022705 0.805002
vt 0.370041 0.728409
vt 0.371565 0.728023
vt 0.373822 0.737511
vt 0.644613 0.738006
vt 0.646901 0.728609
vt 0.658748 0.724188
vt 0.339529 0.192482
vt 0.633843 0.422102
vt 0.660673 0.946000
vt 0.016135 0.571168
vt 0.316676 0.405653
vt 0.314224 0.594764
vt 0.027935 0.380313
vt 0.371762 0.922326
vt 0.336778 0.387082
vt 0.318181 0.174326
vt 0.014999 0.172071
vt 0.303467 0.197625
vt 0.029403 0.195590
vt 0.021291 0.814818
vt 0.026956 0.785087
vt 0.660834 0.714713
vt 0.646247 0.738088
vt 0.316676 0.757206
vt 0.317759 0.779893
vt 0.305690 0.188551
vt 0.322716 0.799891
vt 0.324534 0.809749
vt 0.319293 0.151811
vt 0.315054 0.585438
vt 0.302231 0.382347
vt 0.301407 0.359868
vt 0.314636 0.396325
vt 0.319866 0.565041
vt 0.329280 0.972758
vt 0.373086 0.760056
vt 0.372178 0.737510
vt 0.026131 0.794402
vt 0.359718 0.723524
vt 0.357665 0.714014
vt 0.020597 0.837357
vt 0.369580 0.931364
vt 0.023123 0.600528
vt 0.024266 0.622968
vt 0.018045 0.580793
vt 0.357129 0.945488
vt 0.356911 0.550871
vt 0.340569 0.224623
vt 0.340350 0.201900
vt 0.648419 0.729004
vt 0.336158 0.181710
vt 0.334716 0.171782
vt 0.661820 0.692199
vt 0.335590 0.396368
vt 0.646088 0.922779
vt 0.645132 0.900306
vt 0.658578 0.936684
vt 0.329993 0.416565
vt 0.336500 0.008622
vt 0.632295 0.198700
vt 0.631109 0.208030
vt 0.030188 0.218293
vt 0.639449 0.156330
vt 0.637905 0.178572
vt 0.016975 0.181490
vt 0.025700 0.389335
vt 0.627994 0.392500
vt 0.627712 0.370026
vt 0.632307 0.412415
vt 0.013166 0.403382
vt 0.015222 0.008571
vt 0.320727 0.011272
vt 0.320719 0.542985
vt 0.319518 0.542872
vt 0.315892 0.427740
vt 0.015440 0.548854
vt 0.021477 0.978635
vt 0.356084 0.967523
vt 0.357729 0.967556
vt 0.660022 0.968091
vt 0.662376 0.551382
vt 0.328290 0.438572
vt 0.329485 0.438731
vt 0.016867 0.008569
vt 0.633676 0.444431
vt 0.644166 0.014868
vt 0.011988 0.425415
vn -0.051617 -0.998666 -0.001428
vn 0.001117 -0.925361 -0.379086
vn 0.072001 -0.921291 -0.382149
vn 0.051672 -0.998663 -0.001418
vn 0.000612 -0.386195 -0.922417
vn -0.037796 -0.002382 -0.999283
vn 0.038276 -0.002365 -0.999264
vn 0.000612 -0.386195 -0.922417
vn -0.994549 -0.104268 -0.000150
vn -0.932314 -0.361648 -0.001170
vn -0.932324 -0.361623 0.001200
vn -0.994547 -0.104287 0.000151
vn -0.409856 -0.912150 -0.001105
vn -0.051128 -0.998691 0.001443
vn -0.409858 -0.912149 0.001091
vn -0.984473 -0.000114 -0.175537
vn -0.997957 -0.027829 -0.057505
vn -0.999607 0.021198 0.018328
vn -0.999687 0.000174 0.025017
vn -0.999729 0.023272 0.000066
vn -0.385525 -0.001060 -0.922697
vn -0.385523 0.001067 -0.922698
vn -0.038360 0.002381 -0.999261
vn -0.937127 -0.002248 -0.348980
vn -0.984383 0.000094 -0.176040
vn -0.937102 0.002252 -0.349049
vn -0.038464 -0.002386 0.999257
vn 0.001773 -0.382804 0.923828
vn 0.001773 -0.382804 0.923828
vn 0.038301 -0.002374 0.999263
vn 0.001767 -0.923925 0.382570
vn 0.051679 -0.998663 0.001428
vn 0.072169 -0.919301 0.386883
vn -0.984365 -0.000093 0.176144
vn -0.937033 -0.002250 0.349233
vn -0.937057 0.002249 0.349168
vn -0.984452 0.000114 0.175654
vn -0.385773 -0.001066 0.922593
vn -0.038027 0.002391 0.999274
vn -0.385775 0.001062 0.922592
vn -0.997966 -0.029774 0.056366
vn -0.999607 0.021244 -0.018285
vn -0.999729 0.023277 -0.000067
vn -0.999686 0.000171 -0.025039
vn -0.051605 0.998667 0.001440
vn 0.001767 0.923937 0.382540
vn 0.073156 0.919532 0.386146
vn 0.051508 0.998672 0.001431
vn 0.001761 0.382818 0.923822
vn 0.038729 0.002368 0.999247
vn 0.001761 0.382818 0.923822
vn -0.994548 0.104278 0.000150
vn -0.932293 0.361701 0.001171
vn -0.932304 0.361674 -0.001200
vn -0.994546 0.104302 -0.000151
vn -0.409836 0.912159 0.001104
vn -0.051122 0.998691 -0.001443
vn -0.409839 0.912157 -0.001091
vn -0.997955 0.027859 0.057539
vn -0.999607 -0.021197 -0.018332
vn -0.999687 -0.000175 -0.025019
vn -0.999729 -0.023273 -0.000066
vn 0.001773 0.382800 -0.923830
vn 0.001773 0.382800 -0.923830
vn 0.038183 0.002374 -0.999268
vn 0.001776 0.923958 -0.382489
vn 0.051985 0.998647 -0.001427
vn 0.072167 0.919329 -0.386814
vn -0.997966 0.029778 -0.056365
vn -0.999607 -0.021245 0.018287
vn -0.999729 -0.023291 0.000067
vn -0.999686 -0.000171 0.025039
vn -0.069575 -0.997576 0.001409
vn -0.084572 -0.920205 0.382192
vn 0.084015 -0.920296 0.382095
vn 0.068885 -0.997624 0.001403
vn -0.088288 -0.380440 0.920582
vn -0.073676 -0.002361 0.997279
vn 0.073674 -0.002361 0.997280
vn 0.086172 -0.380542 0.920740
vn -0.932020 -0.362406 0.000296
vn -0.932021 -0.362404 -0.000284
vn -0.396015 -0.918242 0.001882
vn -0.069377 -0.997590 -0.001409
vn -0.396017 -0.918241 -0.001862
vn -0.400327 -0.003469 0.916366
vn -0.400292 0.003522 0.916381
vn -0.073805 0.002368 0.997270
vn -0.923204 -0.000465 0.384309
vn -0.923198 0.000517 0.384324
vn -0.087813 0.379526 0.921004
vn 0.087154 0.379750 0.920975
vn 0.073558 0.002351 0.997288
vn -0.084614 0.919818 0.383112
vn -0.069619 0.997573 0.001412
vn 0.068786 0.997631 0.001407
vn 0.084039 0.919975 0.382862
vn -0.395998 0.918249 0.001865
vn -0.395994 0.918251 -0.001882
vn -0.069669 0.997569 -0.001411
vn -0.932034 0.362372 0.000284
vn -0.932033 0.362374 -0.000296
vn -0.073833 -0.002356 -0.997268
vn -0.087494 -0.377727 -0.921774
vn 0.087329 -0.377678 -0.921809
vn 0.072992 -0.002348 -0.997330
vn -0.084148 -0.919102 -0.384929
vn 0.068956 -0.997619 -0.001409
vn 0.083270 -0.919157 -0.384989
vn -0.923185 -0.000517 -0.384355
vn -0.923192 0.000464 -0.384340
vn -0.400387 -0.003523 -0.916339
vn -0.073708 0.002361 -0.997277
vn -0.400425 0.003470 -0.916323
vn -0.084569 0.920187 -0.382236
vn 0.084026 0.920282 -0.382127
vn 0.068781 0.997631 -0.001406
vn -0.088301 0.380413 -0.920592
vn 0.073064 0.002358 -0.997324
vn 0.086174 0.380499 -0.920757
vn 0.994389 0.105788 -0.000155
vn 0.929574 0.368634 -0.001179
vn 0.929585 0.368607 0.001210
vn 0.994379 0.105879 0.000156
vn 0.404876 0.914371 -0.001137
vn 0.404879 0.914370 0.001125
vn 0.984184 0.000129 -0.177147
vn 0.997844 0.028642 -0.059050
vn 0.999601 -0.021350 0.018496
vn 0.999685 -0.000175 0.025085
vn 0.999729 -0.023266 0.000067
vn 0.382765 0.001151 -0.923845
vn 0.382766 -0.001039 -0.923845
vn 0.935779 0.002301 -0.352581
vn 0.984057 -0.000081 -0.177856
vn 0.935799 -0.002235 -0.352527
vn 0.402831 -0.915274 -0.001101
vn 0.402843 -0.915268 0.001146
vn 0.928229 -0.372007 -0.001167
vn 0.994377 -0.105894 -0.000152
vn 0.994376 -0.105907 0.000161
vn 0.928240 -0.371981 0.001210
vn 0.997944 -0.029528 -0.056890
vn 0.999596 0.021523 0.018574
vn 0.999727 0.023382 0.000068
vn 0.999686 0.000171 0.025061
vn 0.391845 -0.920029 0.001889
vn 0.391852 -0.920026 -0.001882
vn 0.931018 -0.364974 0.000283
vn 0.999726 -0.023424 -0.000067
vn 0.931019 -0.364970 -0.000298
vn 0.922857 -0.000523 0.385142
vn 0.922862 0.000463 0.385130
vn 0.398970 -0.003544 0.916957
vn 0.399002 0.003501 0.916943
vn 0.930239 0.366954 0.000291
vn 0.930239 0.366955 -0.000291
vn 0.999727 0.023381 -0.000068
vn 0.389221 0.921143 0.001901
vn 0.389218 0.921144 -0.001893
vn 0.983844 0.000097 0.179029
vn 0.934511 0.002274 0.355928
vn 0.934535 -0.002277 0.355865
vn 0.983888 -0.000119 0.178785
vn 0.380001 0.001103 0.924985
vn 0.380004 -0.001100 0.924984
vn 0.997850 0.030656 0.057931
vn 0.999605 -0.021270 -0.018348
vn 0.999689 -0.000172 -0.024956
vn 0.396271 -0.003508 -0.918127
vn 0.396274 0.003529 -0.918126
vn 0.922051 -0.000484 -0.387068
vn 0.999686 0.000173 -0.025051
vn 0.922052 0.000498 -0.387066
vn 0.997845 -0.028617 0.059051
vn 0.999601 0.021352 -0.018494
vn -0.512930 -0.297974 -0.805055
vn -0.512930 -0.297974 -0.805055
vn -0.504305 -0.781284 -0.367792
vn -0.504305 -0.781284 -0.367792
vn -0.963844 -0.145835 -0.223020
vn -0.507437 -0.781949 0.362027
vn -0.507437 -0.781949 0.362027
vn -0.510273 -0.302544 0.805039
vn -0.510273 -0.302544 0.805039
vn -0.964350 -0.151651 0.216865
vn -0.512887 0.298068 0.805048
vn -0.512887 0.298068 0.805048
vn -0.504173 0.781424 0.367676
vn -0.504173 0.781424 0.367676
vn -0.963812 0.145847 0.223146
vn -0.507452 0.781973 -0.361955
vn -0.507452 0.781973 -0.361955
vn -0.510291 0.302581 -0.805014
vn -0.510291 0.302581 -0.805014
vn -0.964353 0.151646 -0.216858
vn -0.496661 -0.340806 0.798235
vn -0.479697 -0.813896 0.327819
vn -0.961833 -0.206637 0.179383
vn -0.480887 0.813030 0.328224
vn -0.493119 0.340806 0.800428
vn -0.961613 0.205959 0.181333
vn -0.480706 -0.813155 -0.328177
vn -0.492995 -0.340937 -0.800449
vn -0.961610 -0.206034 -0.181265
vn -0.496723 0.340836 -0.798184
vn -0.479664 0.813886 -0.327891
vn -0.961834 0.206639 -0.179377
vn 0.495580 0.786165 -0.369249
vn 0.961915 0.149671 -0.228732
vn 0.504271 0.300035 -0.809747
vn 0.504271 0.300035 -0.809747
vn 0.962495 -0.154517 -0.222998
vn 0.494744 -0.792121 -0.357454
vn 0.508325 -0.309552 -0.803607
vn 0.508325 -0.309552 -0.803607
vn 0.961187 -0.207450 0.181890
vn 0.475476 -0.816205 0.328226
vn 0.491972 -0.342076 0.800592
vn 0.475599 0.816201 0.328056
vn 0.961374 0.207815 0.180479
vn 0.494218 0.341658 0.799386
vn 0.501627 0.304507 0.809720
vn 0.501627 0.304507 0.809720
vn 0.962495 0.155526 0.222295
vn 0.498844 0.786752 0.363561
vn 0.961358 -0.206962 -0.181541
vn 0.491363 -0.340882 -0.801475
vn 0.478750 -0.814083 -0.328736
vn 0.495649 -0.786136 0.369218
vn 0.961909 -0.149684 0.228748
vn 0.504300 -0.300004 0.809740
vn 0.504300 -0.300004 0.809740
vn 0.961174 0.207517 -0.181881
vn 0.475518 0.816183 -0.328218
vn 0.491997 0.342026 -0.800598
s 1
g polySurface19
usemtl lambert15SG
f 2/1/1 1/207/2 75/184/3 74/4/4
s 2
f 1/192/5 8/205/6 76/6/7 75/3/8
s 3
f 4/7/9 3/8/10 15/9/11 14/10/12
s 1
f 3/8/13 2/206/1 16/204/14 15/9/15
s 3
f 6/12/16 5/13/17 45/187/18 44/15/19
f 5/190/17 4/7/9 46/16/20 45/14/18
s 2
f 8/5/6 7/17/21 27/18/22 26/196/23
s 3
f 7/17/24 6/12/16 28/20/25 27/18/26
s 7
f 10/21/27 9/202/28 119/174/29 118/24/30
s 1
f 9/180/31 16/11/14 120/25/32 119/23/33
s 3
f 12/26/34 11/27/35 23/28/36 22/29/37
s 7
f 11/27/38 10/201/27 24/200/39 23/28/40
s 3
f 14/10/12 13/31/41 61/175/42 60/33/43
f 13/178/41 12/26/34 62/34/44 61/32/42
s 10
f 18/35/45 17/198/46 103/162/47 102/38/48
s 7
f 17/168/49 24/30/39 104/39/50 103/37/51
s 3
f 20/40/52 19/41/53 31/42/54 30/43/55
s 10
f 19/41/56 18/197/45 32/195/57 31/42/58
s 3
f 22/29/37 21/45/59 53/163/60 52/47/61
f 21/166/59 20/40/52 54/48/62 53/46/60
s 2
f 26/19/23 25/193/63 71/150/64 70/51/65
s 10
f 25/156/66 32/44/57 72/52/67 71/50/68
s 3
f 30/43/55 29/53/69 37/151/70 36/55/71
f 29/154/69 28/20/25 38/56/72 37/54/70
s 13
f 34/57/73 33/58/74 83/145/75 82/60/76
s 14
f 33/153/77 40/61/78 84/62/79 83/59/80
s 3
f 36/55/71 35/63/81 55/64/82 54/48/62
s 13
f 35/63/83 34/57/73 56/65/84 55/64/85
s 14
f 40/61/78 39/66/86 43/67/87 42/68/88
s 3
f 39/66/89 38/56/72 44/15/19 43/67/90
s 14
f 42/68/88 41/69/91 95/183/92 94/71/93
s 15
f 41/189/94 48/72/95 96/73/96 95/70/97
f 48/72/95 47/74/98 59/75/99 58/76/100
s 3
f 47/74/101 46/16/20 60/33/43 59/75/102
s 16
f 50/77/103 49/78/104 107/157/105 106/80/106
s 13
f 49/165/107 56/65/84 108/81/108 107/79/109
s 3
f 52/47/61 51/82/110 63/83/111 62/34/44
s 16
f 51/82/112 50/77/103 64/84/113 63/83/114
s 15
f 58/76/100 57/85/115 123/169/116 122/87/117
s 16
f 57/177/118 64/84/113 124/88/119 123/86/120
s 17
f 66/89/121 65/90/122 101/91/123 100/92/124
s 10
f 65/90/125 72/52/67 102/38/48 101/91/126
s 17
f 68/93/127 67/94/128 87/147/129 86/96/130
f 67/148/128 66/89/121 88/97/131 87/95/129
s 2
f 70/51/65 69/98/132 77/99/133 76/6/7
s 17
f 69/98/134 68/93/127 78/100/135 77/99/136
s 1
f 74/4/4 73/101/137 113/102/138 120/25/32
s 17
f 73/101/139 80/103/140 114/104/141 113/102/142
f 80/103/140 79/105/143 91/181/144 90/107/145
f 79/186/143 78/100/135 92/108/146 91/106/144
s 13
f 82/60/76 81/109/147 109/110/148 108/81/108
s 17
f 81/109/149 88/97/131 110/111/150 109/110/151
f 86/96/130 85/112/152 93/113/153 92/108/146
s 14
f 85/112/154 84/62/79 94/71/93 93/113/155
s 17
f 90/107/145 89/114/156 121/115/157 128/116/158
s 15
f 89/114/159 96/73/96 122/87/117 121/115/160
s 17
f 98/117/161 97/118/162 117/119/163 116/120/164
s 7
f 97/118/165 104/39/50 118/24/30 117/119/166
s 17
f 100/92/124 99/121/167 111/159/168 110/111/150
f 99/160/167 98/117/161 112/123/169 111/122/168
s 16
f 106/80/106 105/124/170 125/125/171 124/88/119
s 17
f 105/124/172 112/123/169 126/126/173 125/125/174
f 116/120/164 115/127/175 127/171/176 126/126/173
f 115/172/175 114/104/141 128/116/158 127/128/176
f 78/100/135 68/93/127 86/96/130 92/108/146
f 66/89/121 100/92/124 110/111/150 88/97/131
f 98/117/161 116/120/164 126/126/173 112/123/169
f 114/104/141 80/103/140 90/107/145 128/116/158
s 3
f 6/12/16 44/15/19 38/56/72 28/20/25
f 30/43/55 36/55/71 54/48/62 20/40/52
f 22/29/37 52/47/61 62/34/44 12/26/34
f 14/10/12 60/33/43 46/16/20 4/7/9
s 2
f 8/205/6 26/19/23 70/51/65 76/6/7
s 14
f 40/61/78 42/68/88 94/71/93 84/62/79
s 10
f 32/44/57 18/35/45 102/38/48 72/52/67
s 13
f 56/65/84 34/57/73 82/60/76 108/81/108
s 7
f 24/30/39 10/21/27 118/24/30 104/39/50
s 16
f 64/84/113 50/77/103 106/80/106 124/88/119
s 1
f 16/11/14 2/1/1 74/4/4 120/25/32
s 15
f 48/72/95 58/76/100 122/87/117 96/73/96
s 2
f 7/17/21 8/5/6 1/208/177 129/191/178
s 1
f 1/2/179 2/206/1 3/8/13 129/129/180
s 3
f 3/8/10 4/7/9 5/190/17 129/129/181
f 5/13/17 6/12/16 7/17/24 129/191/181
s 1
f 15/9/15 16/204/14 9/203/182 130/179/183
s 7
f 9/22/184 10/201/27 11/27/38 130/130/185
s 3
f 11/27/35 12/26/34 13/178/41 130/130/186
f 13/31/41 14/10/12 15/9/11 130/179/186
s 7
f 23/28/40 24/200/39 17/199/187 131/167/188
s 10
f 17/36/189 18/197/45 19/41/56 131/131/190
s 3
f 19/41/53 20/40/52 21/166/59 131/131/191
f 21/45/59 22/29/37 23/28/36 131/167/191
s 10
f 31/42/58 32/195/57 25/194/192 132/155/193
s 2
f 25/49/194 26/196/23 27/18/22 132/132/195
s 3
f 27/18/26 28/20/25 29/154/69 132/132/196
f 29/53/69 30/43/55 31/42/54 132/155/196
s 14
f 39/66/86 40/61/78 33/153/77 133/152/197
s 13
f 33/58/74 34/57/73 35/63/83 133/133/198
s 3
f 35/63/81 36/55/71 37/151/70 133/133/199
f 37/54/70 38/56/72 39/66/89 133/152/199
s 15
f 47/74/98 48/72/95 41/189/94 134/188/200
s 14
f 41/69/91 42/68/88 43/67/87 134/134/201
s 3
f 43/67/90 44/15/19 45/187/18 134/134/202
f 45/14/18 46/16/20 47/74/101 134/188/202
s 13
f 55/64/85 56/65/84 49/165/107 135/164/203
s 16
f 49/78/104 50/77/103 51/82/112 135/135/204
s 3
f 51/82/110 52/47/61 53/163/60 135/135/205
f 53/46/60 54/48/62 55/64/82 135/164/205
s 16
f 63/83/114 64/84/113 57/177/118 136/176/206
s 15
f 57/85/115 58/76/100 59/75/99 136/136/207
s 3
f 59/75/102 60/33/43 61/175/42 136/136/208
f 61/32/42 62/34/44 63/83/111 136/176/208
s 10
f 71/50/68 72/52/67 65/90/125 137/149/209
s 17
f 65/90/122 66/89/121 67/148/128 137/149/210
f 67/94/128 68/93/127 69/98/134 137/137/210
s 2
f 69/98/132 70/51/65 71/150/211 137/137/212
s 17
f 79/105/143 80/103/140 73/101/139 138/185/213
s 1
f 73/101/137 74/4/4 75/184/3 138/185/214
s 2
f 75/3/215 76/6/7 77/99/133 138/138/216
s 17
f 77/99/136 78/100/135 79/186/143 138/138/213
f 87/95/129 88/97/131 81/109/149 139/146/217
s 13
f 81/109/147 82/60/76 83/145/75 139/146/218
s 14
f 83/59/80 84/62/79 85/112/154 139/139/219
s 17
f 85/112/152 86/96/130 87/147/129 139/139/217
s 15
f 95/70/97 96/73/96 89/114/159 140/182/220
s 17
f 89/114/156 90/107/145 91/181/144 140/182/221
f 91/106/144 92/108/146 93/113/153 140/140/221
s 14
f 93/113/155 94/71/93 95/183/92 140/140/222
s 7
f 103/37/223 104/39/50 97/118/165 141/161/224
s 17
f 97/118/162 98/117/161 99/160/167 141/161/225
f 99/121/167 100/92/124 101/91/123 141/141/225
s 10
f 101/91/126 102/38/48 103/162/47 141/141/226
s 17
f 111/122/168 112/123/169 105/124/172 142/158/227
s 16
f 105/124/170 106/80/106 107/157/105 142/158/228
s 13
f 107/79/109 108/81/108 109/110/148 142/142/229
s 17
f 109/110/151 110/111/150 111/159/168 142/142/227
s 1
f 119/23/33 120/25/32 113/102/138 143/173/230
s 17
f 113/102/142 114/104/141 115/172/175 143/173/231
f 115/127/175 116/120/164 117/119/163 143/143/231
s 7
f 117/119/166 118/24/30 119/174/232 143/143/233
s 17
f 127/128/176 128/116/158 121/115/157 144/170/234
s 15
f 121/115/160 122/87/117 123/169/116 144/170/235
s 16
f 123/86/120 124/88/119 125/125/171 144/144/236
s 17
f 125/125/174 126/126/173 127/171/176 144/144/234
g default
v -11.187235 2.385196 4.671680
v -11.187235 3.978319 4.671680
v -11.187235 3.978319 7.359205
v -11.187235 2.385196 7.359205
vt 0.655465 0.008215
vt 0.972748 0.005160
vt 0.977903 0.540402
vt 0.660620 0.543458
vn 1.000000 0.000000 0.000000
vn 1.000000 0.000000 0.000000
vn 1.000000 0.000000 0.000000
vn 1.000000 0.000000 0.000000
s off
g polySurface20
usemtl lambert37SG
f 145/209/237 146/210/238 147/211/239 148/212/240
