# This file uses centimeters as units for non-parametric coordinates.

mtllib figura.mtl
g default
v -3.498521 6.751382 9.405260
v -3.496381 6.765614 9.407373
v -3.487240 6.750552 9.408617
v -3.483811 6.743060 9.416022
v -3.487217 6.734778 9.414669
v -3.495441 6.731357 9.414041
v -3.497750 6.736259 9.406455
v -3.503685 6.745486 9.404383
v -3.967280 6.751382 9.405260
v -3.962116 6.745486 9.404383
v -3.967901 6.736270 9.406527
v -3.970119 6.731321 9.414281
v -3.978513 6.734707 9.414657
v -3.981990 6.742853 9.415742
v -3.978565 6.750384 9.408520
v -3.969419 6.765614 9.407373
v -3.498521 7.404992 9.502348
v -3.503685 7.410886 9.503224
v -3.497899 7.419081 9.507954
v -3.495682 7.421563 9.516811
v -3.487288 7.418214 9.516188
v -3.483811 7.410104 9.514856
v -3.487236 7.404998 9.505758
v -3.496381 7.390758 9.500234
v -3.967280 7.404992 9.502348
v -3.969419 7.390758 9.500234
v -3.978561 7.404809 9.505802
v -3.981990 7.409825 9.515064
v -3.978584 7.418144 9.516179
v -3.970360 7.421598 9.516573
v -3.968051 7.419113 9.507889
v -3.962116 7.410886 9.503224
v -3.487359 7.396692 9.601698
v -3.483811 7.397967 9.593227
v -3.487359 7.406438 9.594486
v -3.495924 7.409948 9.595006
v -3.495931 7.405179 9.602958
v -3.978442 7.396700 9.601697
v -3.969862 7.405179 9.602958
v -3.969877 7.409948 9.595006
v -3.978442 7.406438 9.594486
v -3.981990 7.397967 9.593227
v -3.487359 6.723216 9.492998
v -3.483811 6.731688 9.494256
v -3.487359 6.730436 9.502730
v -3.495939 6.721957 9.501470
v -3.495924 6.719706 9.492477
v -3.978442 6.723216 9.492998
v -3.969877 6.719706 9.492477
v -3.969869 6.721957 9.501470
v -3.978442 6.730444 9.502731
v -3.981990 6.731688 9.494256
v -3.537549 6.804471 9.425176
v -3.534098 6.812857 9.426538
v -3.530436 6.810109 9.417526
v -3.522159 6.800570 9.412565
v -3.526225 6.793336 9.411491
v -3.536039 6.790341 9.411047
v -3.542869 6.798673 9.415766
v -3.545882 6.801007 9.424545
v -3.928252 6.804471 9.425176
v -3.919918 6.801007 9.424545
v -3.922940 6.798690 9.415767
v -3.929769 6.790384 9.411052
v -3.939692 6.793360 9.411495
v -3.943801 6.800540 9.412561
v -3.935431 6.810117 9.417524
v -3.931703 6.812857 9.426538
v -3.928252 7.348405 9.505972
v -3.931703 7.339985 9.504839
v -3.935365 7.345234 9.497015
v -3.943642 7.355804 9.495041
v -3.939575 7.363037 9.496117
v -3.929762 7.366032 9.496562
v -3.922932 7.356687 9.498656
v -3.919918 7.351902 9.506376
v -3.537549 7.348405 9.505972
v -3.545882 7.351902 9.506376
v -3.542861 7.356671 9.498651
v -3.536032 7.365989 9.496555
v -3.526108 7.363013 9.496112
v -3.521999 7.355832 9.495046
v -3.530369 7.345226 9.497012
v -3.534098 7.339985 9.504839
v -3.537645 6.805996 9.473445
v -3.534098 6.807248 9.464972
v -3.537645 6.798776 9.463714
v -3.546210 6.795267 9.463192
v -3.546231 6.797517 9.472186
v -3.546210 6.805468 9.476953
v -3.928155 6.805996 9.473445
v -3.919590 6.805468 9.476953
v -3.919570 6.797517 9.472186
v -3.919590 6.795267 9.463192
v -3.928155 6.798776 9.463714
v -3.931703 6.807248 9.464972
v -3.919570 7.341394 9.552974
v -3.919590 7.332400 9.555225
v -3.928155 7.332915 9.551715
v -3.931703 7.334181 9.543244
v -3.928155 7.342652 9.544502
v -3.919590 7.346161 9.545023
v -3.537645 7.332915 9.551715
v -3.546210 7.332400 9.555225
v -3.546231 7.341394 9.552974
v -3.546210 7.346161 9.545023
v -3.537645 7.342652 9.544502
v -3.534098 7.334181 9.543244
v -3.490501 6.740342 9.407086
v -3.975257 6.740300 9.407079
v -3.490544 7.415064 9.507311
v -3.975300 7.415023 9.507303
v -3.488936 7.403848 9.601169
v -3.976862 7.403850 9.601170
v -3.488939 6.723748 9.500144
v -3.976865 6.723751 9.500145
v -3.533989 6.802098 9.416291
v -3.931863 6.802117 9.416288
v -3.931811 7.353258 9.498161
v -3.533937 7.353241 9.498153
v -3.539227 6.799308 9.470861
v -3.926573 6.799308 9.470861
v -3.926573 7.340066 9.551185
v -3.539227 7.340066 9.551185
vt 0.828727 0.048996
vt 0.830616 0.034929
vt 0.456565 0.637220
vt 0.853372 0.082659
vt 0.476047 0.683808
vt 0.446848 0.639539
vt 0.810657 0.029032
vt 0.819386 0.035057
vt 0.815665 0.671985
vt 0.807029 0.677956
vt 0.825138 0.657995
vt 0.483390 0.701693
vt 0.491953 0.700917
vt 0.734530 0.018875
vt 0.483646 0.778366
vt 0.734568 0.027827
vt 0.481181 0.692975
vt 0.030265 0.687036
vt 0.035513 0.677977
vt 0.027898 0.695857
vt 0.030283 0.672605
vt 0.568245 0.072772
vt 0.065966 0.634696
vt 0.596819 0.046421
vt 0.572074 0.079880
vt 0.614820 0.026361
vt 0.614240 0.017791
vt 0.016515 0.771636
vt 0.691366 0.025806
vt 0.025482 0.771780
vt 0.606215 0.032380
vt 0.605987 0.669319
vt 0.596570 0.655430
vt 0.614748 0.675296
vt 0.499615 0.845425
vt 0.494363 0.840078
vt 0.853856 0.631802
vt 0.529881 0.802015
vt 0.850066 0.624672
vt 0.492078 0.863338
vt 0.494407 0.854507
vt 0.945346 0.858499
vt 0.947592 0.867207
vt 0.940172 0.849353
vt 0.807560 0.686530
vt 0.481024 0.939165
vt 0.730479 0.678093
vt 0.489991 0.939270
vt 0.594758 0.669509
vt 0.920487 0.802851
vt 0.571741 0.621905
vt 0.910780 0.805212
vt 0.956151 0.866395
vt 0.690931 0.685035
vt 0.948178 0.943876
vt 0.690844 0.676084
vt 0.721543 0.678312
vt 0.725644 0.027485
vt 0.489591 0.948190
vt 0.948401 0.952813
vt 0.699769 0.676375
vt 0.700300 0.025537
vt 0.483831 0.787303
vt 0.025044 0.780697
vt 0.870915 0.096547
vt 0.872292 0.087786
vt 0.022427 0.022039
vt 0.016515 0.032141
vt 0.437678 0.621393
vt 0.436159 0.583887
vt 0.861999 0.092399
vt 0.858881 0.615016
vt 0.867878 0.610995
vt 0.440592 0.630210
vt 0.072471 0.625538
vt 0.075627 0.616807
vt 0.067039 0.615265
vt 0.405772 0.017697
vt 0.395690 0.011797
vt 0.554337 0.093655
vt 0.517044 0.095491
vt 0.563312 0.089585
vt 0.563060 0.612211
vt 0.554122 0.608112
vt 0.552793 0.616881
vt 0.411882 0.554544
vt 0.417793 0.544442
vt 0.901532 0.787106
vt 0.899851 0.749607
vt 0.904484 0.795909
vt 0.536347 0.792829
vt 0.539465 0.784084
vt 0.530871 0.782580
vt 0.028535 0.558887
vt 0.038618 0.564786
vt 0.905179 0.609364
vt 0.025344 0.033360
vt 0.031194 0.547511
vt 0.034249 0.033585
vt 0.040101 0.547083
vt 0.033828 0.024688
vt 0.394435 0.020609
vt 0.394207 0.029499
vt 0.403114 0.029072
vt 0.408964 0.543222
vt 0.400059 0.542998
vt 0.400480 0.551895
vt 0.039873 0.555974
vt 0.820947 0.024730
vt 0.022639 0.684494
vt 0.486770 0.851998
vt 0.604481 0.679655
vt 0.482326 0.946476
vt 0.698192 0.683632
vt 0.727263 0.020237
vt 0.017787 0.778951
vt 0.864694 0.084132
vt 0.063384 0.623021
vt 0.560412 0.620493
vt 0.527250 0.790352
vt 0.027037 0.026528
vt 0.401272 0.022295
vt 0.407272 0.550055
vt 0.033035 0.554288
vt 0.520121 0.799467
vt 0.861494 0.623302
vt 0.869147 0.619771
vt 0.730348 0.686982
vt 0.723088 0.685563
vt 0.483489 0.862175
vt 0.817101 0.682228
vt 0.826866 0.672082
vt 0.401944 0.560735
vt 0.541838 0.746299
vt 0.411953 0.027635
vt 0.516591 0.606197
vt 0.032364 0.015848
vt 0.078163 0.579032
vt 0.022355 0.548948
vt 0.908434 0.098669
vt 0.905966 0.618088
vt 0.533023 0.745441
vt 0.908676 0.748879
vt 0.516209 0.086771
vt 0.444987 0.583196
vt 0.567940 0.629060
vt 0.913583 0.793586
vt 0.910151 0.785762
vt 0.955674 0.951214
vt 0.957071 0.943916
vt 0.613960 0.683930
vt 0.952967 0.856116
vt 0.945532 0.844106
vt 0.515763 0.614920
vt 0.056216 0.632106
vt 0.560653 0.081314
vt 0.553018 0.084886
vt 0.691449 0.016915
vt 0.698715 0.018294
vt 0.019314 0.694655
vt 0.604723 0.022144
vt 0.595014 0.032345
vt 0.069351 0.578135
vt 0.857212 0.075524
vt 0.449700 0.627925
vt 0.446303 0.620086
vt 0.492539 0.778443
vt 0.491110 0.785734
vt 0.811494 0.020404
vt 0.488813 0.690627
vt 0.481431 0.678583
vt 0.909312 0.089950
vn 0.214027 0.143244 -0.966268
vn 0.075646 0.115705 -0.990399
vn -0.023367 0.174618 -0.984359
vn -0.034119 0.147459 -0.988479
vn 0.001101 0.024681 -0.999695
vn -0.000454 0.175186 -0.984535
vn 0.999661 -0.001647 -0.025998
vn 0.924442 0.053648 -0.377529
vn 0.924421 0.058251 -0.376898
vn 0.999666 0.009110 -0.024166
vn 0.344414 0.132770 -0.929382
vn 0.214545 0.143732 -0.966081
vn 0.343849 0.143256 -0.928033
vn 0.007474 -0.983020 -0.183345
vn 0.385941 -0.912795 -0.133622
vn 0.382649 -0.917544 -0.108136
vn 0.006992 -0.994211 -0.107216
vn 0.925228 -0.375525 -0.054170
vn 0.999182 -0.010754 0.038995
vn 0.925956 -0.376576 -0.028217
vn 0.006130 -0.217610 -0.976017
vn -0.006111 -0.217890 -0.975954
vn -0.001142 0.025146 -0.999683
vn 0.006037 -0.840130 -0.542351
vn -0.007462 -0.982981 -0.183555
vn -0.006256 -0.840176 -0.542277
vn -0.073798 0.114882 -0.990634
vn 0.023322 0.174728 -0.984341
vn 0.000461 0.175183 -0.984536
vn -0.214520 0.143285 -0.966153
vn 0.034153 0.147445 -0.988480
vn -0.999666 -0.001693 -0.025771
vn -0.922466 -0.382171 -0.054781
vn -0.923425 -0.382708 -0.028656
vn -0.999184 -0.010779 0.038913
vn -0.379322 -0.915457 -0.134365
vn -0.006937 -0.994219 -0.107142
vn -0.376558 -0.919966 -0.108934
vn -0.343820 0.132680 -0.929615
vn -0.344396 0.143101 -0.927854
vn -0.214012 0.143809 -0.966187
vn -0.924417 0.053819 -0.377566
vn -0.999661 0.009133 -0.024397
vn -0.924438 0.058406 -0.376832
vn 0.001138 0.266510 -0.963831
vn 0.073749 0.178068 -0.981251
vn -0.023317 0.118935 -0.992628
vn -0.000462 0.118569 -0.992946
vn -0.034162 0.146245 -0.988658
vn 0.007462 0.993893 0.110094
vn 0.006257 0.961531 -0.274624
vn -0.006036 0.961509 -0.274707
vn -0.007472 0.993869 0.110307
vn 0.006106 0.492104 -0.870515
vn -0.001097 0.266955 -0.963708
vn -0.006119 0.491856 -0.870655
vn 0.922470 0.381586 0.058663
vn 0.923426 0.374514 0.083812
vn 0.999185 -0.000996 0.040360
vn 0.379283 0.915002 0.137531
vn 0.006937 0.982436 0.186470
vn 0.376523 0.911922 0.163181
vn -0.075629 0.177167 -0.981271
vn 0.023366 0.119047 -0.992614
vn 0.034106 0.146233 -0.988662
vn 0.000456 0.118563 -0.992946
vn -0.385894 0.912242 0.137480
vn -0.382605 0.909375 0.163253
vn -0.006991 0.982450 0.186397
vn -0.925223 0.375067 0.057327
vn -0.999182 -0.001045 0.040437
vn -0.925951 0.368531 0.082464
vn 0.924044 -0.052986 0.378597
vn 0.924044 -0.059356 0.377649
vn 0.004563 0.857919 0.513765
vn -0.004555 0.857918 0.513766
vn -0.924024 -0.052987 0.378645
vn -0.924024 -0.059357 0.377698
vn 0.004555 -0.970198 0.242272
vn -0.004562 -0.970198 0.242271
vn -0.995525 0.019841 -0.092390
vn -0.918173 0.392266 -0.055551
vn -0.926012 0.377457 0.005302
vn -0.997227 0.016886 -0.072479
vn -0.380919 0.924174 0.028339
vn -0.008727 0.998256 0.058391
vn -0.008581 0.997227 0.073920
vn -0.379369 0.921295 0.085406
vn -0.386822 0.136788 -0.911953
vn -0.386780 0.134338 -0.912335
vn -0.915798 0.068050 -0.395833
vn -0.995530 0.007883 -0.094117
vn -0.915752 0.050079 -0.398610
vn -0.011315 0.965532 -0.260037
vn 0.011392 0.965534 -0.260026
vn 0.008736 0.998258 0.058356
vn -0.001729 0.491955 -0.870619
vn 0.001780 0.491958 -0.870617
vn 0.380776 0.924241 0.028059
vn 0.379367 0.921295 0.085412
vn 0.008581 0.997227 0.073919
vn 0.917992 0.392562 -0.056442
vn 0.995530 0.019815 -0.092346
vn 0.997227 0.016886 -0.072479
vn 0.926011 0.377459 0.005305
vn 0.915761 0.067943 -0.395937
vn 0.915805 0.049943 -0.398506
vn 0.995525 0.007871 -0.094169
vn 0.386740 0.136656 -0.912007
vn 0.386781 0.134202 -0.912354
vn 0.918160 -0.359210 -0.167185
vn 0.926002 -0.362727 -0.104637
vn 0.997227 0.004910 -0.074255
vn 0.380882 -0.892517 -0.241543
vn 0.008727 -0.972122 -0.234314
vn 0.008580 -0.975662 -0.219113
vn 0.379330 -0.906360 -0.186063
vn 0.011315 -0.848180 -0.529587
vn -0.011389 -0.848186 -0.529576
vn -0.008735 -0.972114 -0.234345
vn 0.001730 -0.217660 -0.976023
vn -0.001781 -0.217663 -0.976022
vn -0.380730 -0.892505 -0.241824
vn -0.379335 -0.906359 -0.186058
vn -0.008580 -0.975662 -0.219112
vn -0.917981 -0.359222 -0.168141
vn -0.997227 0.004910 -0.074255
vn -0.926003 -0.362725 -0.104637
vn -0.924052 0.060187 -0.377499
vn -0.924052 0.052141 -0.378695
vn -0.382154 0.139799 -0.913463
vn -0.009232 0.153344 -0.988130
vn -0.009232 0.140498 -0.990038
vn -0.382155 0.131754 -0.914658
vn -0.005755 0.513632 -0.857991
vn 0.005755 0.513632 -0.857991
vn 0.009232 0.153344 -0.988130
vn -0.005755 0.970237 -0.242088
vn 0.005755 0.970237 -0.242088
vn 0.382154 0.139799 -0.913463
vn 0.382155 0.131754 -0.914658
vn 0.009232 0.140498 -0.990038
vn 0.924052 0.060187 -0.377499
vn 0.924052 0.052141 -0.378695
vn 0.005756 -0.242037 -0.970250
vn -0.005757 -0.242037 -0.970250
vn 0.005755 -0.858009 -0.513603
vn -0.005755 -0.858009 -0.513603
vn 0.232950 0.004539 -0.972478
vn 0.812320 -0.207878 -0.544907
vn 0.812320 -0.207878 -0.544907
vn 0.383703 -0.687860 -0.616134
vn 0.383703 -0.687860 -0.616134
vn -0.228317 0.000375 -0.973587
vn -0.366064 -0.700641 -0.612454
vn -0.366064 -0.700641 -0.612454
vn -0.800530 -0.220756 -0.557152
vn -0.800530 -0.220756 -0.557152
vn 0.228313 0.282642 -0.931658
vn 0.366050 0.848406 -0.382379
vn 0.366050 0.848406 -0.382379
vn 0.800526 0.373207 -0.468908
vn 0.800526 0.373207 -0.468908
vn -0.232869 0.278341 -0.931825
vn -0.812353 0.357264 -0.460917
vn -0.812353 0.357264 -0.460917
vn -0.383574 0.837349 -0.389510
vn -0.383574 0.837349 -0.389510
vn 0.887720 0.273866 0.370067
vn 0.325493 0.830180 0.452610
vn -0.887654 0.274069 0.370077
vn -0.325254 0.830238 0.452674
vn 0.325243 -0.925971 0.191819
vn 0.887695 -0.369774 0.274346
vn -0.887757 -0.369539 0.274461
vn -0.325474 -0.925898 0.191780
vn -0.326684 0.875942 -0.354968
vn -0.798643 0.410796 -0.439790
vn -0.177297 0.347602 -0.920727
vn 0.796253 0.411399 -0.443544
vn 0.326290 0.876391 -0.354222
vn 0.175157 0.348082 -0.920955
vn 0.326693 -0.734868 -0.594341
vn 0.798621 -0.265273 -0.540217
vn 0.177297 -0.064920 -0.982014
vn -0.796209 -0.264723 -0.544034
vn -0.326227 -0.735547 -0.593757
vn -0.175194 -0.065398 -0.982360
vn -0.325111 0.452567 -0.830353
vn -0.887599 0.369907 -0.274476
vn -0.325062 0.926012 -0.191928
vn 0.887604 0.369897 -0.274472
vn 0.325104 0.452570 -0.830354
vn 0.325070 0.926015 -0.191901
vn 0.325107 -0.830230 -0.452795
vn 0.325183 -0.191726 -0.926011
vn 0.887589 -0.274185 -0.370147
vn -0.887587 -0.274187 -0.370150
vn -0.325199 -0.191732 -0.926005
vn -0.325103 -0.830230 -0.452798
s 1
g frame_foto
usemtl lambert32SG
f 2/1/1 1/2/2 57/164/3 56/4/4
f 1/171/2 8/5/5 58/6/6 57/3/3
s 2
f 4/7/7 3/8/8 23/9/9 22/10/10
s 1
f 3/8/11 2/1/1 24/11/12 23/9/13
s 3
f 6/12/14 5/13/15 43/167/16 47/15/17
s 2
f 5/169/18 4/7/7 44/16/19 43/14/20
s 1
f 8/5/5 7/17/21 11/18/22 10/19/23
s 3
f 7/17/24 6/12/14 12/20/25 11/18/26
s 1
f 10/19/23 9/21/27 65/155/28 64/23/29
f 9/162/27 16/24/30 66/25/31 65/22/28
s 5
f 14/26/32 13/27/33 48/158/34 52/29/35
s 3
f 13/160/36 12/20/25 49/30/37 48/28/38
s 1
f 16/24/30 15/31/39 27/32/40 26/33/41
s 5
f 15/31/42 14/26/32 28/34/43 27/32/44
s 1
f 18/35/45 17/36/46 81/125/47 80/38/48
f 17/132/46 24/11/12 82/39/49 81/37/47
s 8
f 20/40/50 19/41/51 31/42/52 30/43/53
s 1
f 19/41/54 18/35/45 32/44/55 31/42/56
s 2
f 22/10/10 21/45/57 35/128/58 34/47/59
s 8
f 21/130/60 20/40/50 36/48/61 35/46/62
s 1
f 26/33/41 25/49/63 73/146/64 72/51/65
f 25/153/63 32/44/55 74/52/66 73/50/64
s 8
f 30/43/53 29/53/67 41/150/68 40/55/69
s 5
f 29/151/70 28/34/43 42/56/71 41/54/72
s 2
f 34/47/59 33/57/73 45/58/74 44/16/19
s 8
f 37/59/75 36/48/61 40/55/69 39/60/76
s 5
f 38/61/77 42/56/71 52/29/35 51/62/78
s 3
f 47/15/17 46/63/79 50/64/80 49/30/37
s 11
f 54/65/81 53/66/82 87/172/83 86/140/84
s 12
f 53/166/85 60/69/86 88/70/87 87/145/88
s 1
f 56/4/4 55/71/89 83/72/90 82/39/49
s 11
f 55/71/91 54/65/81 84/73/92 83/72/93
s 12
f 60/69/86 59/74/94 63/75/95 62/76/96
s 1
f 59/74/97 58/6/6 64/23/29 63/75/98
s 12
f 62/76/96 61/77/99 95/163/100 94/138/101
s 13
f 61/157/102 68/80/103 96/81/104 95/144/105
f 68/80/103 67/82/106 71/83/107 70/84/108
s 1
f 67/82/109 66/25/31 72/51/65 71/83/110
s 13
f 70/84/108 69/85/111 101/154/112 100/136/113
s 14
f 69/148/114 76/88/115 102/89/116 101/143/117
f 76/88/115 75/90/118 79/91/119 78/92/120
s 1
f 75/90/121 74/52/66 80/38/48 79/91/122
s 14
f 78/92/120 77/93/123 107/142/124 106/134/125
s 11
f 77/127/126 84/73/92 108/96/127 107/141/128
f 86/68/84 85/97/129 103/98/130 108/139/127
s 15
f 85/97/131 90/99/132 104/100/133 103/98/134
f 90/99/132 89/101/135 93/102/136 92/103/137
s 12
f 89/101/138 88/137/87 94/79/101 93/102/139
s 15
f 92/103/137 91/104/140 99/105/141 98/106/142
s 13
f 91/104/143 96/135/104 100/87/113 99/105/144
s 15
f 98/106/142 97/107/145 105/108/146 104/100/133
s 14
f 97/107/147 102/133/116 106/95/125 105/108/148
s 15
f 90/99/132 92/103/137 98/106/142 104/100/133
s 8
f 20/40/50 30/43/53 40/55/69 36/48/61
s 3
f 47/15/17 49/30/37 12/20/25 6/12/14
s 5
f 14/26/32 52/29/35 42/56/71 28/34/43
s 2
f 44/16/19 4/7/7 22/10/10 34/47/59
s 1
f 8/5/5 10/19/23 64/23/29 58/6/6
f 16/24/30 26/33/41 72/51/65 66/25/31
f 32/44/55 18/35/45 80/38/48 74/52/66
f 24/11/12 2/1/1 56/4/4 82/39/49
s 12
f 60/69/86 62/76/96 94/138/101 88/70/87
s 13
f 68/80/103 70/84/108 100/136/113 96/81/104
s 14
f 76/88/115 78/92/120 106/134/125 102/89/116
s 11
f 84/73/92 54/65/81 86/140/84 108/96/127
s 1
f 7/17/21 8/5/5 1/171/2 109/170/149
f 1/2/2 2/1/1 3/8/11 109/109/149
s 2
f 3/8/8 4/7/7 5/169/150 109/109/151
s 3
f 5/13/152 6/12/14 7/17/24 109/170/153
s 1
f 15/31/39 16/24/30 9/162/27 110/161/154
f 9/21/27 10/19/23 11/18/22 110/110/154
s 3
f 11/18/26 12/20/25 13/160/155 110/110/156
s 5
f 13/27/157 14/26/32 15/31/42 110/161/158
s 1
f 23/9/13 24/11/12 17/132/46 111/131/159
f 17/36/46 18/35/45 19/41/54 111/111/159
s 8
f 19/41/51 20/40/50 21/130/160 111/111/161
s 2
f 21/45/162 22/10/10 23/9/9 111/131/163
s 1
f 31/42/56 32/44/55 25/153/63 112/152/164
f 25/49/63 26/33/41 27/32/40 112/112/164
s 5
f 27/32/44 28/34/43 29/151/165 112/112/166
s 8
f 29/53/167 30/43/53 31/42/52 112/152/168
s 2
f 33/57/73 34/47/59 35/128/58 113/129/169
s 8
f 35/46/62 36/48/61 37/59/75 113/113/170
s 5
f 41/54/72 42/56/71 38/61/77 114/114/171
s 8
f 39/60/76 40/55/69 41/150/68 114/149/172
s 3
f 46/63/79 47/15/17 43/167/16 115/168/173
s 2
f 43/14/20 44/16/19 45/58/74 115/115/174
s 5
f 51/62/78 52/29/35 48/158/34 116/159/175
s 3
f 48/28/38 49/30/37 50/64/80 116/116/176
s 12
f 59/74/94 60/69/86 53/166/85 117/165/177
s 11
f 53/66/82 54/65/81 55/71/91 117/117/178
s 1
f 55/71/89 56/4/4 57/164/3 117/117/179
f 57/3/3 58/6/6 59/74/97 117/165/179
s 13
f 67/82/106 68/80/103 61/157/102 118/156/180
s 12
f 61/77/99 62/76/96 63/75/95 118/118/181
s 1
f 63/75/98 64/23/29 65/155/28 118/118/182
f 65/22/28 66/25/31 67/82/109 118/156/182
s 14
f 75/90/118 76/88/115 69/148/114 119/147/183
s 13
f 69/85/111 70/84/108 71/83/107 119/119/184
s 1
f 71/83/110 72/51/65 73/146/64 119/119/185
f 73/50/64 74/52/66 75/90/121 119/147/185
s 11
f 83/72/93 84/73/92 77/127/126 120/126/186
s 14
f 77/93/123 78/92/120 79/91/119 120/120/187
s 1
f 79/91/122 80/38/48 81/125/47 120/120/188
f 81/37/47 82/39/49 83/72/90 120/126/188
s 15
f 89/101/135 90/99/132 85/97/131 121/121/189
s 11
f 85/97/129 86/68/84 87/67/83 121/121/190
s 12
f 87/67/88 88/137/87 89/101/138 121/121/191
s 13
f 95/78/105 96/135/104 91/104/143 122/122/192
s 15
f 91/104/140 92/103/137 93/102/136 122/122/193
s 12
f 93/102/139 94/79/101 95/78/100 122/122/194
s 14
f 101/86/117 102/133/116 97/107/147 123/123/195
s 15
f 97/107/145 98/106/142 99/105/141 123/123/196
s 13
f 99/105/144 100/87/113 101/86/112 123/123/197
s 11
f 107/94/128 108/139/127 103/98/130 124/124/198
s 15
f 103/98/134 104/100/133 105/108/146 124/124/199
s 14
f 105/108/148 106/95/125 107/94/124 124/124/200
