# This file uses centimeters as units for non-parametric coordinates.

mtllib blueprints and notes.mtl
g default
v -3.141311 4.466461 -11.115819
v -2.655299 4.466461 -11.115819
v -3.141311 4.952472 -11.115819
v -2.655299 4.952472 -11.115819
vt 0.000000 0.000000
vt 1.000000 0.000000
vt 0.000000 1.000000
vt 1.000000 1.000000
vn 0.000000 0.000000 1.000000
vn 0.000000 0.000000 1.000000
vn 0.000000 0.000000 1.000000
vn 0.000000 0.000000 1.000000
s off
g pPlane11
usemtl lambert25SG
f 4/4/1 3/3/2 1/1/3 2/2/4
g default
v -2.987012 5.381443 -11.163473
v -1.679802 5.381443 -11.163473
v -0.372591 5.381443 -11.163473
v -2.987012 6.181962 -11.163473
v -1.679802 6.181962 -11.163473
v -0.372591 6.181962 -11.163473
v -2.987012 6.982482 -11.163473
v -1.679802 6.982482 -11.163473
v -0.372591 6.982482 -11.163473
vt 0.000000 0.193806
vt 0.500000 0.193806
vt 0.500000 0.500000
vt 0.000000 0.500000
vt 1.000000 0.193806
vt 1.000000 0.500000
vt 0.500000 0.806194
vt 0.000000 0.806194
vt 1.000000 0.806194
vn 0.000000 0.000000 1.000000
vn 0.000000 0.000000 1.000000
vn 0.000000 0.000000 1.000000
vn 0.000000 0.000000 1.000000
vn 0.000000 0.000000 1.000000
vn 0.000000 0.000000 1.000000
vn 0.000000 0.000000 1.000000
vn 0.000000 0.000000 1.000000
vn 0.000000 0.000000 1.000000
s 1
g pPlane1
usemtl lambert27SG
f 5/5/5 6/6/6 9/7/7 8/8/8
f 6/6/6 7/9/9 10/10/10 9/7/7
f 8/8/8 9/7/7 12/11/11 11/12/12
f 9/7/7 10/10/10 13/13/13 12/11/11
g default
v -2.360456 4.660555 -11.160407
v -1.053245 4.660555 -11.160407
v 0.253965 4.660555 -11.160407
v -2.360456 5.468751 -11.160407
v -1.053245 5.468751 -11.160407
v 0.253965 5.468751 -11.160407
v -2.360456 6.276949 -11.160407
v -1.053245 6.276949 -11.160407
v 0.253965 6.276949 -11.160407
vt -0.000000 0.190870
vt 0.500000 0.190870
vt 0.500000 0.500000
vt -0.000000 0.500000
vt 1.000000 0.190870
vt 1.000000 0.500000
vt 0.500000 0.809130
vt -0.000000 0.809130
vt 1.000000 0.809130
vn 0.000000 0.000000 1.000000
vn 0.000000 0.000000 1.000000
vn 0.000000 0.000000 1.000000
vn 0.000000 0.000000 1.000000
vn 0.000000 0.000000 1.000000
vn 0.000000 0.000000 1.000000
vn 0.000000 0.000000 1.000000
vn 0.000000 0.000000 1.000000
vn 0.000000 0.000000 1.000000
s 1
g pPlane22
usemtl lambert28SG
f 14/14/14 15/15/15 18/16/16 17/17/17
f 15/15/15 16/18/18 19/19/19 18/16/16
f 17/17/17 18/16/16 21/20/20 20/21/21
f 18/16/16 19/19/19 22/22/22 21/20/20
g default
v 0.413000 4.791911 -11.160407
v 2.882573 4.791911 -11.160407
v 5.352147 4.791911 -11.160407
v 0.413000 6.079301 -11.160407
v 2.882573 6.079301 -11.160407
v 5.352147 6.079301 -11.160407
v 0.413000 7.366690 -11.160407
v 2.882573 7.366690 -11.160407
v 5.352147 7.366690 -11.160407
vt 0.000000 0.239350
vt 0.500000 0.239350
vt 0.500000 0.500000
vt 0.000000 0.500000
vt 1.000000 0.239350
vt 1.000000 0.500000
vt 0.500000 0.760650
vt 0.000000 0.760650
vt 1.000000 0.760650
vn 0.000000 0.000000 1.000000
vn 0.000000 0.000000 1.000000
vn 0.000000 0.000000 1.000000
vn 0.000000 0.000000 1.000000
vn 0.000000 0.000000 1.000000
vn 0.000000 0.000000 1.000000
vn 0.000000 0.000000 1.000000
vn 0.000000 0.000000 1.000000
vn 0.000000 0.000000 1.000000
s 1
g pasted__pPlane23 group25
usemtl lambert26SG
f 23/23/23 24/24/24 27/25/25 26/26/26
f 24/24/24 25/27/27 28/28/28 27/25/25
f 26/26/26 27/25/25 30/29/29 29/30/30
f 27/25/25 28/28/28 31/31/31 30/29/29
g default
v -0.292773 6.664658 -11.101989
v 0.193238 6.664658 -11.101989
v -0.292773 7.150670 -11.101989
v 0.193238 7.150670 -11.101989
vt 0.000000 0.000000
vt 1.000000 0.000000
vt 0.000000 1.000000
vt 1.000000 1.000000
vn 0.000000 0.000000 1.000000
vn 0.000000 0.000000 1.000000
vn 0.000000 0.000000 1.000000
vn 0.000000 0.000000 1.000000
s off
g pPlane29
usemtl lambert25SG
f 33/33/32 35/35/33 34/34/34 32/32/35
g default
v -0.860710 7.415021 -11.101989
v -0.374698 7.415021 -11.101989
v -0.860710 7.901033 -11.101989
v -0.374698 7.901033 -11.101989
vt 0.000000 0.000000
vt 1.000000 0.000000
vt 0.000000 1.000000
vt 1.000000 1.000000
vn 0.000000 0.000000 1.000000
vn 0.000000 0.000000 1.000000
vn 0.000000 0.000000 1.000000
vn 0.000000 0.000000 1.000000
s off
g pPlane8
usemtl lambert25SG
f 39/39/36 38/38/37 36/36/38 37/37/39
g default
v -1.491150 7.222088 -11.115819
v -1.005138 7.222088 -11.115819
v -1.491150 7.708100 -11.115819
v -1.005138 7.708100 -11.115819
vt 0.000000 0.000000
vt 1.000000 0.000000
vt 0.000000 1.000000
vt 1.000000 1.000000
vn 0.000000 0.000000 1.000000
vn 0.000000 0.000000 1.000000
vn 0.000000 0.000000 1.000000
vn 0.000000 0.000000 1.000000
s off
g pPlane7
usemtl lambert25SG
f 40/40/40 41/41/41 43/43/42 42/42/43
g default
v 4.817733 4.315274 -11.160408
v 6.252694 4.315274 -11.160408
v 7.687656 4.315274 -11.160408
v 4.817733 5.345522 -11.160408
v 6.252694 5.345522 -11.160408
v 7.687656 5.345522 -11.160408
v 4.817733 6.375769 -11.160408
v 6.252694 6.375769 -11.160408
v 7.687656 6.375769 -11.160408
vt 0.000000 0.141019
vt 0.500000 0.141019
vt 0.500000 0.500000
vt 0.000000 0.500000
vt 1.000000 0.141019
vt 1.000000 0.500000
vt 0.500000 0.858981
vt 0.000000 0.858981
vt 1.000000 0.858981
vn 0.000000 0.000000 1.000000
vn 0.000000 0.000000 1.000000
vn 0.000000 0.000000 1.000000
vn 0.000000 0.000000 1.000000
vn 0.000000 0.000000 1.000000
vn 0.000000 0.000000 1.000000
vn 0.000000 0.000000 1.000000
vn 0.000000 0.000000 1.000000
vn 0.000000 0.000000 1.000000
s 1
g pPlane23
usemtl lambert29SG
f 44/44/44 45/45/45 48/46/46 47/47/47
f 45/45/45 46/48/48 49/49/49 48/46/46
f 47/47/47 48/46/46 51/50/50 50/51/51
f 48/46/46 49/49/49 52/52/52 51/50/50
g default
v 6.555942 3.354817 -11.160408
v 7.698952 3.354817 -11.160408
v 8.841963 3.354817 -11.160408
v 6.555942 4.123009 -11.160408
v 7.698952 4.123009 -11.160408
v 8.841963 4.123009 -11.160408
v 6.555942 4.891201 -11.160408
v 7.698952 4.891201 -11.160408
v 8.841963 4.891201 -11.160408
vt 0.000000 0.163961
vt 0.500000 0.163961
vt 0.500000 0.500000
vt 0.000000 0.500000
vt 1.000000 0.163961
vt 1.000000 0.500000
vt 0.500000 0.836039
vt 0.000000 0.836039
vt 1.000000 0.836039
vn 0.000000 0.000000 1.000000
vn 0.000000 0.000000 1.000000
vn 0.000000 0.000000 1.000000
vn 0.000000 0.000000 1.000000
vn 0.000000 0.000000 1.000000
vn 0.000000 0.000000 1.000000
vn 0.000000 0.000000 1.000000
vn 0.000000 0.000000 1.000000
vn 0.000000 0.000000 1.000000
s 1
g pPlane24
usemtl lambert30SG
f 53/53/53 54/54/54 57/55/55 56/56/56
f 54/54/54 55/57/57 58/58/58 57/55/55
f 56/56/56 57/55/55 60/59/59 59/60/60
f 57/55/55 58/58/58 61/61/61 60/59/59
g default
v 8.422233 4.845014 -11.101989
v 8.908245 4.845014 -11.101989
v 8.422233 5.331025 -11.101989
v 8.908245 5.331025 -11.101989
vt 0.000000 0.000000
vt 1.000000 0.000000
vt 0.000000 1.000000
vt 1.000000 1.000000
vn 0.000000 0.000000 1.000000
vn 0.000000 0.000000 1.000000
vn 0.000000 0.000000 1.000000
vn 0.000000 0.000000 1.000000
s off
g pPlane9
usemtl lambert25SG
f 63/63/62 65/65/63 64/64/64 62/62/65
g default
v 9.687775 6.221036 -8.909357
v 9.687775 6.101438 -7.035052
v 9.687775 7.382245 -8.835261
v 9.687775 7.262646 -6.960956
vt 0.018018 0.201434
vt 0.981945 0.201373
vt 0.981982 0.798566
vt 0.018055 0.798626
vn -1.000000 0.000000 0.000000
vn -1.000000 0.000000 0.000000
vn -1.000000 0.000000 0.000000
vn -1.000000 0.000000 0.000000
s off
g pPlane26
usemtl lambert32SG
f 66/66/66 67/67/67 69/68/68 68/69/69
