# This file uses centimeters as units for non-parametric coordinates.

mtllib PINTU.mtl
g default
v 10.882525 5.236650 7.373935
v 10.875107 5.236650 9.316835
v 10.875107 8.989606 9.316835
v 10.882525 8.989606 7.373935
vt 0.014079 0.012112
vt 0.435935 0.015516
vt 0.429359 0.830379
vt 0.007503 0.826974
vn -0.999993 0.000000 -0.003818
vn -0.999993 0.000000 -0.003818
vn -0.999993 0.000000 -0.003818
vn -0.999993 0.000000 -0.003818
s off
g polySurface4
usemtl lambert38SG
f 1/1/1 2/2/2 3/3/3 4/4/4
g default
v 10.927643 5.137888 7.261554
v 10.927643 9.088367 7.261554
v 10.919364 9.088367 9.429555
v 10.919364 5.137888 9.429555
v 10.919793 5.236650 9.317007
v 10.927213 5.236650 7.374105
v 10.919793 8.989606 9.317007
v 10.927213 8.989606 7.374105
v 10.833762 5.137888 9.429228
v 10.842041 5.137888 7.261228
v 10.834192 5.236650 9.316680
v 10.841611 5.236650 7.373779
v 10.833762 9.088367 9.429228
v 10.834192 8.989606 9.316680
v 10.842041 9.088367 7.261228
v 10.841611 8.989606 7.373779
vt 0.502320 0.000000
vt 0.857862 0.884247
vt 0.836545 0.859698
vt 0.440883 0.021943
vt 0.590934 0.555799
vt 0.612387 0.531370
vt 0.509271 0.857749
vt 0.533535 0.836108
vt 0.529060 0.045535
vt 0.459469 0.021793
vt 0.975070 0.018585
vt 0.857766 0.902834
vt 0.021317 0.922932
vt 0.572347 0.555792
vt 0.551076 0.109476
vt 0.490684 0.857900
vt 0.591116 0.085053
vt 0.612551 0.109500
vt 0.466072 0.836654
vt 0.572529 0.085045
vt 0.000096 0.879797
vt 0.021667 0.855470
vt 0.550912 0.531346
vt 0.000000 0.898383
vt 0.529289 0.064121
vt 0.553003 0.005205
vt 0.553232 0.023791
vt 1.000000 0.058313
vt 0.975829 0.080057
vt 0.836195 0.927161
vt 0.483734 0.000151
vt 0.999771 0.039727
vt 0.532489 0.109469
vt 0.532325 0.531339
vt 0.974841 -0.000000
vt 0.553990 0.085262
vt 0.526932 0.021246
vt 0.447486 0.836805
vt 0.021221 0.941519
vt 0.836098 0.945747
vn -0.999993 0.000000 -0.003821
vn -0.999993 0.000000 -0.003821
vn -0.999993 0.000000 -0.003821
vn -0.999993 0.000000 -0.003820
vn -0.999993 0.000000 -0.003821
vn -0.999993 0.000000 -0.003821
vn -0.999993 0.000000 -0.003821
vn -0.999993 0.000000 -0.003820
vn 0.999993 0.000003 0.003821
vn 0.999993 0.000003 0.003821
vn 0.999993 0.000003 0.003815
vn 0.999993 0.000003 0.003815
vn 0.999993 -0.000003 0.003815
vn 0.999993 -0.000003 0.003815
vn 0.999993 -0.000003 0.003821
vn 0.999993 -0.000003 0.003821
vn 0.000000 -1.000000 0.000000
vn 0.000000 -1.000000 0.000000
vn 0.000000 -1.000000 0.000000
vn 0.000000 -1.000000 0.000000
vn -0.000011 1.000000 0.000000
vn -0.000011 1.000000 0.000000
vn -0.000011 1.000000 0.000000
vn -0.000011 1.000000 0.000000
vn -0.003824 0.000000 0.999993
vn -0.003824 0.000000 0.999993
vn -0.003824 0.000000 0.999993
vn -0.003824 0.000000 0.999993
vn 0.003824 0.000000 -0.999993
vn 0.003824 0.000000 -0.999993
vn 0.003824 0.000000 -0.999993
vn 0.003824 0.000000 -0.999993
vn 0.000000 1.000000 0.000000
vn 0.000000 1.000000 0.000000
vn 0.000000 1.000000 0.000000
vn 0.000000 1.000000 0.000000
vn 0.000000 -1.000000 0.000000
vn 0.000000 -1.000000 0.000000
vn 0.000000 -1.000000 0.000000
vn 0.000000 -1.000000 0.000000
vn 0.003818 0.000000 -0.999993
vn 0.003818 0.000000 -0.999993
vn 0.003818 0.000000 -0.999993
vn 0.003818 0.000000 -0.999993
vn -0.003816 0.000000 0.999993
vn -0.003816 0.000000 0.999993
vn -0.003816 0.000000 0.999993
vn -0.003816 0.000000 0.999993
s 1
g polySurface3
usemtl lambert38SG
f 14/29/5 13/32/6 15/33/7 16/40/8
f 13/6/6 17/25/9 18/26/10 15/7/7
f 17/9/9 19/21/11 20/22/12 18/10/10
f 19/11/11 14/5/5 16/41/8 20/12/12
s 2
f 5/13/13 10/31/14 9/15/15 8/36/16
f 8/16/16 9/34/15 11/17/17 7/28/18
f 7/18/18 11/27/17 12/19/19 6/24/20
f 6/20/20 12/23/19 10/14/14 5/35/13
s off
f 5/13/21 8/36/22 13/32/23 14/29/24
f 9/15/25 10/31/26 16/30/27 15/39/28
f 8/16/29 7/28/30 17/25/31 13/6/32
f 11/17/33 9/34/34 15/44/35 18/43/36
f 7/18/37 6/24/38 19/21/39 17/9/40
f 12/19/41 11/27/42 18/38/43 20/37/44
f 6/20/45 5/35/46 14/5/47 19/11/48
f 10/14/49 12/23/50 20/42/51 16/8/52
