# This file uses centimeters as units for non-parametric coordinates.

mtllib tanah bulet.mtl
g default
v 7.618990 16.464637 9.682159
v 7.465615 16.464637 9.618629
v 7.312242 16.464637 9.682159
v 7.248713 16.464637 9.835533
v 7.312242 16.464637 9.988906
v 7.465615 16.464637 10.052436
v 7.618990 16.464637 9.988906
v 7.682519 16.464637 9.835533
v 7.607315 16.547644 9.693834
v 7.465615 16.547644 9.635140
v 7.323916 16.547644 9.693834
v 7.265223 16.547644 9.835533
v 7.323916 16.547644 9.977231
v 7.465615 16.547644 10.035925
v 7.607315 16.547644 9.977231
v 7.666009 16.547644 9.835533
v 7.574067 16.618011 9.727081
v 7.465615 16.618011 9.682159
v 7.357164 16.618011 9.727081
v 7.312242 16.618011 9.835533
v 7.357164 16.618011 9.943985
v 7.465615 16.618011 9.988906
v 7.574067 16.618011 9.943985
v 7.618990 16.618011 9.835533
v 7.524309 16.665030 9.776839
v 7.465615 16.665030 9.752526
v 7.406922 16.665030 9.776839
v 7.382610 16.665030 9.835533
v 7.406922 16.665030 9.894227
v 7.465615 16.665030 9.918539
v 7.524309 16.665030 9.894227
v 7.548621 16.665030 9.835533
v 7.465615 16.681541 9.835533
vt 0.294829 0.013325
vt 0.697894 0.010718
vt 0.649243 0.141827
vt 0.353226 0.140392
vt 0.984595 0.293896
vt 0.857459 0.352165
vt 0.987094 0.696741
vt 0.855982 0.648066
vt 0.704098 0.983360
vt 0.645759 0.856250
vt 0.301340 0.986001
vt 0.349911 0.854847
vt 0.014606 0.703110
vt 0.141665 0.644670
vt 0.011831 0.300254
vt 0.142999 0.348748
vt 0.601791 0.266245
vt 0.407719 0.261888
vt 0.735926 0.406572
vt 0.731561 0.600614
vt 0.591296 0.734728
vt 0.397287 0.730391
vt 0.263148 0.590139
vt 0.267453 0.396083
vt 0.552286 0.384357
vt 0.456260 0.380412
vt 0.617397 0.455060
vt 0.613453 0.551089
vt 0.542772 0.616196
vt 0.446760 0.612255
vt 0.381650 0.541572
vt 0.385582 0.445541
vt 0.499522 0.498301
vn 0.376383 0.180743 -0.908663
vn 0.376383 0.180743 -0.908663
vn 0.376383 0.180743 -0.908663
vn 0.376383 0.180743 -0.908663
vn -0.376384 0.180742 -0.908663
vn -0.376384 0.180742 -0.908662
vn -0.376384 0.180742 -0.908663
vn -0.376384 0.180742 -0.908663
vn -0.908665 0.180735 -0.376381
vn -0.908665 0.180735 -0.376381
vn -0.908665 0.180735 -0.376381
vn -0.908665 0.180735 -0.376381
vn -0.908665 0.180735 0.376381
vn -0.908665 0.180735 0.376381
vn -0.908665 0.180735 0.376381
vn -0.908665 0.180735 0.376381
vn -0.376384 0.180742 0.908662
vn -0.376384 0.180742 0.908663
vn -0.376384 0.180742 0.908663
vn -0.376384 0.180742 0.908663
vn 0.376383 0.180743 0.908663
vn 0.376383 0.180743 0.908663
vn 0.376383 0.180743 0.908663
vn 0.376383 0.180743 0.908663
vn 0.908664 0.180739 0.376383
vn 0.908664 0.180739 0.376383
vn 0.908664 0.180739 0.376383
vn 0.908664 0.180739 0.376383
vn 0.908664 0.180739 -0.376383
vn 0.908664 0.180739 -0.376383
vn 0.908664 0.180739 -0.376383
vn 0.908664 0.180739 -0.376383
vn 0.325632 0.525295 -0.786148
vn 0.325632 0.525295 -0.786148
vn 0.325632 0.525295 -0.786148
vn 0.325632 0.525295 -0.786148
vn -0.325632 0.525295 -0.786148
vn -0.325632 0.525295 -0.786148
vn -0.325632 0.525295 -0.786148
vn -0.325632 0.525295 -0.786148
vn -0.786148 0.525297 -0.325630
vn -0.786148 0.525297 -0.325630
vn -0.786148 0.525297 -0.325630
vn -0.786148 0.525297 -0.325630
vn -0.786148 0.525297 0.325630
vn -0.786148 0.525297 0.325630
vn -0.786148 0.525297 0.325630
vn -0.786148 0.525297 0.325630
vn -0.325632 0.525295 0.786148
vn -0.325632 0.525295 0.786148
vn -0.325632 0.525295 0.786148
vn -0.325632 0.525295 0.786148
vn 0.325632 0.525295 0.786148
vn 0.325632 0.525295 0.786148
vn 0.325632 0.525295 0.786148
vn 0.325632 0.525295 0.786148
vn 0.786146 0.525297 0.325634
vn 0.786146 0.525297 0.325634
vn 0.786146 0.525297 0.325635
vn 0.786146 0.525297 0.325634
vn 0.786146 0.525297 -0.325635
vn 0.786146 0.525297 -0.325635
vn 0.786146 0.525297 -0.325635
vn 0.786146 0.525297 -0.325635
vn 0.224265 0.810286 -0.541426
vn 0.224265 0.810286 -0.541426
vn 0.224265 0.810286 -0.541426
vn 0.224265 0.810286 -0.541426
vn -0.224265 0.810287 -0.541425
vn -0.224265 0.810287 -0.541425
vn -0.224265 0.810287 -0.541425
vn -0.224265 0.810287 -0.541425
vn -0.541422 0.810289 -0.224263
vn -0.541422 0.810289 -0.224263
vn -0.541422 0.810289 -0.224263
vn -0.541422 0.810289 -0.224263
vn -0.541422 0.810289 0.224263
vn -0.541422 0.810289 0.224263
vn -0.541422 0.810289 0.224263
vn -0.541422 0.810289 0.224263
vn -0.224265 0.810287 0.541425
vn -0.224265 0.810287 0.541425
vn -0.224265 0.810287 0.541425
vn -0.224265 0.810287 0.541425
vn 0.224265 0.810286 0.541426
vn 0.224265 0.810286 0.541426
vn 0.224265 0.810286 0.541426
vn 0.224265 0.810286 0.541426
vn 0.541422 0.810289 0.224263
vn 0.541422 0.810289 0.224263
vn 0.541422 0.810289 0.224263
vn 0.541422 0.810289 0.224263
vn 0.541422 0.810289 -0.224263
vn 0.541422 0.810289 -0.224263
vn 0.541422 0.810289 -0.224263
vn 0.541422 0.810289 -0.224263
vn 0.080545 0.977600 -0.194450
vn 0.080545 0.977600 -0.194450
vn 0.080545 0.977600 -0.194450
vn -0.080546 0.977600 -0.194450
vn -0.080546 0.977600 -0.194450
vn -0.080546 0.977600 -0.194450
vn -0.194452 0.977600 -0.080546
vn -0.194452 0.977600 -0.080546
vn -0.194452 0.977600 -0.080546
vn -0.194452 0.977600 0.080546
vn -0.194452 0.977600 0.080546
vn -0.194452 0.977600 0.080546
vn -0.080546 0.977600 0.194450
vn -0.080546 0.977600 0.194450
vn -0.080546 0.977600 0.194450
vn 0.080545 0.977600 0.194450
vn 0.080545 0.977600 0.194450
vn 0.080545 0.977600 0.194450
vn 0.194452 0.977600 0.080543
vn 0.194452 0.977600 0.080543
vn 0.194452 0.977600 0.080543
vn 0.194452 0.977600 -0.080543
vn 0.194452 0.977600 -0.080543
vn 0.194452 0.977600 -0.080543
s off
g pSphere24 Rak_Taneman_2
usemtl lambert35SG
f 1/1/1 2/2/2 10/3/3 9/4/4
f 2/2/5 3/5/6 11/6/7 10/3/8
f 3/5/9 4/7/10 12/8/11 11/6/12
f 4/7/13 5/9/14 13/10/15 12/8/16
f 5/9/17 6/11/18 14/12/19 13/10/20
f 6/11/21 7/13/22 15/14/23 14/12/24
f 7/13/25 8/15/26 16/16/27 15/14/28
f 8/15/29 1/1/30 9/4/31 16/16/32
f 9/4/33 10/3/34 18/17/35 17/18/36
f 10/3/37 11/6/38 19/19/39 18/17/40
f 11/6/41 12/8/42 20/20/43 19/19/44
f 12/8/45 13/10/46 21/21/47 20/20/48
f 13/10/49 14/12/50 22/22/51 21/21/52
f 14/12/53 15/14/54 23/23/55 22/22/56
f 15/14/57 16/16/58 24/24/59 23/23/60
f 16/16/61 9/4/62 17/18/63 24/24/64
f 17/18/65 18/17/66 26/25/67 25/26/68
f 18/17/69 19/19/70 27/27/71 26/25/72
f 19/19/73 20/20/74 28/28/75 27/27/76
f 20/20/77 21/21/78 29/29/79 28/28/80
f 21/21/81 22/22/82 30/30/83 29/29/84
f 22/22/85 23/23/86 31/31/87 30/30/88
f 23/23/89 24/24/90 32/32/91 31/31/92
f 24/24/93 17/18/94 25/26/95 32/32/96
f 25/26/97 26/25/98 33/33/99
f 26/25/100 27/27/101 33/33/102
f 27/27/103 28/28/104 33/33/105
f 28/28/106 29/29/107 33/33/108
f 29/29/109 30/30/110 33/33/111
f 30/30/112 31/31/113 33/33/114
f 31/31/115 32/32/116 33/33/117
f 32/32/118 25/26/119 33/33/120
