# This file uses centimeters as units for non-parametric coordinates.

mtllib tanah kotak.mtl
g default
v -5.880937 26.865873 10.012114
v -0.434194 26.865873 10.012114
v -0.434194 26.865873 9.000152
v -5.880937 26.865873 9.000152
vt 0.000000 0.407104
vt 1.000000 0.407104
vt 1.000000 0.592896
vt 0.000000 0.592896
vn 0.000000 1.000000 0.000000
vn 0.000000 1.000000 0.000000
vn 0.000000 1.000000 0.000000
vn 0.000000 1.000000 0.000000
s off
g polySurface44 pCube82
usemtl lambert35SG
f 1/1/1 2/2/2 3/3/3 4/4/4
