# This file uses centimeters as units for non-parametric coordinates.

mtllib Crate.mtl
g default
v 11.780045 -11.239228 10.479830
v 12.620717 -11.239228 10.479830
v 12.620717 -10.469356 10.479830
v 11.780045 -10.469356 10.479830
v 11.780045 -3.662148 10.479830
v 12.620717 -3.662148 10.479830
v 12.620717 -3.662148 9.741433
v 11.780045 -3.662148 9.741433
v 11.780045 -10.469356 3.897673
v 12.620717 -10.469356 3.897673
v 12.620717 -11.239228 3.897673
v 11.780045 -11.239228 3.897673
v 11.780045 -11.239228 9.741433
v 12.620717 -11.239228 9.741433
v 25.505678 -11.239228 10.479830
v 25.505678 -11.239228 9.741433
v 25.505678 -10.469356 9.741433
v 25.505678 -10.469356 10.479830
v 11.780045 -10.469356 9.741433
v 24.665007 -3.662148 10.479830
v 25.505678 -3.662148 10.479830
v 25.505678 -3.662148 9.741433
v 24.665007 -3.662148 9.741433
v 24.665007 -11.239228 3.897673
v 24.665007 -10.469356 3.897673
v 25.505678 -10.469356 3.897673
v 25.505678 -11.239228 3.897673
v 24.665007 -11.239228 10.479830
v 24.665007 -11.239228 9.741433
v 24.665007 -10.469356 10.479830
v 23.207767 -10.469356 3.897673
v 14.077968 -10.469356 10.479830
v 12.620717 -4.432021 10.479830
v 23.207756 -4.432021 10.479830
v 11.780045 -4.432021 10.479830
v 11.780045 -4.432021 9.741433
v 11.780045 -3.662148 3.897673
v 12.620717 -3.662148 3.897673
v 12.620717 -4.432021 3.897673
v 11.780045 -4.432021 3.897673
v 24.665007 -4.432021 3.897673
v 14.077968 -4.432021 3.897673
v 24.665007 -3.662148 3.897673
v 25.505678 -4.432021 3.897673
v 25.505678 -3.662148 3.897673
v 25.505678 -4.432021 10.479830
v 25.505678 -4.432021 9.741433
v 24.665007 -4.432021 10.479830
v 12.620717 -10.025223 10.479830
v 11.780045 -5.292153 9.741433
v 12.620717 -4.876153 3.897673
v 24.665007 -10.025226 3.897673
v 25.505678 -9.609223 9.741433
v 24.665007 -4.876151 10.479830
v 11.780045 -10.469356 4.636071
v 11.780045 -9.609223 4.636071
v 11.780045 -11.239228 4.636071
v 12.620717 -11.239228 4.636071
v 24.665007 -11.239228 4.636071
v 25.505678 -11.239228 4.636071
v 25.505678 -10.469356 4.636071
v 25.505678 -4.432021 4.636071
v 25.505678 -5.292153 4.636071
v 25.505678 -3.662148 4.636071
v 24.665007 -3.662148 4.636071
v 12.620717 -3.662148 4.636071
v 11.780045 -3.662148 4.636071
v 11.780045 -4.432021 4.636071
v 11.780045 -10.469356 5.296980
v 25.505678 -10.469356 9.080523
v 25.505678 -4.432021 5.296980
v 11.780045 -4.432021 9.080523
v 12.620717 -10.025223 10.097244
v 12.620717 -4.432021 10.097244
v 23.207756 -4.432021 10.097244
v 14.077968 -4.432021 4.280259
v 24.665007 -10.025226 4.280259
v 24.665007 -4.432021 4.280259
v 12.162632 -10.469356 5.296980
v 12.162632 -5.292153 9.741433
v 12.162632 -10.469356 9.741433
v 25.123093 -9.609223 9.741433
v 25.123093 -4.432021 9.741433
v 25.123093 -4.432021 5.296980
v 14.077968 -10.469356 10.097244
v 24.665007 -4.876151 10.097244
v 24.665007 -10.469356 10.097244
v 12.162632 -4.432021 9.080523
v 12.162632 -9.609223 4.636071
v 12.162632 -4.432021 4.636071
v 25.123093 -10.469356 9.080523
v 25.123093 -5.292153 4.636071
v 25.123093 -10.469356 4.636071
v 23.207767 -10.469356 4.280259
v 12.620717 -4.876153 4.280259
v 12.620717 -10.469356 4.280259
v 12.212001 -10.884763 10.171909
v 25.073723 -10.884763 10.171909
v 25.073723 -4.016613 10.171909
v 12.212001 -4.016613 10.171909
v 12.212001 -4.016613 4.205594
v 25.073723 -4.016613 4.205594
v 25.073723 -10.884763 4.205594
v 12.212001 -10.884763 4.205594
vt 0.004950 0.410053
vt 0.028868 0.410053
vt 0.028868 0.436500
vt 0.004950 0.436500
vt 0.666233 0.464582
vt 0.644256 0.464582
vt 0.644256 0.439561
vt 0.666233 0.439561
vt 0.496208 0.031047
vt 0.472290 0.031047
vt 0.472290 0.005022
vt 0.496208 0.005022
vt 0.435997 0.407490
vt 0.459082 0.407490
vt 0.459082 0.433775
vt 0.435997 0.433775
vt 0.027685 0.470875
vt 0.004951 0.470875
vt 0.004951 0.446957
vt 0.027685 0.446957
vt 0.457156 0.469066
vt 0.434030 0.468959
vt 0.433967 0.444776
vt 0.457156 0.444154
vt 0.666233 0.848063
vt 0.644256 0.848063
vt 0.644256 0.823043
vt 0.666233 0.823043
vt 0.496208 0.429931
vt 0.472290 0.429931
vt 0.472290 0.403905
vt 0.496208 0.403905
vt 0.435997 0.004632
vt 0.459082 0.004632
vt 0.459082 0.030917
vt 0.435996 0.030917
vt 0.004950 0.004700
vt 0.028868 0.004700
vt 0.028868 0.031147
vt 0.004950 0.031147
vt 0.496208 0.358793
vt 0.028868 0.364209
vt 0.216429 0.076992
vt 0.240347 0.031147
vt 0.240347 0.410053
vt 0.216429 0.410053
vt 0.240347 0.436500
vt 0.216429 0.436500
vt 0.457140 0.681426
vt 0.434072 0.681430
vt 0.434064 0.657392
vt 0.457097 0.657382
vt 0.707687 0.031047
vt 0.683769 0.031047
vt 0.683769 0.005022
vt 0.707687 0.005022
vt 0.707686 0.403905
vt 0.683769 0.403905
vt 0.683769 0.076159
vt 0.707686 0.429931
vt 0.683769 0.429931
vt 0.027685 0.682354
vt 0.004951 0.682354
vt 0.004951 0.658436
vt 0.027685 0.658436
vt 0.216429 0.004700
vt 0.240347 0.004700
vt 0.216429 0.031147
vt 0.042666 0.410053
vt 0.434070 0.630539
vt 0.669971 0.031047
vt 0.510005 0.403905
vt 0.027685 0.497596
vt 0.202631 0.031147
vt 0.251330 0.468779
vt 0.274462 0.468789
vt 0.274469 0.495651
vt 0.251433 0.444522
vt 0.274524 0.444727
vt 0.253286 0.407490
vt 0.276372 0.407490
vt 0.276372 0.433775
vt 0.253286 0.433775
vt 0.253286 0.030917
vt 0.276372 0.030917
vt 0.253286 0.004632
vt 0.276372 0.004632
vt 0.207612 0.470875
vt 0.184877 0.470875
vt 0.184877 0.446957
vt 0.207612 0.446957
vt 0.184877 0.658436
vt 0.184877 0.631714
vt 0.207612 0.658436
vt 0.207612 0.682354
vt 0.184877 0.682354
vt 0.492311 0.848063
vt 0.470335 0.848063
vt 0.470335 0.823043
vt 0.492311 0.823043
vt 0.470335 0.464582
vt 0.492311 0.464582
vt 0.470335 0.439561
vt 0.492311 0.439561
vt 0.274757 0.681475
vt 0.251699 0.681490
vt 0.251685 0.657481
vt 0.274748 0.657461
vt 0.295131 0.468793
vt 0.048034 0.470875
vt 0.164528 0.658436
vt 0.413425 0.657420
vt 0.955273 0.686520
vt 0.955280 0.686520
vt 0.955278 0.686509
vt 0.955275 0.686509
vt 0.955277 0.686633
vt 0.959184 0.004565
vt 0.965718 0.004565
vt 0.965718 0.185411
vt 0.959184 0.185411
vt 0.978737 0.004565
vt 0.985272 0.004565
vt 0.985272 0.185411
vt 0.978737 0.185411
vt 0.963764 0.482971
vt 0.957228 0.482971
vt 0.957228 0.387430
vt 0.963764 0.387430
vt 0.684142 0.539292
vt 0.684142 0.615211
vt 0.677607 0.615211
vt 0.677607 0.539292
vt 0.703695 0.539750
vt 0.703695 0.615669
vt 0.697160 0.615669
vt 0.697160 0.539750
vt 0.686097 0.441251
vt 0.686097 0.529686
vt 0.679562 0.529686
vt 0.679562 0.441251
vt 0.705652 0.440353
vt 0.705652 0.528788
vt 0.699116 0.528788
vt 0.699116 0.440353
vt 0.979407 0.588941
vt 0.979407 0.664860
vt 0.972871 0.664860
vt 0.972871 0.588941
vt 0.684142 0.625601
vt 0.684142 0.701519
vt 0.677607 0.701519
vt 0.677607 0.625601
vt 0.961808 0.597220
vt 0.961808 0.673139
vt 0.955273 0.673139
vt 0.955273 0.597220
vt 0.703696 0.625867
vt 0.703696 0.701786
vt 0.697160 0.701786
vt 0.697160 0.625867
vt 0.995049 0.492362
vt 0.995049 0.580797
vt 0.988514 0.580797
vt 0.988514 0.492362
vt 0.993094 0.672010
vt 0.993094 0.747929
vt 0.986559 0.747929
vt 0.986559 0.672010
vt 0.975495 0.681609
vt 0.975495 0.757528
vt 0.968961 0.757528
vt 0.968961 0.681609
vt 0.961808 0.494318
vt 0.961808 0.582753
vt 0.955273 0.582753
vt 0.955273 0.494318
vt 0.957228 0.196194
vt 0.963763 0.196194
vt 0.963763 0.377040
vt 0.957228 0.377040
vt 0.976782 0.196194
vt 0.983317 0.196194
vt 0.983317 0.377040
vt 0.976782 0.377040
vt 0.983318 0.482971
vt 0.976782 0.482971
vt 0.976782 0.387430
vt 0.983318 0.387430
vt 0.955277 0.686633
vt 0.955277 0.686633
vt 0.202631 0.031147
vt 0.028868 0.364209
vt 0.028868 0.031147
vt 0.028868 0.364209
vt 0.202631 0.031147
vt 0.028868 0.031147
vn 0.000000 0.000000 1.000000
vn 0.000000 0.000000 1.000000
vn 0.000000 0.000000 1.000000
vn 0.000000 0.000000 1.000000
vn 0.000000 1.000000 0.000000
vn 0.000000 1.000000 0.000000
vn 0.000000 1.000000 0.000000
vn 0.000000 1.000000 0.000000
vn 0.000000 0.000000 -1.000000
vn 0.000000 0.000000 -1.000000
vn 0.000000 0.000000 -1.000000
vn 0.000000 0.000000 -1.000000
vn 0.000000 -1.000000 0.000000
vn 0.000000 -1.000000 0.000000
vn 0.000000 -1.000000 0.000000
vn 0.000000 -1.000000 0.000000
vn 1.000000 0.000000 0.000000
vn 1.000000 0.000000 0.000000
vn 1.000000 0.000000 0.000000
vn 1.000000 0.000000 0.000000
vn -1.000000 0.000000 0.000000
vn -1.000000 0.000000 0.000000
vn -1.000000 0.000000 0.000000
vn -1.000000 0.000000 0.000000
vn 0.000000 1.000000 0.000000
vn 0.000000 1.000000 0.000000
vn 0.000000 1.000000 0.000000
vn 0.000000 1.000000 0.000000
vn 0.000000 0.000000 -1.000000
vn 0.000000 0.000000 -1.000000
vn 0.000000 0.000000 -1.000000
vn 0.000000 0.000000 -1.000000
vn 0.000000 -1.000000 0.000000
vn 0.000000 -1.000000 0.000000
vn 0.000000 -1.000000 0.000000
vn 0.000000 -1.000000 0.000000
vn 0.000000 0.000000 1.000000
vn 0.000000 0.000000 1.000000
vn 0.000000 0.000000 1.000000
vn 0.000000 0.000000 1.000000
vn 0.000000 1.000000 0.000000
vn 0.000000 1.000000 0.000000
vn 0.000000 1.000000 0.000000
vn 0.000000 1.000000 0.000000
vn 0.000000 0.000000 -1.000000
vn 0.000000 0.000000 -1.000000
vn 0.000000 0.000000 -1.000000
vn 0.000000 -1.000000 0.000000
vn 0.000000 -1.000000 0.000000
vn 0.000000 -1.000000 0.000000
vn 0.000000 -1.000000 0.000000
vn 0.000000 0.000000 1.000000
vn 0.000000 0.000000 1.000000
vn 0.000000 0.000000 1.000000
vn 0.000000 0.000000 1.000000
vn 0.000000 0.000000 1.000000
vn 0.000000 0.000000 1.000000
vn 0.000000 0.000000 1.000000
vn 0.000000 0.000000 1.000000
vn 0.000000 0.000000 1.000000
vn 0.000000 0.000000 1.000000
vn 0.000000 0.000000 1.000000
vn -1.000000 0.000000 0.000000
vn -1.000000 0.000000 0.000000
vn -1.000000 0.000000 0.000000
vn -1.000000 0.000000 0.000000
vn 0.000000 0.000000 -1.000000
vn 0.000000 0.000000 -1.000000
vn 0.000000 0.000000 -1.000000
vn 0.000000 0.000000 -1.000000
vn 0.000000 0.000000 -1.000000
vn 0.000000 0.000000 -1.000000
vn 0.000000 0.000000 -1.000000
vn 0.000000 0.000000 -1.000000
vn 0.000000 0.000000 -1.000000
vn 0.000000 0.000000 -1.000000
vn 0.000000 0.000000 -1.000000
vn 0.000000 0.000000 -1.000000
vn 1.000000 0.000000 0.000000
vn 1.000000 0.000000 0.000000
vn 1.000000 0.000000 0.000000
vn 1.000000 0.000000 0.000000
vn 0.000000 0.000000 1.000000
vn 0.000000 0.000000 1.000000
vn 0.000000 0.000000 1.000000
vn 0.000000 0.000000 1.000000
vn 0.000000 0.000000 1.000000
vn 0.000000 0.000000 1.000000
vn 0.000000 0.000000 1.000000
vn 0.000000 0.000000 1.000000
vn -1.000000 0.000000 0.000000
vn -1.000000 0.000000 0.000000
vn -1.000000 0.000000 0.000000
vn -1.000000 0.000000 0.000000
vn 0.000000 0.000000 -1.000000
vn 0.000000 0.000000 -1.000000
vn 0.000000 0.000000 -1.000000
vn 0.000000 0.000000 -1.000000
vn 0.000000 0.000000 -1.000000
vn 0.000000 0.000000 -1.000000
vn 0.000000 0.000000 -1.000000
vn 1.000000 0.000000 0.000000
vn 1.000000 0.000000 0.000000
vn 1.000000 0.000000 0.000000
vn 1.000000 0.000000 0.000000
vn 0.000000 0.000000 1.000000
vn 0.000000 0.000000 1.000000
vn 0.000000 0.000000 1.000000
vn -1.000000 0.000000 0.000000
vn -1.000000 0.000000 0.000000
vn -1.000000 0.000000 0.000000
vn -1.000000 0.000000 0.000000
vn -1.000000 0.000000 0.000000
vn -1.000000 0.000000 0.000000
vn -1.000000 0.000000 0.000000
vn 0.000000 -1.000000 0.000000
vn 0.000000 -1.000000 0.000000
vn 0.000000 -1.000000 0.000000
vn 0.000000 -1.000000 0.000000
vn 0.000000 -1.000000 0.000000
vn 0.000000 -1.000000 0.000000
vn 0.000000 -1.000000 0.000000
vn 0.000000 -1.000000 0.000000
vn 0.000000 -1.000000 0.000000
vn 0.000000 -1.000000 0.000000
vn 0.000000 -1.000000 0.000000
vn 0.000000 -1.000000 0.000000
vn 1.000000 0.000000 0.000000
vn 1.000000 0.000000 0.000000
vn 1.000000 0.000000 0.000000
vn 1.000000 0.000000 0.000000
vn 1.000000 0.000000 0.000000
vn 1.000000 0.000000 0.000000
vn 1.000000 0.000000 0.000000
vn 1.000000 0.000000 0.000000
vn 1.000000 0.000000 0.000000
vn 1.000000 0.000000 0.000000
vn 1.000000 0.000000 0.000000
vn 0.000000 1.000000 0.000000
vn 0.000000 1.000000 0.000000
vn 0.000000 1.000000 0.000000
vn 0.000000 1.000000 0.000000
vn 0.000000 1.000000 0.000000
vn 0.000000 1.000000 0.000000
vn 0.000000 1.000000 0.000000
vn 0.000000 1.000000 0.000000
vn 0.000000 1.000000 0.000000
vn 0.000000 1.000000 0.000000
vn 0.000000 1.000000 0.000000
vn 0.000000 1.000000 0.000000
vn -1.000000 0.000000 0.000000
vn -1.000000 0.000000 0.000000
vn -1.000000 0.000000 0.000000
vn -1.000000 0.000000 0.000000
vn -1.000000 0.000000 0.000000
vn -1.000000 0.000000 0.000000
vn -1.000000 0.000000 0.000000
vn -1.000000 0.000000 0.000000
vn 0.000000 -1.000000 0.000000
vn 0.000000 -1.000000 0.000000
vn 0.000000 -1.000000 0.000000
vn 0.000000 -1.000000 0.000000
vn 0.000000 -1.000000 0.000000
vn 0.000000 -1.000000 0.000000
vn 0.000000 -1.000000 0.000000
vn 0.000000 -1.000000 0.000000
vn 0.000000 -1.000000 0.000000
vn 0.000000 -1.000000 0.000000
vn 0.000000 -1.000000 0.000000
vn 0.000000 -1.000000 0.000000
vn 1.000000 0.000000 0.000000
vn 1.000000 0.000000 0.000000
vn 1.000000 0.000000 0.000000
vn 1.000000 0.000000 0.000000
vn 1.000000 0.000000 0.000000
vn 1.000000 0.000000 0.000000
vn 1.000000 0.000000 0.000000
vn 0.000000 1.000000 0.000000
vn 0.000000 1.000000 0.000000
vn 0.000000 1.000000 0.000000
vn 0.000000 1.000000 0.000000
vn 0.000000 1.000000 0.000000
vn 0.000000 1.000000 0.000000
vn 0.000000 1.000000 0.000000
vn 0.000000 1.000000 0.000000
vn 0.000000 1.000000 0.000000
vn 0.000000 1.000000 0.000000
vn 0.000000 1.000000 0.000000
vn 0.000000 1.000000 0.000000
vn -1.000000 0.000000 0.000000
vn -1.000000 0.000000 0.000000
vn -1.000000 0.000000 0.000000
vn 0.000000 0.000000 1.000000
vn 0.000000 0.000000 1.000000
vn 0.000000 0.000000 1.000000
vn 0.000000 0.000000 1.000000
vn 0.000000 0.000000 1.000000
vn 0.000000 0.000000 1.000000
vn 0.000000 0.000000 1.000000
vn 0.000000 0.000000 1.000000
vn 0.000000 0.000000 1.000000
vn 0.000000 0.000000 1.000000
vn 0.000000 0.000000 1.000000
vn 0.000000 0.000000 1.000000
vn 0.000000 0.000000 1.000000
vn 0.000000 0.000000 1.000000
vn 0.000000 0.000000 1.000000
vn 0.000000 0.000000 1.000000
vn 0.000000 0.000000 1.000000
vn 0.000000 0.000000 1.000000
vn 0.000000 0.000000 1.000000
vn 0.000000 0.000000 1.000000
vn -1.000000 0.000000 0.000000
vn -1.000000 0.000000 0.000000
vn -1.000000 0.000000 0.000000
vn -1.000000 0.000000 0.000000
vn -1.000000 0.000000 0.000000
vn -1.000000 0.000000 0.000000
vn -1.000000 0.000000 0.000000
vn -1.000000 0.000000 0.000000
vn -1.000000 0.000000 0.000000
vn -1.000000 0.000000 0.000000
vn -1.000000 0.000000 0.000000
vn -1.000000 0.000000 0.000000
vn -1.000000 0.000000 0.000000
vn -1.000000 0.000000 0.000000
vn -1.000000 0.000000 0.000000
vn -1.000000 0.000000 0.000000
vn -1.000000 0.000000 0.000000
vn -1.000000 0.000000 0.000000
vn -1.000000 0.000000 0.000000
vn -1.000000 0.000000 0.000000
vn 1.000000 0.000000 0.000000
vn 1.000000 0.000000 0.000000
vn 1.000000 0.000000 0.000000
vn 1.000000 0.000000 0.000000
vn 1.000000 0.000000 0.000000
vn 1.000000 0.000000 0.000000
vn 1.000000 0.000000 0.000000
vn 1.000000 0.000000 0.000000
vn 1.000000 0.000000 0.000000
vn 1.000000 0.000000 0.000000
vn 1.000000 0.000000 0.000000
vn 1.000000 0.000000 0.000000
vn 1.000000 0.000000 0.000000
vn 1.000000 0.000000 0.000000
vn 1.000000 0.000000 0.000000
vn 1.000000 0.000000 0.000000
vn 1.000000 0.000000 0.000000
vn 1.000000 0.000000 0.000000
vn 1.000000 0.000000 0.000000
vn 1.000000 0.000000 0.000000
vn 0.000000 0.000000 -1.000000
vn 0.000000 0.000000 -1.000000
vn 0.000000 0.000000 -1.000000
vn 0.000000 0.000000 -1.000000
vn 0.000000 0.000000 -1.000000
vn 0.000000 0.000000 -1.000000
vn 0.000000 0.000000 -1.000000
vn 0.000000 0.000000 -1.000000
vn 0.000000 0.000000 -1.000000
vn 0.000000 0.000000 -1.000000
vn 0.000000 0.000000 -1.000000
vn 0.000000 0.000000 -1.000000
vn 0.000000 0.000000 -1.000000
vn 0.000000 0.000000 -1.000000
vn 0.000000 0.000000 -1.000000
vn 0.000000 0.000000 -1.000000
vn 0.000000 0.000000 -1.000000
vn 0.000000 0.000000 -1.000000
vn 0.000000 0.000000 -1.000000
vn 0.000000 0.000000 -1.000000
vn 1.000000 0.000000 0.000000
vn 1.000000 0.000000 0.000000
vn 1.000000 0.000000 0.000000
vn 1.000000 0.000000 0.000000
vn -0.467124 0.884192 0.000000
vn -0.467124 0.884192 0.000000
vn -0.467124 0.884192 0.000000
vn -0.467124 0.884192 0.000000
vn 0.000000 -1.000000 0.000000
vn 0.000000 -1.000000 0.000000
vn 0.000000 -1.000000 0.000000
vn 0.000000 -1.000000 0.000000
vn 0.467125 0.884191 0.000000
vn 0.467125 0.884191 0.000000
vn 0.467125 0.884191 0.000000
vn 0.467125 0.884191 0.000000
vn 0.000000 -1.000000 0.000000
vn 0.000000 -1.000000 0.000000
vn 0.000000 -1.000000 0.000000
vn 0.000000 -1.000000 0.000000
vn -1.000000 0.000000 0.000000
vn -1.000000 0.000000 0.000000
vn -1.000000 0.000000 0.000000
vn -1.000000 0.000000 0.000000
vn 0.000000 -0.651370 0.758761
vn 0.000000 -0.651370 0.758761
vn 0.000000 -0.651370 0.758761
vn 0.000000 -0.651370 0.758761
vn 0.000000 1.000000 0.000000
vn 0.000000 1.000000 0.000000
vn 0.000000 1.000000 0.000000
vn 0.000000 1.000000 0.000000
vn 0.000000 0.000000 -1.000000
vn 0.000000 0.000000 -1.000000
vn 0.000000 0.000000 -1.000000
vn 0.000000 0.000000 -1.000000
vn 0.000000 0.000000 -1.000000
vn 0.000000 0.000000 -1.000000
vn 0.000000 0.000000 -1.000000
vn 0.000000 0.000000 -1.000000
vn 0.000000 0.651370 0.758761
vn 0.000000 0.651370 0.758761
vn 0.000000 0.651370 0.758761
vn 0.000000 0.651370 0.758761
vn 0.000000 -1.000000 0.000000
vn 0.000000 -1.000000 0.000000
vn 0.000000 -1.000000 0.000000
vn 0.000000 -1.000000 0.000000
vn 0.467125 -0.884191 0.000000
vn 0.467125 -0.884191 0.000000
vn 0.467125 -0.884191 0.000000
vn 0.467125 -0.884191 0.000000
vn 0.000000 1.000000 0.000000
vn 0.000000 1.000000 0.000000
vn 0.000000 1.000000 0.000000
vn 0.000000 1.000000 0.000000
vn -1.000000 0.000000 0.000000
vn -1.000000 0.000000 0.000000
vn -1.000000 0.000000 0.000000
vn -1.000000 0.000000 0.000000
vn 0.000000 0.651370 -0.758761
vn 0.000000 0.651370 -0.758761
vn 0.000000 0.651370 -0.758761
vn 0.000000 0.651370 -0.758761
vn 0.000000 -1.000000 0.000000
vn 0.000000 -1.000000 0.000000
vn 0.000000 -1.000000 0.000000
vn 0.000000 -1.000000 0.000000
vn 0.000000 0.000000 1.000000
vn 0.000000 0.000000 1.000000
vn 0.000000 0.000000 1.000000
vn 0.000000 0.000000 1.000000
vn 0.000000 -0.651370 -0.758761
vn 0.000000 -0.651370 -0.758761
vn 0.000000 -0.651370 -0.758761
vn 0.000000 -0.651370 -0.758761
vn 0.000000 1.000000 0.000000
vn 0.000000 1.000000 0.000000
vn 0.000000 1.000000 0.000000
vn 0.000000 1.000000 0.000000
vn 0.000000 0.000000 1.000000
vn 0.000000 0.000000 1.000000
vn 0.000000 0.000000 1.000000
vn 0.000000 0.000000 1.000000
vn -0.467124 -0.884192 0.000000
vn -0.467124 -0.884192 0.000000
vn -0.467124 -0.884192 0.000000
vn -0.467124 -0.884192 0.000000
vn 0.000000 1.000000 0.000000
vn 0.000000 1.000000 0.000000
vn 0.000000 1.000000 0.000000
vn 0.000000 1.000000 0.000000
vn 1.000000 0.000000 0.000000
vn 1.000000 0.000000 0.000000
vn 1.000000 0.000000 0.000000
vn 1.000000 0.000000 0.000000
s off
g crate:border_lowLow Crate01
usemtl aiToon1SG
f 2/1/1 3/2/2 4/3/3 1/4/4
f 6/5/5 7/6/6 8/7/7 5/8/8
f 10/9/9 11/10/10 12/11/11 9/12/12
f 14/13/13 2/14/14 1/15/15 13/16/16
f 17/17/17 18/18/18 15/19/19 16/20/20
f 4/21/21 19/22/22 13/23/23 1/24/24
f 21/25/25 22/26/26 23/27/27 20/28/28
f 26/29/29 27/30/30 24/31/31 25/32/32
f 16/33/33 15/34/34 28/35/35 29/36/36
f 15/37/37 18/38/38 30/39/39 28/40/40
f 20/28/41 23/27/42 7/6/43 6/5/44
f 24/31/45 31/41/46 25/32/47
f 29/36/48 28/35/49 2/14/50 14/13/51
f 3/2/52 2/1/53 32/42/54
f 34/43/55 20/44/56 6/45/57 33/46/58
f 33/46/59 6/45/60 5/47/61 35/48/62
f 5/49/63 8/50/64 36/51/65 35/52/66
f 38/53/67 39/54/68 40/55/69 37/56/70
f 43/57/71 41/58/72 42/59/73 38/53/74
f 45/60/75 44/61/76 41/58/77 43/57/78
f 22/62/79 21/63/80 46/64/81 47/65/82
f 46/66/83 21/67/84 20/44/85 48/68/86
f 49/69/87 33/46/88 35/48/89 4/3/90
f 35/52/91 50/70/92 19/22/93 4/21/94
f 40/55/95 39/54/96 51/71/97
f 44/61/98 26/29/99 52/72/100 41/58/101
f 47/65/102 46/64/103 18/18/104 53/73/105
f 46/66/106 48/68/107 54/74/108
f 9/75/109 55/76/110 56/77/111
f 55/76/112 9/75/113 12/78/114 57/79/115
f 11/80/116 58/81/117 57/82/118 12/83/119
f 24/84/120 59/85/121 58/81/122 11/80/123
f 27/86/124 60/87/125 59/85/126 24/84/127
f 26/88/128 61/89/129 60/90/130 27/91/131
f 62/92/132 63/93/133 44/94/134
f 45/95/135 64/96/136 62/92/137 44/94/138
f 64/97/139 45/98/140 43/99/141 65/100/142
f 65/100/143 43/99/144 38/101/145 66/102/146
f 66/102/147 38/101/148 37/103/149 67/104/150
f 67/105/151 37/106/152 40/107/153 68/108/154
f 19/22/155 69/109/156 57/79/157 13/23/158
f 58/81/159 14/13/160 13/16/161 57/82/162
f 59/85/163 29/36/164 14/13/165 58/81/166
f 60/87/167 16/33/168 29/36/169 59/85/170
f 17/17/171 16/20/172 70/110/173
f 64/96/174 22/62/175 47/65/176 71/111/177
f 22/26/178 64/97/179 65/100/180 23/27/181
f 23/27/182 65/100/183 66/102/184 7/6/185
f 7/6/186 66/102/187 67/104/188 8/7/189
f 8/50/190 72/112/191 36/51/192
f 4/3/193 3/2/194 49/69/195
f 54/74/196 48/68/197 34/43/198 49/69/199 3/2/200 32/42/201
f 20/44/202 34/43/203 48/68/204
f 28/40/205 30/39/206 32/42/207 2/1/208
f 18/38/209 46/66/210 54/74/211 30/39/212
f 8/50/213 67/105/214 68/108/215 72/112/216
f 68/108/217 40/107/218 9/75/219 56/77/220
f 50/70/221 35/52/222 36/51/223
f 36/51/224 72/112/225 56/77/226 55/76/227 69/109/228 50/70/229
f 57/79/230 69/109/231 55/76/232
f 18/18/233 17/17/234 53/73/235
f 62/92/236 71/111/237 53/73/238 17/17/239 70/110/240 63/93/241
f 64/96/242 71/111/243 62/92/244
f 61/89/245 70/110/246 16/20/247 60/90/248
f 44/94/249 63/93/250 61/89/251 26/88/252
f 26/29/253 25/32/254 52/72/255
f 52/72/256 25/32/257 31/41/258 51/71/259 39/54/260 42/59/261
f 38/53/262 42/59/263 39/54/264
f 31/41/265 24/31/266 11/10/267 10/9/268
f 51/71/269 10/9/270 9/12/271 40/55/272
f 74/113/273 33/114/274 49/115/275 73/116/276
f 34/117/277 75/190/278 73/116/279 49/115/280
f 75/191/281 34/117/282 33/114/283 74/113/284
f 77/118/285 52/119/286 42/120/287 76/121/288
f 41/122/289 78/123/290 76/124/291 42/125/292
f 78/126/293 41/127/294 52/128/295 77/129/296
f 79/130/297 80/131/298 50/132/299 69/133/300
f 81/134/301 79/135/302 69/136/303 19/137/304
f 80/138/305 81/139/306 19/140/307 50/141/308
f 47/142/309 53/143/310 82/144/311 83/145/312
f 53/146/313 71/147/314 84/148/315 82/149/316
f 71/150/317 47/151/318 83/152/319 84/153/320
f 86/192/321 54/74/322 32/42/323 85/193/324
f 30/39/325 87/194/326 85/195/327 32/42/328
f 54/74/329 86/196/330 87/197/331 30/39/332
f 88/154/333 89/155/334 56/156/335 72/157/336
f 90/158/337 88/159/338 72/160/339 68/161/340
f 89/162/341 90/163/342 68/164/343 56/165/344
f 63/166/345 70/167/346 91/168/347 92/169/348
f 70/170/349 61/171/350 93/172/351 91/173/352
f 61/174/353 63/175/354 92/176/355 93/177/356
f 31/178/357 94/179/358 95/180/359 51/181/360
f 94/182/361 31/183/362 10/184/363 96/185/364
f 51/186/365 95/187/366 96/188/367 10/189/368
g default
v 25.073723 -10.884763 10.171909
v 25.073723 -4.016613 10.171909
v 12.212001 -4.016613 10.171909
v 12.212001 -10.884763 10.171909
v 25.073723 -4.016613 4.205594
v 25.073723 -10.884763 4.205594
v 12.212001 -10.884763 4.205594
v 12.212001 -4.016613 4.205594
vt 0.720625 0.006091
vt 0.946293 0.006091
vt 0.946293 0.428691
vt 0.720625 0.428691
vt 0.718670 0.440188
vt 0.944338 0.440188
vt 0.944338 0.862789
vt 0.718670 0.862789
vt 0.200986 0.917629
vt 0.004951 0.917629
vt 0.004951 0.691961
vt 0.200986 0.691961
vt 0.410215 0.917629
vt 0.214178 0.917629
vt 0.214178 0.691961
vt 0.410215 0.691961
vn 0.000000 0.000000 1.000000
vn 0.000000 0.000000 1.000000
vn 0.000000 0.000000 1.000000
vn 0.000000 0.000000 1.000000
vn 0.000000 0.000000 -1.000000
vn 0.000000 0.000000 -1.000000
vn 0.000000 0.000000 -1.000000
vn 0.000000 0.000000 -1.000000
vn 1.000000 0.000000 0.000000
vn 1.000000 0.000000 0.000000
vn 1.000000 0.000000 0.000000
vn 1.000000 0.000000 0.000000
vn -1.000000 0.000000 0.000000
vn -1.000000 0.000000 0.000000
vn -1.000000 0.000000 0.000000
vn -1.000000 0.000000 0.000000
s off
g Crate01 crate:LowBox_low
usemtl aiToon1SG
f 105/198/369 106/199/370 107/200/371 108/201/372
f 109/202/373 110/203/374 111/204/375 112/205/376
f 109/206/377 106/207/378 105/208/379 110/209/380
f 107/210/381 112/211/382 111/212/383 108/213/384
