# This file uses centimeters as units for non-parametric coordinates.

mtllib room.mtl
g default
v -9.687307 -0.045428 5.822918
v 9.687307 -0.045428 5.822918
v -9.687307 11.083582 5.822918
v 9.687307 11.083582 5.822918
v -9.687307 11.083582 -11.212950
v 9.687307 11.083582 -11.212950
v -9.654547 0.039802 -11.212950
v 9.687307 -0.045427 -11.212950
v -9.687307 11.083582 -5.637315
v -9.665268 0.011908 -5.637315
v 9.687307 -0.045427 -5.637315
v 9.687307 11.083582 -5.637315
v -9.687307 11.083582 -1.267093
v -9.673672 -0.009957 -1.267092
v 9.687307 -0.045428 -1.267092
v 9.687307 11.083582 -1.267093
v -9.687307 8.697846 5.822918
v -9.684384 8.705450 -1.267093
v -9.682582 8.710137 -5.637315
v -9.680284 8.716116 -11.212950
v 9.687307 8.697846 -11.212950
v 9.687307 8.697846 -5.637315
v 9.687307 8.697846 -1.267093
v 9.687307 8.697846 5.822918
vt 0.321071 0.918775
vt 0.320845 0.787431
vt 0.863757 0.602113
vt 0.994952 0.601935
vt 0.320490 0.603180
vt 0.320547 0.559305
vt 0.679392 0.558447
vt 0.679458 0.602641
vt 0.320760 0.398568
vt 0.217448 0.397906
vt 0.678502 0.293073
vt 0.679143 0.396446
vt 0.782657 0.558274
vt 0.782768 0.602453
vt 0.217240 0.559042
vt 0.320682 0.706489
vt 0.136303 0.558823
vt 0.136432 0.397404
vt 0.863428 0.396073
vt 0.863649 0.557944
vt 0.005006 0.558571
vt 0.005154 0.396647
vt 0.677172 0.080745
vt 0.994897 0.557779
vt 0.679723 0.786898
vt 0.679594 0.705945
vt 0.677978 0.212082
vt 0.994690 0.395884
vt 0.319294 0.214273
vt 0.318236 0.082934
vt 0.136282 0.602845
vt 0.217150 0.602990
vt 0.319948 0.295250
vt 0.782436 0.396359
vt 0.679950 0.918243
vt 0.004994 0.602768
vn 0.000000 -1.000000 0.000000
vn 0.000000 -1.000000 0.000000
vn 0.000000 -1.000000 0.000000
vn 0.000000 -1.000000 0.000000
vn 0.000000 0.000000 1.000000
vn 0.000000 0.000000 1.000000
vn 0.000000 0.000000 1.000000
vn 0.000000 0.000000 1.000000
vn 0.003684 0.999990 0.002505
vn 0.003118 0.999992 0.002505
vn 0.003119 0.999992 0.002505
vn 0.003684 0.999990 0.002505
vn -1.000000 0.000000 0.000000
vn -1.000000 0.000000 0.000000
vn -1.000000 0.000000 0.000000
vn -1.000000 0.000000 0.000000
vn 0.999997 0.002096 0.000967
vn 0.999996 0.002478 0.000967
vn 0.999997 0.002478 0.000207
vn 0.999998 0.002096 0.000207
vn 0.999999 0.000993 0.000964
vn 0.999999 0.000993 0.000207
vn 0.001480 0.999996 0.002503
vn 0.001480 0.999996 0.002503
vn -1.000000 -0.000000 0.000000
vn -1.000000 -0.000000 0.000000
vn 0.000000 -1.000000 0.000000
vn 0.000000 -1.000000 0.000000
vn 0.000000 -1.000000 0.000000
vn 0.000000 -1.000000 0.000000
vn 0.999999 0.000614 0.000963
vn 1.000000 0.000614 0.000206
vn 0.000916 0.999996 0.002502
vn 0.000916 0.999996 0.002502
vn -1.000000 -0.000000 0.000000
vn -1.000000 -0.000000 0.000000
vn 0.999999 0.000991 0.001171
vn 0.999999 0.000614 0.001170
vn 0.999997 0.002094 0.001174
vn 0.999996 0.002478 0.001175
vn 0.000000 0.000000 1.000000
vn 0.000000 0.000000 1.000000
vn -1.000000 0.000000 0.000000
vn -1.000000 0.000000 0.000000
vn -1.000000 0.000000 0.000000
vn -1.000000 0.000000 0.000000
s 1
g ROOM
usemtl lambert31SG
f 3/1/1 13/2/2 16/25/3 4/35/4
s 2
f 5/5/5 20/6/6 21/7/7 6/8/8
s 3
f 7/9/9 10/33/10 11/11/11 8/12/12
s 4
f 21/7/13 22/13/14 12/14/15 6/8/16
s 5
f 19/15/17 20/6/18 5/5/19 9/32/20
f 18/17/21 19/15/17 9/32/20 13/31/22
s 3
f 11/11/11 10/33/10 14/29/23 15/27/24
s 4
f 22/13/14 23/20/25 16/3/26 12/14/15
s 1
f 9/16/27 5/5/28 6/8/29 12/26/30
s 5
f 17/21/31 18/17/21 13/31/22 3/36/32
s 3
f 15/27/24 14/29/23 1/30/33 2/23/34
s 4
f 23/20/25 24/24/35 4/4/36 16/3/26
s 1
f 13/2/2 9/16/27 12/26/30 16/25/3
s 5
f 14/18/37 18/17/21 17/21/31 1/22/38
f 10/10/39 19/15/17 18/17/21 14/18/37
f 7/9/40 20/6/18 19/15/17 10/10/39
s 2
f 21/7/7 20/6/6 7/9/41 8/12/42
s 4
f 11/34/43 22/13/14 21/7/13 8/12/44
f 2/28/45 24/24/35 23/20/25 15/19/46
