# This file uses centimeters as units for non-parametric coordinates.

mtllib BAK TANEMAN 2.mtl
g default
v -0.356221 24.926918 6.958221
v -0.356214 24.917145 6.934626
v -0.332620 24.926918 6.934613
v -0.322846 24.950514 6.934626
v -0.332620 24.950514 6.958220
v -0.356214 24.950514 6.967994
v -0.356227 24.926918 5.573699
v -0.356214 24.950514 5.563926
v -0.332620 24.950514 5.573699
v -0.322846 24.950514 5.597294
v -0.332620 24.926918 5.597300
v -0.356214 24.917145 5.597294
v -0.369051 25.732138 6.924555
v -0.397047 25.732138 6.933381
v -0.367984 25.722580 6.958189
v -0.355541 25.699440 6.967994
v -0.332421 25.699778 6.958614
v -0.322846 25.700108 6.935966
v -0.332873 25.722755 6.926282
v -0.357455 25.732138 6.903249
v -0.369051 25.732138 5.607365
v -0.357455 25.732138 5.628671
v -0.332920 25.722559 5.606070
v -0.322846 25.699438 5.596624
v -0.332224 25.699774 5.573502
v -0.354868 25.700113 5.563925
v -0.367526 25.722780 5.573698
v -0.397047 25.732138 5.598540
v -6.082640 25.732138 6.924554
v -6.094236 25.732138 6.903248
v -6.118772 25.722559 6.925850
v -6.128845 25.699438 6.935296
v -6.119467 25.699774 6.958418
v -6.096823 25.700113 6.967993
v -6.084166 25.722780 6.958222
v -6.054645 25.732138 6.933380
v -6.082640 25.732138 5.607365
v -6.054645 25.732138 5.598539
v -6.083708 25.722580 5.573730
v -6.096149 25.699440 5.563926
v -6.119270 25.699778 5.573305
v -6.128845 25.700108 5.595954
v -6.118819 25.722755 5.605637
v -6.094236 25.732138 5.628672
v -6.095464 24.926918 6.958220
v -6.095477 24.950514 6.967994
v -6.119072 24.950514 6.958221
v -6.128845 24.950514 6.934626
v -6.119072 24.926918 6.934620
v -6.095477 24.917145 6.934626
v -6.095470 24.926918 5.573699
v -6.095477 24.917145 5.597294
v -6.119072 24.926918 5.597306
v -6.128845 24.950514 5.597294
v -6.119072 24.950514 5.573699
v -6.095477 24.950514 5.563926
v -0.484081 25.699432 6.819969
v -0.507262 25.699352 6.829524
v -0.497335 25.722538 6.839482
v -0.472924 25.732138 6.863018
v -0.449864 25.732138 6.852762
v -0.440316 25.732138 6.828007
v -0.464479 25.722584 6.806033
v -0.474479 25.699516 6.796903
v -0.484081 25.699432 5.711950
v -0.474479 25.699516 5.735015
v -0.464592 25.722584 5.725846
v -0.440595 25.732138 5.703899
v -0.450062 25.732138 5.678896
v -0.472906 25.732138 5.668540
v -0.497373 25.722542 5.692286
v -0.507262 25.699352 5.702395
v -5.967611 25.699432 5.711949
v -5.944430 25.699352 5.702395
v -5.954357 25.722538 5.692437
v -5.978769 25.732138 5.668901
v -6.001829 25.732138 5.679157
v -6.011376 25.732138 5.703911
v -5.987214 25.722584 5.725886
v -5.977213 25.699516 5.735016
v -5.967611 25.699432 6.819969
v -5.977213 25.699516 6.796903
v -5.987100 25.722584 6.806072
v -6.011096 25.732138 6.828020
v -6.001630 25.732138 6.853024
v -5.978787 25.732138 6.863379
v -5.954319 25.722542 6.839633
v -5.944430 25.699352 6.829524
v -0.507855 25.092438 6.819750
v -0.507848 25.116034 6.829524
v -0.484253 25.116034 6.819750
v -0.474479 25.116034 6.796155
v -0.484253 25.092438 6.796147
v -0.507855 25.092438 5.712169
v -0.484253 25.092438 5.735772
v -0.474479 25.116034 5.735764
v -0.484253 25.116034 5.712169
v -0.507848 25.116034 5.702395
v -5.967440 25.092438 5.735772
v -5.943839 25.092438 5.712168
v -5.943846 25.116034 5.702395
v -5.967440 25.116034 5.712168
v -5.977213 25.116034 5.735764
v -5.943839 25.092438 6.819750
v -5.967440 25.092438 6.796146
v -5.977213 25.116034 6.796155
v -5.967440 25.116034 6.819750
v -5.943846 25.116034 6.829524
v -0.336958 24.931255 6.953879
v -0.336961 24.931255 5.578038
v -0.343089 25.722664 6.948676
v -0.342976 25.722664 5.583360
v -6.108716 25.722664 6.948561
v -6.108602 25.722664 5.583245
v -6.114730 24.931255 6.953882
v -6.114734 24.931255 5.578040
v -0.474181 25.722563 6.829743
v -0.474284 25.722569 5.702049
v -5.977512 25.722563 5.702176
v -5.977409 25.722569 6.829870
v -0.488592 25.096775 6.815411
v -0.488592 25.096775 5.716508
v -5.963101 25.096775 5.716508
v -5.963101 25.096775 6.815410
vt 0.596632 0.395635
vt 0.600858 0.395162
vt 0.604062 0.601136
vt 0.599829 0.600788
vt 0.607026 0.394330
vt 0.610225 0.601744
vt 0.597617 0.387042
vt 0.596991 0.393040
vt 0.399733 0.396637
vt 0.398944 0.390663
vt 0.400170 0.399210
vt 0.606754 0.392662
vt 0.601233 0.196626
vt 0.798456 0.389755
vt 0.597832 0.196463
vt 0.389774 0.398254
vt 0.395937 0.398862
vt 0.399141 0.604836
vt 0.392973 0.605668
vt 0.403367 0.604364
vt 0.395419 0.391084
vt 0.196052 0.399979
vt 0.395704 0.196220
vt 0.196140 0.401620
vt 0.809026 0.390890
vt 0.810025 0.389710
vt 0.585227 0.184663
vt 0.819459 0.392404
vt 0.592758 0.188026
vt 0.581481 0.185001
vt 0.804576 0.390275
vt 0.809847 0.597607
vt 0.803859 0.598378
vt 0.814224 0.596813
vt 0.596287 0.190607
vt 0.397179 0.190293
vt 0.400635 0.187697
vt 0.397394 0.187378
vt 0.174107 0.404081
vt 0.411902 0.184729
vt 0.185775 0.403185
vt 0.175361 0.405108
vt 0.190152 0.402391
vt 0.195423 0.609723
vt 0.190973 0.609108
vt 0.201543 0.610243
vt 0.599365 0.812301
vt 0.602606 0.812620
vt 0.825892 0.595917
vt 0.588098 0.815269
vt 0.824638 0.594890
vt 0.604297 0.803778
vt 0.602822 0.809705
vt 0.403713 0.809391
vt 0.402169 0.803536
vt 0.407242 0.811973
vt 0.803947 0.600019
vt 0.604580 0.608914
vt 0.601055 0.609335
vt 0.189974 0.610288
vt 0.414774 0.815336
vt 0.180539 0.607594
vt 0.418520 0.814997
vt 0.398768 0.803373
vt 0.393245 0.607337
vt 0.402382 0.612957
vt 0.600266 0.603361
vt 0.403008 0.606959
vt 0.829890 0.393539
vt 0.830111 0.391903
vt 0.579187 0.026374
vt 0.982941 0.396256
vt 0.576629 0.176403
vt 0.575650 0.026396
vt 0.823763 0.392983
vt 0.828936 0.594140
vt 0.835085 0.593349
vt 0.578114 0.182377
vt 0.415253 0.182142
vt 0.416720 0.176233
vt 0.413261 0.176183
vt 0.018265 0.410931
vt 0.417202 0.026264
vt 0.164914 0.406649
vt 0.018468 0.412605
vt 0.171063 0.405858
vt 0.176236 0.607016
vt 0.170109 0.606459
vt 0.169888 0.608095
vt 0.420814 0.973625
vt 0.017058 0.603742
vt 0.423371 0.823595
vt 0.424351 0.973602
vt 0.421886 0.817621
vt 0.584747 0.817856
vt 0.583280 0.823765
vt 0.586739 0.823814
vt 0.981734 0.589066
vt 0.582799 0.973734
vt 0.981531 0.587393
vt 0.989178 0.396084
vt 0.987766 0.587498
vt 0.575642 0.020320
vt 0.417194 0.020189
vt 0.012233 0.412500
vt 0.010821 0.603914
vt 0.424359 0.979678
vt 0.582807 0.979809
vt 0.600854 0.393598
vt 0.395890 0.397305
vt 0.805377 0.388898
vt 0.393739 0.190205
vt 0.606261 0.809792
vt 0.194622 0.611101
vt 0.604109 0.602693
vt 0.399145 0.606400
vt 0.824529 0.391493
vt 0.411676 0.182003
vt 0.175470 0.608505
vt 0.588324 0.817995
vt 0.578526 0.021422
vt 0.013211 0.411377
vt 0.421475 0.978577
vt 0.986788 0.588621
vt 0.585689 0.978700
vt 0.586338 0.973745
vt 0.011815 0.605028
vt 0.016892 0.605420
vt 0.414313 0.021298
vt 0.413664 0.026252
vt 0.983107 0.394577
vt 0.988183 0.394970
vt 0.591882 0.815622
vt 0.829768 0.595596
vt 0.835353 0.594979
vt 0.179344 0.608673
vt 0.418322 0.817756
vt 0.419912 0.823655
vt 0.408118 0.184376
vt 0.170231 0.404403
vt 0.164646 0.405019
vt 0.820655 0.391325
vt 0.581678 0.182243
vt 0.580088 0.176343
vt 0.398853 0.612609
vt 0.610025 0.603420
vt 0.201358 0.611870
vt 0.400323 0.809439
vt 0.404002 0.812276
vt 0.607763 0.803737
vt 0.810676 0.598970
vt 0.815275 0.597952
vt 0.392238 0.196260
vt 0.189324 0.401028
vt 0.184724 0.402046
vt 0.798641 0.388128
vt 0.599677 0.190559
vt 0.595998 0.187723
vt 0.389974 0.396578
vt 0.601146 0.387390
vn 0.001685 -0.999973 0.007168
vn 0.001049 -0.923965 0.382477
vn -0.001048 -0.923964 0.382477
vn -0.001685 -0.999973 0.007167
vn 0.001048 -0.382508 0.923951
vn 0.001642 -0.012618 0.999919
vn -0.001658 -0.012610 0.999919
vn -0.001048 -0.382509 0.923951
vn 0.999897 -0.012559 0.007019
vn 0.924075 -0.382186 0.004452
vn 0.924075 -0.382186 -0.004455
vn 0.999897 -0.012564 -0.006953
vn 0.382185 -0.924075 0.004452
vn 0.001686 -0.999973 -0.007169
vn 0.382184 -0.924076 -0.004456
vn 0.378543 -0.008420 0.925546
vn 0.379367 -0.000464 0.925246
vn 0.001700 0.009083 0.999957
vn 0.922875 -0.008573 0.385006
vn 0.999923 0.010130 0.007146
vn 0.922503 -0.000569 0.385989
vn 0.001658 -0.012611 -0.999919
vn 0.001048 -0.382553 -0.923933
vn -0.001048 -0.382553 -0.923933
vn -0.001642 -0.012619 -0.999919
vn 0.001048 -0.923930 -0.382559
vn -0.001685 -0.999973 -0.007170
vn -0.001048 -0.923931 -0.382559
vn 0.925565 -0.008419 -0.378496
vn 0.925266 -0.000464 -0.379319
vn 0.999922 0.010219 -0.007170
vn 0.385056 -0.008575 -0.922853
vn 0.001692 0.008981 -0.999958
vn 0.386041 -0.000570 -0.922481
vn 0.000146 0.980057 0.198716
vn 0.057344 0.995595 0.074176
vn -0.032269 0.999005 -0.030770
vn -0.000180 0.999165 -0.040866
vn 0.173070 0.984909 0.000802
vn -0.037214 0.999307 -0.000680
vn 0.000981 0.393362 0.919383
vn -0.000926 0.393379 0.919376
vn -0.001692 0.008980 0.999958
vn 0.001572 0.935015 0.354605
vn -0.000129 0.979936 0.199313
vn -0.001596 0.935062 0.354481
vn 0.354362 0.935087 0.006317
vn 0.354745 0.934942 -0.006257
vn 0.172531 0.985004 -0.000864
vn 0.914751 0.403991 0.004693
vn 0.914784 0.403913 -0.004926
vn 0.058877 0.995643 -0.072313
vn -0.032354 0.999005 0.030689
vn -0.037196 0.999308 0.000693
vn 0.000129 0.979934 -0.199322
vn -0.000176 0.999163 0.040914
vn 0.001596 0.935062 -0.354481
vn -0.001572 0.935015 -0.354604
vn -0.000146 0.980056 -0.198723
vn 0.000926 0.393450 -0.919346
vn -0.001699 0.009083 -0.999957
vn -0.000981 0.393432 -0.919353
vn -0.172530 0.985004 0.000864
vn -0.058878 0.995642 0.072323
vn 0.032354 0.999006 -0.030676
vn 0.037195 0.999308 -0.000693
vn 0.000176 0.999162 -0.040935
vn -0.999922 0.010219 0.007170
vn -0.914794 0.403891 0.004925
vn -0.914761 0.403969 -0.004695
vn -0.999923 0.010130 -0.007146
vn -0.354741 0.934944 0.006262
vn -0.173069 0.984909 -0.000802
vn -0.354358 0.935089 -0.006320
vn -0.385993 -0.000569 0.922502
vn -0.385009 -0.008574 0.922873
vn -0.925269 -0.000463 0.379311
vn -0.999897 -0.012563 0.006952
vn -0.925568 -0.008419 0.378488
vn -0.057344 0.995595 -0.074176
vn 0.032270 0.999006 0.030765
vn 0.000180 0.999166 0.040844
vn 0.037214 0.999307 0.000680
vn -0.922514 -0.000569 -0.385963
vn -0.922886 -0.008571 -0.384979
vn -0.999897 -0.012558 -0.007019
vn -0.379318 -0.000464 -0.925266
vn -0.378494 -0.008420 -0.925566
vn -0.382178 -0.924078 0.004455
vn -0.382179 -0.924078 -0.004453
vn -0.924080 -0.382173 0.004454
vn -0.924080 -0.382172 -0.004452
vn -0.001751 0.020352 -0.999791
vn -0.381946 0.024219 -0.923867
vn -0.380775 0.010545 -0.924608
vn -0.001745 0.016067 -0.999869
vn -0.923335 0.023992 -0.383246
vn -0.999760 0.020070 -0.008809
vn -0.999834 0.015967 -0.008802
vn -0.923974 0.010592 -0.382310
vn -0.000364 0.926702 -0.375798
vn 0.000333 0.926705 -0.375789
vn -0.002402 0.397985 -0.917389
vn 0.001750 0.020331 -0.999792
vn 0.002370 0.398005 -0.917380
vn -0.916545 0.399770 -0.011376
vn -0.916571 0.399706 0.011512
vn -0.999759 0.020086 0.008813
vn -0.367389 0.930066 -0.001658
vn -0.367416 0.930055 0.001771
vn -0.923348 0.023966 0.383215
vn -0.923974 0.010592 0.382309
vn -0.999834 0.015967 0.008802
vn -0.381955 0.024318 0.923861
vn -0.001750 0.020331 0.999792
vn -0.001745 0.016067 0.999869
vn -0.380749 0.010546 0.924618
vn -0.002370 0.397997 0.917384
vn 0.002402 0.397977 0.917392
vn 0.001751 0.020352 0.999791
vn -0.000333 0.926743 0.375696
vn 0.000364 0.926740 0.375704
vn 0.381931 0.024219 0.923874
vn 0.380763 0.010545 0.924613
vn 0.001745 0.016067 0.999869
vn 0.923332 0.023992 0.383254
vn 0.999760 0.020069 0.008810
vn 0.999834 0.015967 0.008802
vn 0.923970 0.010592 0.382317
vn 0.916553 0.399751 0.011377
vn 0.916579 0.399687 -0.011510
vn 0.999759 0.020085 -0.008813
vn 0.367391 0.930065 0.001658
vn 0.367419 0.930054 -0.001772
vn 0.923346 0.023966 -0.383221
vn 0.923970 0.010591 -0.382318
vn 0.999834 0.015967 -0.008802
vn 0.381979 0.024320 -0.923851
vn 0.001745 0.016067 -0.999869
vn 0.380776 0.010546 -0.924607
vn -0.001107 0.382587 -0.923919
vn 0.001107 0.382587 -0.923919
vn -0.924130 0.382039 -0.005598
vn -0.924130 0.382038 0.005597
vn -0.001107 0.382595 0.923916
vn 0.001107 0.382595 0.923916
vn 0.924126 0.382046 0.005597
vn 0.924126 0.382046 -0.005597
vn 0.325360 -0.325393 0.887840
vn 0.325386 -0.887895 0.325219
vn 0.887859 -0.325440 0.325262
vn 0.325274 -0.887867 -0.325405
vn 0.325258 -0.325423 -0.887867
vn 0.887845 -0.325412 -0.325329
vn 0.168659 0.965658 0.197635
vn 0.312707 0.502715 0.805911
vn 0.312707 0.502715 0.805911
vn 0.786564 0.508500 0.350349
vn 0.786564 0.508500 0.350349
vn 0.173272 0.965798 -0.192901
vn 0.798337 0.501336 -0.333648
vn 0.798337 0.501336 -0.333648
vn 0.328678 0.511109 -0.794190
vn 0.328678 0.511109 -0.794190
vn -0.173270 0.965793 0.192930
vn -0.798331 0.501318 0.333688
vn -0.798331 0.501318 0.333688
vn -0.328686 0.511074 0.794210
vn -0.328686 0.511074 0.794210
vn -0.168654 0.965658 -0.197639
vn -0.312708 0.502730 -0.805901
vn -0.312708 0.502730 -0.805901
vn -0.786570 0.508472 -0.350377
vn -0.786570 0.508472 -0.350377
vn -0.325278 -0.887866 0.325405
vn -0.325260 -0.325434 0.887862
vn -0.887847 -0.325417 0.325319
vn -0.325302 -0.325397 -0.887860
vn -0.325353 -0.887871 -0.325317
vn -0.887890 -0.325389 -0.325229
vn -0.808944 0.484645 -0.332761
vn -0.336646 0.487383 -0.805684
vn -0.198105 0.961426 -0.190824
vn -0.336751 0.490297 0.803871
vn -0.810297 0.482485 0.332606
vn -0.199319 0.961507 0.189146
vn 0.808952 0.484640 0.332746
vn 0.336600 0.487361 0.805717
vn 0.198109 0.961433 0.190786
vn 0.336708 0.490278 -0.803900
vn 0.810325 0.482498 -0.332519
vn 0.199329 0.961522 -0.189059
vn -0.325307 0.325382 -0.887864
vn -0.887875 0.325399 -0.325260
vn -0.325291 0.325398 0.887864
vn -0.887870 0.325391 0.325282
vn 0.887877 0.325412 0.325241
vn 0.325328 0.325390 0.887853
vn 0.325321 0.325405 -0.887850
vn 0.887874 0.325411 -0.325251
s 1
g pCube91
usemtl lambert43SG
f 2/1/1 1/2/2 45/3/3 50/4/4
s 2
f 1/2/5 6/5/6 46/6/7 45/3/8
s 3
f 4/7/9 3/8/10 11/9/11 10/10/12
s 1
f 3/8/13 2/1/1 12/11/14 11/9/15
s 2
f 6/5/6 5/12/16 17/156/17 16/14/18
s 3
f 5/160/19 4/7/9 18/15/20 17/13/21
s 4
f 8/16/22 7/17/23 51/18/24 56/19/25
s 1
f 7/17/26 12/11/14 52/20/27 51/18/28
s 3
f 10/10/12 9/21/29 25/153/30 24/23/31
s 4
f 9/159/32 8/16/22 26/24/33 25/22/34
s 5
f 14/25/35 13/26/36 61/142/37 60/28/38
f 13/158/36 20/29/39 62/30/40 61/27/37
s 2
f 16/14/18 15/31/41 35/32/42 34/33/43
s 5
f 15/31/44 14/25/35 36/34/45 35/32/46
f 20/29/39 19/35/47 23/36/48 22/37/49
s 3
f 19/35/50 18/15/20 24/23/31 23/36/51
s 5
f 22/37/49 21/38/52 69/139/53 68/40/54
f 21/155/52 28/41/55 70/42/56 69/39/53
f 28/41/55 27/43/57 39/44/58 38/45/59
s 4
f 27/43/60 26/24/33 40/46/61 39/44/62
s 5
f 30/47/63 29/48/64 85/133/65 84/50/66
f 29/152/64 36/34/45 86/51/67 85/49/65
s 10
f 32/52/68 31/53/69 43/54/70 42/55/71
s 5
f 31/53/72 30/47/63 44/56/73 43/54/74
s 2
f 34/33/43 33/57/75 47/146/76 46/6/7
s 10
f 33/150/77 32/52/68 48/59/78 47/58/79
s 5
f 38/45/59 37/60/80 77/136/81 76/62/82
f 37/149/80 44/56/73 78/63/83 77/61/81
s 10
f 42/55/71 41/64/84 55/145/85 54/66/86
s 4
f 41/147/87 40/46/61 56/19/25 55/65/88
s 1
f 50/4/4 49/67/89 53/68/90 52/20/27
s 10
f 49/67/91 48/59/78 54/66/86 53/68/92
s 12
f 58/69/93 57/70/94 91/131/95 90/72/96
s 13
f 57/144/97 64/73/98 92/74/99 91/71/100
s 5
f 60/28/38 59/75/101 87/76/102 86/51/67
s 12
f 59/75/103 58/69/93 88/77/104 87/76/105
s 13
f 64/73/98 63/78/106 67/79/107 66/80/108
s 5
f 63/78/109 62/30/40 68/40/54 67/79/110
s 13
f 66/80/108 65/81/111 97/130/112 96/83/113
s 14
f 65/141/114 72/84/115 98/85/116 97/82/117
f 72/84/115 71/86/118 75/87/119 74/88/120
s 5
f 71/86/121 70/42/56 76/62/82 75/87/122
s 14
f 74/88/120 73/89/123 102/128/124 101/91/125
s 15
f 73/138/126 80/92/127 103/93/128 102/90/129
f 80/92/127 79/94/130 83/95/131 82/96/132
s 5
f 79/94/133 78/63/83 84/50/66 83/95/134
s 15
f 82/96/132 81/97/135 107/126/136 106/99/137
s 12
f 81/135/138 88/77/104 108/100/139 107/98/140
f 90/72/96 89/101/141 104/102/142 108/100/139
s 13
f 93/103/143 92/74/99 96/83/113 95/104/144
s 14
f 94/105/145 98/85/116 101/91/125 100/106/146
s 15
f 99/107/147 103/93/128 106/99/137 105/108/148
s 3
f 4/7/9 10/10/12 24/23/31 18/15/20
s 10
f 32/52/68 42/55/71 54/66/86 48/59/78
s 1
f 50/4/4 52/20/27 12/11/14 2/1/1
s 4
f 8/16/22 56/19/25 40/46/61 26/24/33
s 2
f 46/6/7 6/5/6 16/14/18 34/33/43
s 5
f 20/29/39 22/37/49 68/40/54 62/30/40
f 28/41/55 38/45/59 76/62/82 70/42/56
f 44/56/73 30/47/63 84/50/66 78/63/83
f 36/34/45 14/25/35 60/28/38 86/51/67
s 13
f 64/73/98 66/80/108 96/83/113 92/74/99
s 14
f 72/84/115 74/88/120 101/91/125 98/85/116
s 15
f 80/92/127 82/96/132 106/99/137 103/93/128
s 12
f 88/77/104 58/69/93 90/72/96 108/100/139
s 2
f 5/12/16 6/5/6 1/2/5 109/109/149
s 1
f 1/2/2 2/1/1 3/8/13 109/109/150
s 3
f 3/8/10 4/7/9 5/160/19 109/109/151
s 1
f 11/9/15 12/11/14 7/17/26 110/110/152
s 4
f 7/17/23 8/16/22 9/159/32 110/110/153
s 3
f 9/21/29 10/10/12 11/9/11 110/110/154
s 5
f 19/35/47 20/29/39 13/158/36 111/157/155
f 13/26/36 14/25/35 15/31/44 111/111/155
s 2
f 15/31/41 16/14/18 17/156/156 111/111/157
s 3
f 17/13/158 18/15/20 19/35/50 111/157/159
s 5
f 27/43/57 28/41/55 21/155/52 112/154/160
f 21/38/52 22/37/49 23/36/48 112/112/160
s 3
f 23/36/51 24/23/31 25/153/161 112/112/162
s 4
f 25/22/163 26/24/33 27/43/60 112/154/164
s 5
f 35/32/46 36/34/45 29/152/64 113/151/165
f 29/48/64 30/47/63 31/53/72 113/113/165
s 10
f 31/53/69 32/52/68 33/150/166 113/113/167
s 2
f 33/57/168 34/33/43 35/32/42 113/151/169
s 5
f 43/54/74 44/56/73 37/149/80 114/148/170
f 37/60/80 38/45/59 39/44/58 114/114/170
s 4
f 39/44/62 40/46/61 41/147/171 114/114/172
s 10
f 41/64/173 42/55/71 43/54/70 114/148/174
s 1
f 49/67/89 50/4/4 45/3/3 115/115/175
s 2
f 45/3/8 46/6/7 47/146/76 115/115/176
s 10
f 47/58/79 48/59/78 49/67/91 115/115/177
s 4
f 55/65/88 56/19/25 51/18/24 116/116/178
s 1
f 51/18/28 52/20/27 53/68/90 116/116/179
s 10
f 53/68/92 54/66/86 55/145/85 116/116/180
s 13
f 63/78/106 64/73/98 57/144/97 117/143/181
s 12
f 57/70/94 58/69/93 59/75/103 117/117/182
s 5
f 59/75/101 60/28/38 61/142/37 117/117/183
f 61/27/37 62/30/40 63/78/109 117/143/183
s 14
f 71/86/118 72/84/115 65/141/114 118/140/184
s 13
f 65/81/111 66/80/108 67/79/107 118/118/185
s 5
f 67/79/110 68/40/54 69/139/53 118/118/186
f 69/39/53 70/42/56 71/86/121 118/140/186
s 15
f 79/94/130 80/92/127 73/138/126 119/137/187
s 14
f 73/89/123 74/88/120 75/87/119 119/119/188
s 5
f 75/87/122 76/62/82 77/136/81 119/119/189
f 77/61/81 78/63/83 79/94/133 119/137/189
s 12
f 87/76/105 88/77/104 81/135/138 120/134/190
s 15
f 81/97/135 82/96/132 83/95/131 120/120/191
s 5
f 83/95/134 84/50/66 85/133/65 120/120/192
f 85/49/65 86/51/67 87/76/102 120/134/192
s 12
f 89/101/141 90/72/96 91/131/95 121/132/193
s 13
f 91/71/100 92/74/99 93/103/143 121/121/194
s 14
f 97/82/117 98/85/116 94/105/145 122/122/195
s 13
f 95/104/144 96/83/113 97/130/112 122/129/196
s 15
f 102/90/129 103/93/128 99/107/147 123/123/197
s 14
f 100/106/146 101/91/125 102/128/124 123/127/198
s 12
f 107/98/140 108/100/139 104/102/142 124/124/199
s 15
f 105/108/148 106/99/137 107/126/136 124/125/200
