# This file uses centimeters as units for non-parametric coordinates.

mtllib poster ii.mtl
g default
v -3.428107 15.022367 9.878419
v -2.895060 15.022367 9.878419
v -2.362013 15.022367 9.878419
v -3.428107 14.373901 9.878419
v -2.895060 14.373901 9.878419
v -2.362013 14.373901 9.878419
v -3.428107 13.725433 9.878419
v -2.895060 13.725433 9.878419
v -2.362013 13.725433 9.878419
vt 0.911006 1.000000
vt 0.500000 1.000000
vt 0.500000 0.500000
vt 0.911006 0.500000
vt 0.088994 1.000000
vt 0.088994 0.500000
vt 0.500000 -0.000001
vt 0.911006 -0.000001
vt 0.088994 -0.000001
vn 0.000000 0.000000 -1.000000
vn 0.000000 0.000000 -1.000000
vn 0.000000 0.000000 -1.000000
vn 0.000000 0.000000 -1.000000
vn 0.000000 0.000000 -1.000000
vn 0.000000 0.000000 -1.000000
vn 0.000000 0.000000 -1.000000
vn 0.000000 0.000000 -1.000000
vn 0.000000 0.000000 -1.000000
s 1
g pPlane18
usemtl lambert7SG
f 1/1/1 2/2/2 5/3/3 4/4/4
f 2/2/2 3/5/5 6/6/6 5/3/3
f 4/4/4 5/3/3 8/7/7 7/8/8
f 5/3/3 6/6/6 9/9/9 8/7/7
