# This file uses centimeters as units for non-parametric coordinates.

mtllib poster iv.mtl
g default
v -4.125840 32.311409 9.878419
v -3.592793 32.311409 9.878419
v -3.059746 32.311409 9.878419
v -4.125840 31.662943 9.878419
v -3.592793 31.662943 9.878419
v -3.059746 31.662943 9.878419
v -4.125840 31.014475 9.878419
v -3.592793 31.014475 9.878419
v -3.059746 31.014475 9.878419
vt 0.911006 1.000000
vt 0.500000 1.000000
vt 0.500000 0.500000
vt 0.911006 0.500000
vt 0.088994 1.000000
vt 0.088994 0.500000
vt 0.500000 -0.000001
vt 0.911006 -0.000001
vt 0.088994 -0.000001
vn 0.000000 0.000000 -1.000000
vn 0.000000 0.000000 -1.000000
vn 0.000000 0.000000 -1.000000
vn 0.000000 0.000000 -1.000000
vn 0.000000 0.000000 -1.000000
vn 0.000000 0.000000 -1.000000
vn 0.000000 0.000000 -1.000000
vn 0.000000 0.000000 -1.000000
vn 0.000000 0.000000 -1.000000
s 1
g pPlane21
usemtl lambert12SG
f 1/1/1 2/2/2 5/3/3 4/4/4
f 2/2/2 3/5/5 6/6/6 5/3/3
f 4/4/4 5/3/3 8/7/7 7/8/8
f 5/3/3 6/6/6 9/9/9 8/7/7
